# Blender v2.90.1 OBJ File: ''
# www.blender.org
mtllib 1000-0000.mtl
o Cube
v 1.000000 0.000000 -1.000000
v 1.000000 0.000000 0.000000
v 0.000000 0.000000 -1.000000
v 0.000000 0.000000 0.000000
v 0.000000 -1.000000 -1.000000
v 0.000000 -1.000000 0.000000
v 1.000000 -1.000000 0.000000
v 0.000000 -1.000000 0.000000
vt 0.625000 0.625000
vt 0.750000 0.625000
vt 0.750000 0.625000
vt 0.625000 0.625000
vt 0.625000 0.500000
vt 0.750000 0.500000
vt 0.750000 0.500000
vt 0.750000 0.625000
vn 0.0000 0.0000 1.0000
vn 0.0000 1.0000 0.0000
vn -1.0000 0.0000 0.0000
usemtl Material
s off
f 2/1/1 4/2/1 8/3/1 7/4/1
f 1/5/2 3/6/2 4/2/2 2/1/2
f 4/2/3 3/6/3 5/7/3 6/8/3
