# Blender v2.90.1 OBJ File: ''
# www.blender.org
mtllib 1010-0000.mtl
o Cube
v -0.000000 -1.000000 1.000000
v -1.000000 -1.000000 -0.000000
v 1.000000 0.000000 0.000000
v 1.000000 0.000000 -1.000000
v 1.000000 -1.000000 0.000000
v 0.000000 -1.000000 -1.000000
v 0.000000 0.000000 0.000000
v -1.000000 0.000000 -0.000000
v 0.000000 -1.000000 0.000000
v -0.000000 0.000000 1.000000
v -1.000000 0.000000 1.000000
v 0.000000 0.000000 -1.000000
v 0.000000 0.000000 0.000000
vt 0.125000 0.500000
vt 0.125000 0.625000
vt 0.250000 0.625000
vt 0.250000 0.500000
vt 0.250000 0.625000
vt 0.125000 0.625000
vt 0.250000 0.500000
vt 0.250000 0.625000
vt 0.250000 0.750000
vt 0.375000 0.750000
vt 0.375000 0.625000
vt 0.250000 0.750000
vt 0.375000 0.625000
vn 0.0000 1.0000 0.0000
vn 1.0000 0.0000 0.0000
vn 0.0000 0.0000 -1.0000
vn -0.0000 0.0000 1.0000
vn -1.0000 0.0000 -0.0000
usemtl Material
s off
f 11/1/1 10/2/1 7/3/1 8/4/1
f 9/5/2 7/3/2 10/2/2 1/6/2
f 2/7/3 8/4/3 7/3/3 9/5/3
f 13/8/1 3/9/1 4/10/1 12/11/1
f 5/12/4 3/9/4 13/8/4 9/5/4
f 9/5/5 13/8/5 12/11/5 6/13/5
