# Blender v2.90.1 OBJ File: 'grass.blend'
# www.blender.org
o 1100-0000_Cube.005
v 0.100000 -1.000000 -0.000000
v 0.100000 -1.000000 1.000000
v 1.000000 0.000000 0.000000
v 1.000000 -0.000000 1.000000
v 1.000000 0.000000 -1.000000
v 0.100000 -1.000000 -1.000000
v 0.100000 -1.000000 -0.000000
v 0.200000 -0.000000 1.000000
v 0.100000 -0.100000 1.000000
v 0.200000 0.000000 0.000000
v 0.029289 -0.070711 -0.000000
v 0.100000 -0.100000 -1.000000
v 0.200000 0.000000 -1.000000
vt 0.049478 0.929688
vt 0.065684 0.929688
vt 0.065684 0.947919
vt 0.049478 0.947919
vt 0.049478 0.911456
vt 0.065684 0.911456
vt 0.187827 0.933594
vt 0.187826 0.915363
vt 0.187827 0.915363
vt 0.187827 0.933594
vt 0.066136 0.945624
vt 0.066136 0.927393
vt 0.066136 0.927393
vt 0.066136 0.945624
vt 0.067709 0.911456
vt 0.067709 0.929688
vt 0.187827 0.951825
vt 0.187827 0.933594
vt 0.187827 0.951825
vn 0.0000 1.0000 0.0000
vn -0.9987 -0.0386 -0.0347
vn -0.5331 0.8454 0.0312
vn -0.5334 0.8459 0.0000
vn -0.5331 0.8454 -0.0312
vn -0.9987 -0.0386 0.0347
s 1
f 3/1/1 10/2/1 8/3/1 4/4/1
f 5/5/1 13/6/1 10/2/1 3/1/1
f 11/7/2 12/8/2 6/9/2 7/10/2
f 8/11/3 10/12/4 11/13/4 9/14/3
f 10/2/4 13/6/5 12/15/5 11/16/4
f 9/17/6 11/7/6 1/18/6 2/19/6
