# Blender v2.90.1 OBJ File: 'tiles.blend'
# www.blender.org
o beach_1111-1110_Cube.010
v -1.000000 0.200000 -0.004285
v 0.100000 0.291430 1.000000
v 0.005714 0.200000 1.000000
v 0.100000 1.000000 1.000000
v 0.100000 0.500000 1.000000
v -1.000000 -0.000000 1.000000
v -1.000000 0.500000 -0.100000
v -1.000000 1.000000 -0.100000
v -1.000000 0.291430 -0.100000
v 0.100000 0.500000 0.031731
v -0.032135 0.500000 -0.100000
v 0.100000 1.000000 0.031476
v -0.031865 1.000000 -0.100000
v -0.131083 0.200000 -0.005523
v 0.003235 0.200000 0.127402
v -0.032968 0.291430 -0.100000
v 0.100000 0.291430 0.032516
vt 0.173622 0.930118
vt 0.173622 0.930118
vt 0.173622 0.930118
vt 0.173622 0.930118
vt 0.282136 0.930118
vt 0.282136 0.930118
vt 0.282136 0.930118
vt 0.282136 0.930118
vt 0.282136 0.930118
vt 0.173622 0.930118
vt 0.173622 0.930118
vt 0.285236 0.936319
vt 0.285236 0.936319
vt 0.285236 0.936319
vt 0.285236 0.936318
vt 0.173622 0.930118
vt 0.173622 0.930118
vt 0.285236 0.936319
vt 0.285236 0.936318
vt 0.173622 0.930118
vt 0.173622 0.930118
vt 0.173622 0.930118
vt 0.285236 0.936319
vt 0.285236 0.936319
vt 0.173622 0.930118
vn -1.0000 -0.0000 0.0000
vn -0.0994 0.9901 0.0995
vn -0.6912 0.7227 0.0009
vn -0.7060 0.0004 0.7082
vn -0.3935 0.8296 0.3962
vn -0.7060 0.0027 0.7082
vn 0.0000 0.0000 1.0000
vn 0.0005 0.7207 0.6932
s off
f 17/1/1 2/2/1 5/3/1 10/4/1
f 1/5/2 6/6/2 3/7/2 15/8/2 14/9/2
f 10/4/1 5/3/1 4/10/1 12/11/1
f 15/12/3 3/13/3 2/14/3 17/15/3
f 12/11/4 13/16/4 11/17/4 10/4/4
f 17/15/5 16/18/5 14/19/5 15/12/5
f 10/4/6 11/17/6 16/20/6 17/1/6
f 9/21/7 16/20/7 11/17/7 7/22/7
f 1/23/8 14/19/8 16/18/8 9/24/8
f 7/22/7 11/17/7 13/16/7 8/25/7
