# Blender v2.90.1 OBJ File: 'tiles.blend'
# www.blender.org
o beach-cliff_1100-0000_Cube.014
v 0.200000 0.000000 -1.000000
v 0.200000 -1.000000 -0.200000
v 0.200000 -0.550000 -0.200000
v 0.100000 -0.550000 -0.450000
v 0.150000 -0.050000 -0.475000
v 0.200000 0.000000 -0.500000
v 0.100000 -0.100000 -0.450000
v -1.000000 0.000000 -1.000000
v -1.007107 -1.000000 0.007107
v -1.007107 -0.550000 0.007107
v -1.000000 -0.450000 -0.600000
v -1.000000 -0.050000 -0.640000
v -1.000000 0.000000 -0.680000
v -1.000000 -0.100000 -0.600000
v 0.200000 -1.000000 -0.200000
v 0.100000 -1.000000 -1.000000
v 1.000000 0.000000 -1.000000
v 1.000000 -1.000000 -0.100000
v 0.100000 -0.100000 -1.000000
v 0.300000 0.000000 -0.300000
v 0.200000 -0.100000 -0.200000
v 1.000000 -0.100000 -0.100000
v 1.000000 0.000000 -0.200000
v 0.100000 -1.000000 -0.450000
v 0.450000 -1.000000 -0.100000
v 0.150000 -0.050000 -1.000000
v 0.250000 -0.050000 -0.250000
v 0.500000 0.000000 -0.200000
v 1.000000 -0.050000 -0.150000
v 0.450000 -0.100000 -0.100000
v 0.100000 -0.550000 -1.000000
v 0.200000 -0.550000 -0.200000
v 1.000000 -0.550000 -0.100000
v 0.475000 -0.050000 -0.150000
v 0.450000 -0.550000 -0.100000
vt 0.062008 0.936319
vt 0.062008 0.936319
vt 0.062008 0.936319
vt 0.062008 0.936319
vt 0.062008 0.936319
vt 0.062008 0.936319
vt 0.062008 0.936319
vt 0.062008 0.936319
vt 0.313140 0.933218
vt 0.313140 0.933218
vt 0.313140 0.933218
vt 0.313140 0.933218
vt 0.179823 0.939419
vt 0.179823 0.939419
vt 0.179823 0.939419
vt 0.179823 0.939419
vt 0.179823 0.939419
vt 0.179823 0.939419
vt 0.179823 0.939419
vt 0.179823 0.939419
vt 0.066858 0.944103
vt 0.078869 0.944103
vt 0.078869 0.932092
vt 0.191247 0.930664
vt 0.191247 0.930664
vt 0.191247 0.917152
vt 0.191247 0.917152
vt 0.057399 0.940099
vt 0.058150 0.940099
vt 0.071663 0.940099
vt 0.070161 0.940099
vt 0.080370 0.932843
vt 0.081872 0.933594
vt 0.081872 0.920081
vt 0.080370 0.920081
vt 0.177734 0.944176
vt 0.177734 0.944176
vt 0.191247 0.944176
vt 0.191247 0.944176
vt 0.164222 0.944176
vt 0.164222 0.944176
vt 0.164222 0.944176
vt 0.177734 0.944176
vt 0.191247 0.944176
vt 0.080370 0.945605
vt 0.081872 0.947106
vt 0.078869 0.920081
vt 0.044638 0.940099
vt 0.044638 0.940099
vt 0.044638 0.940099
vt 0.056649 0.940099
vt 0.068660 0.940099
vt 0.191247 0.944176
vt 0.191247 0.944176
vt 0.191247 0.930664
vt 0.191247 0.917152
vt 0.054847 0.920081
vt 0.054847 0.944103
vn -0.2209 0.5292 0.8193
vn -0.2278 0.5255 0.8197
vn -0.2204 0.5294 0.8192
vn -0.2273 0.5258 0.8197
vn 0.0000 1.0000 -0.0000
vn 0.0873 0.9942 0.0634
vn 0.0958 0.9940 0.0535
vn 0.0890 0.9941 0.0613
vn 0.0937 0.9940 0.0560
vn 0.3348 -0.0007 0.9423
vn 0.3333 0.0000 0.9428
vn 0.3334 0.0000 0.9428
vn -0.2312 0.5314 0.8150
vn -0.2381 0.5280 0.8152
vn -0.2306 0.5317 0.8150
vn -0.2375 0.5283 0.8152
vn -0.2677 0.0000 0.9635
vn -0.1891 -0.0000 0.9820
vn 0.0000 -0.0000 1.0000
vn -0.4955 0.7808 0.3806
vn -0.5170 0.7805 0.3513
vn -0.4292 0.7948 0.4292
vn -0.4299 0.7940 0.4299
vn -0.1306 0.7483 0.6503
vn -0.1422 0.7512 0.6446
vn 0.0000 0.7071 0.7071
vn -0.9820 -0.0000 0.1891
vn -0.9285 -0.0000 0.3714
vn -1.0000 -0.0000 0.0000
vn -0.9820 -0.0000 -0.1891
vn -0.8415 -0.0000 0.5403
vn -0.4309 0.7929 0.4309
vn -0.1230 0.7463 0.6541
vn -0.7071 0.7071 0.0000
vn -0.7512 0.6446 -0.1421
vn -0.7483 0.6503 -0.1306
vn -0.7464 0.6541 -0.1230
vn -0.4781 0.7804 0.4030
vn -0.3714 -0.0000 0.9285
s off
f 5/1/1 12/2/2 14/3/3 7/4/4
f 1/5/5 8/6/5 13/7/5 6/8/5
f 3/9/6 4/10/7 11/11/8 10/12/9
f 3/13/10 10/14/11 9/15/12 2/16/11
f 6/8/13 13/7/14 12/2/15 5/1/16
f 7/17/17 14/18/17 11/19/17 4/20/17
s 1
f 6/21/5 20/22/5 28/23/5
f 35/24/18 25/25/18 18/26/19 33/27/19
f 5/28/20 7/29/21 21/30/22 27/31/23
f 34/32/24 30/33/25 22/34/26 29/35/26
f 4/36/27 24/37/27 15/38/28 32/39/28
f 31/40/29 16/41/29 24/37/27 4/36/27
f 19/42/29 31/40/29 4/36/27 7/43/30
f 7/43/31 4/36/27 32/39/28 21/44/28
f 27/45/23 21/46/22 30/33/25 34/32/24
f 20/22/32 27/45/23 34/32/24 28/23/33
f 28/23/33 34/32/24 29/35/26 23/47/26
f 26/48/34 19/49/34 7/29/35 5/28/36
f 1/50/34 26/48/34 5/28/36 6/51/37
f 6/51/38 5/28/20 27/31/23 20/52/32
f 3/53/39 2/54/39 25/25/18 35/24/18
f 21/44/39 3/53/39 35/24/18 30/55/18
f 30/55/18 35/24/18 33/27/19 22/56/19
f 17/57/5 1/58/5 6/21/5 28/23/5 23/47/5
