# Blender v2.90.1 OBJ File: 'tiles.blend'
# www.blender.org
o beach-cliff_1111-1100_Cube.014
v 1.000000 0.500000 -0.100000
v 1.000000 0.200000 -0.008571
v -1.000000 0.291430 -0.100000
v 1.000000 0.291430 -0.100000
v -1.000000 -0.000000 1.000000
v -1.000000 0.500000 -0.100000
v -1.000000 1.000000 -0.100000
v 1.000000 -0.000000 1.000000
v 1.000000 1.000000 -0.100000
v -1.000000 0.000000 -0.008571
v -1.000000 0.091430 -0.100000
v -0.113469 0.291430 -0.100000
v 0.113469 0.291430 -0.100000
v 0.113469 0.200000 -0.008571
v -0.113469 1.000000 -0.100000
v 0.113469 1.000000 -0.100000
v -0.113469 0.500000 -0.100000
v 0.113469 -0.000000 1.000000
v -0.113469 -0.000000 1.000000
v -0.113469 0.091430 -0.100000
v -0.113469 0.000000 -0.008571
v 0.113469 0.500000 -0.100000
v 0.113469 0.100000 0.095715
v 1.000000 0.100000 0.095715
vt 0.301234 0.924219
vt 0.301234 0.943951
vt 0.298796 0.944111
vt 0.298796 0.924378
vt 0.205337 0.941534
vt 0.199270 0.941541
vt 0.199270 0.938778
vt 0.205337 0.938771
vt 0.199270 0.927987
vt 0.205337 0.927980
vt 0.181954 0.941686
vt 0.181954 0.952452
vt 0.180785 0.952532
vt 0.180785 0.941766
vt 0.199270 0.952332
vt 0.205337 0.952325
vt 0.196740 0.941544
vt 0.196740 0.952335
vt 0.196740 0.938781
vt 0.196740 0.927990
vt 0.194313 0.941547
vt 0.194313 0.952338
vt 0.321449 0.924133
vt 0.321449 0.943865
vt 0.195590 0.938747
vt 0.296895 0.919135
vt 0.299037 0.918989
vt 0.065128 0.928277
vt 0.065128 0.939669
vt 0.052189 0.939616
vt 0.052189 0.928224
vt 0.050953 0.939700
vt 0.050953 0.928308
vt 0.321449 0.919082
vn 0.0000 0.7218 0.6921
vn 0.0000 0.0000 1.0000
vn 0.0000 0.7071 0.7071
vn 0.0000 0.9939 0.1099
vn -0.2551 0.2894 0.9226
vn -0.5331 0.6049 0.5916
vn 0.0000 1.0000 0.0000
vn -0.2260 0.9728 0.0509
s off
f 23/1/1 24/2/1 2/3/1 14/4/1
f 15/5/2 17/6/2 22/7/2 16/8/2
f 22/7/2 1/9/2 9/10/2 16/8/2
f 14/11/3 2/12/3 4/13/3 13/14/3
f 6/15/2 17/6/2 15/5/2 7/16/2
f 12/17/2 17/6/2 6/15/2 3/18/2
f 13/19/2 4/20/2 1/9/2 22/7/2
f 22/7/2 17/6/2 12/17/2 13/19/2
f 20/21/2 12/17/2 3/18/2 11/22/2
f 18/23/4 8/24/4 24/2/4 23/1/4
f 12/17/5 20/21/5 14/25/5 13/19/5
f 23/1/6 14/4/6 20/26/6 21/27/6
f 5/28/7 19/29/7 21/30/7 10/31/7
f 10/31/3 21/30/3 20/32/3 11/33/3
f 21/27/8 19/34/8 18/23/8 23/1/8
