# Blender v2.90.1 OBJ File: 'tiles.blend'
# www.blender.org
o beach_1110-0000_Cube.010
v -1.000000 0.000000 -1.000000
v -1.000000 -1.000000 -0.600000
v 0.000000 0.000000 -1.000000
v -1.000000 -0.100000 -0.600000
v -1.000000 0.000000 -0.680000
v 0.000000 0.000000 -0.900000
v 0.000000 -0.000000 -0.700000
v -1.000000 -0.050000 -0.640000
v 0.000000 -0.083333 -0.600000
v -1.000000 -0.450000 -0.600000
v 0.000000 -0.050000 -0.640000
v -0.000000 -0.433333 -0.600000
v -0.000000 -1.015000 -0.000000
v 0.000000 -0.565000 0.000000
v -0.992894 -0.550000 0.007107
v -0.992894 -1.000000 0.007107
v 1.000000 -0.000000 -0.000000
v 0.900000 -0.000000 -0.000000
v 0.700000 -0.000000 -0.000000
v 0.600000 -0.083333 0.000000
v 0.640000 -0.050000 -0.000000
v 0.600000 -0.433333 -0.000000
v 0.000000 -1.015000 -0.000000
v -0.000000 -0.565000 0.000000
v 1.000000 0.000000 1.000000
v 0.900000 0.000000 1.000000
v 0.700000 0.000000 1.000000
v 0.600000 -0.083333 1.000000
v 0.640000 -0.050000 1.000000
v 0.600000 -0.433333 1.000000
v 0.000000 -1.015000 1.000000
v -0.000000 -0.565000 1.000000
v 0.000000 0.000000 -0.950000
v 0.000000 -0.066667 -0.620000
v 0.000000 -0.025000 -0.670000
v 0.000000 -0.258333 -0.600000
v 0.000000 -0.000000 -0.800000
v 0.950000 -0.000000 -0.000000
v 0.620000 -0.066667 -0.000000
v 0.670000 -0.025000 -0.000000
v 0.600000 -0.258333 -0.000000
v 0.800000 -0.000000 -0.000000
v 1.000000 0.000000 -1.000000
v 0.515157 -0.083333 -0.600000
v 0.600000 -0.083333 -0.516010
v 0.633970 -0.050000 -0.548734
v 0.547751 -0.050000 -0.633980
v 0.606040 0.000000 -0.688564
v 0.692372 -0.000000 -0.602471
v 0.743806 0.000000 -0.740197
v 0.600000 -0.433333 -0.516365
v 0.515544 -0.433333 -0.600000
vt 0.000000 0.000000
vt 0.000000 0.000000
vt 0.000000 0.000000
vt 0.000000 0.000000
vt 0.080370 0.932843
vt 0.080370 0.920081
vt 0.081872 0.920081
vt 0.081872 0.933594
vt 0.081121 0.933218
vt 0.078869 0.932092
vt 0.078869 0.920081
vt 0.079620 0.932468
vt 0.191247 0.930664
vt 0.191247 0.917152
vt 0.191247 0.917152
vt 0.191247 0.930664
vt 0.191247 0.930664
vt 0.054847 0.920081
vt 0.072864 0.938098
vt 0.066858 0.944103
vt 0.060853 0.944103
vt 0.054847 0.944103
vt 0.191247 0.930664
vt 0.191247 0.917152
vt 0.191247 0.917152
vt 0.191247 0.930664
vt 0.315516 0.935586
vt 0.315516 0.922073
vt 0.315516 0.922073
vt 0.315516 0.935586
vt 0.191247 0.930664
vt 0.191247 0.930664
vt 0.081872 0.933594
vt 0.080370 0.932843
vt 0.079527 0.932422
vt 0.080370 0.932843
vt 0.080370 0.932843
vt 0.079620 0.932468
vt 0.078869 0.932092
vt 0.191247 0.930664
vt 0.191247 0.930664
vt 0.315516 0.935586
vt 0.315516 0.935586
vt 0.315516 0.935586
vt 0.315516 0.935586
vt 0.066858 0.944103
vt 0.072864 0.938098
vt 0.078869 0.932092
vt 0.066858 0.944103
vt 0.080370 0.932843
vt 0.054847 0.944103
vt 0.060853 0.944103
vt 0.054847 0.944103
vt 0.191247 0.930664
vt 0.191247 0.930664
vt 0.191247 0.930664
vt 0.191247 0.930664
vt 0.191247 0.930664
vt 0.191247 0.930664
vt 0.191247 0.930664
vt 0.081121 0.933218
vt 0.081872 0.933594
vt 0.081872 0.933594
vt 0.078869 0.932092
vt 0.081021 0.933168
vt 0.081872 0.933594
vt 0.072864 0.938098
vt 0.077848 0.933114
vt 0.078869 0.932092
vt 0.315516 0.935586
vt 0.315516 0.935586
vt 0.074783 0.934135
vt 0.054847 0.944103
vt 0.191247 0.930664
vt 0.191247 0.930664
vn -0.9999 0.0000 0.0117
vn 0.0795 0.7199 0.6895
vn 0.0007 0.6999 0.7143
vn -0.0058 0.6925 0.7214
vn -0.1076 0.3824 0.9177
vn -0.0048 0.7740 0.6332
vn 0.0427 0.9314 0.3615
vn 0.0071 0.7071 0.7071
vn -0.0014 0.7672 0.6414
vn 0.0000 0.0000 1.0000
vn -0.6111 0.6633 0.4320
vn -0.1522 0.3305 0.9314
vn 0.0000 0.2208 0.9753
vn 0.0000 1.0000 -0.0000
vn 0.0000 0.9999 -0.0130
vn -0.5459 0.6047 0.5799
vn -0.0288 0.6459 0.7629
vn -0.0262 -0.0000 0.9997
vn -0.3018 -0.1400 0.9430
vn -0.9010 -0.0834 0.4258
vn -0.5691 0.7589 0.3165
vn -0.2991 0.4950 0.8158
vn -0.2017 0.8142 0.5444
vn -0.1965 0.9758 0.0961
vn -0.5357 0.8188 0.2064
vn -0.6941 0.7172 -0.0620
vn -0.6771 0.7346 -0.0436
vn -0.3697 0.9287 -0.0291
vn -0.3414 0.5834 0.7369
vn -0.5890 0.7221 0.3629
vn -0.5973 0.6756 0.4322
vn -0.9828 0.0074 -0.1848
vn 0.0173 0.9997 0.0194
vn -0.2910 0.9539 0.0734
vn -0.6147 0.7720 0.1617
vn -0.9879 0.0009 0.1548
vn -0.9438 0.3305 0.0011
vn -0.9380 -0.2832 0.1997
vn -0.8776 0.4286 0.2148
vn -0.6978 0.7134 0.0645
vn -0.0997 0.9753 0.1973
vn -0.8136 0.4963 0.3027
vn -0.7360 0.5826 0.3448
s off
f 10/1/1 2/2/1 16/3/1 15/4/1
s 1
f 11/5/2 8/6/3 4/7/4 9/8/5 34/9/6
f 7/10/7 5/11/8 8/6/3 11/5/2 35/12/9
f 9/13/5 4/14/10 10/15/11 12/16/12 36/17/13
f 1/18/14 5/11/14 7/10/7 37/19/15 6/20/14 33/21/14 3/22/14
f 14/23/16 15/24/17 16/25/18 13/26/19
f 12/27/12 10/28/11 15/29/17 14/30/16
f 14/23/16 13/26/19 23/31/20 24/32/21
f 11/5/2 34/9/6 9/8/5 44/33/22 47/34/23
f 49/35/24 46/36/25 21/37/26 40/38/27 19/39/28
f 9/13/5 36/17/13 12/16/12 52/40/29 44/41/22
f 22/42/30 24/43/21 32/44/31 30/45/32
f 18/46/14 42/47/33 19/39/28 27/48/34 26/49/14
f 19/39/28 40/38/27 21/37/26 29/50/35 27/48/34
f 17/51/14 38/52/14 18/46/14 26/49/14 25/53/14
f 24/32/21 23/31/20 31/54/36 32/55/31
f 20/56/37 41/57/38 22/58/30 30/59/32 28/60/39
f 21/37/26 39/61/40 20/62/37 28/63/39 29/50/35
f 7/10/7 35/12/9 11/5/2 47/34/23 48/64/41
f 46/65/25 45/66/42 20/62/37 39/61/40 21/37/26
f 43/67/14 50/68/14 49/69/24 19/39/28 42/47/33 18/46/14 38/52/14 17/51/14
f 12/27/12 14/30/16 24/43/21 22/42/30 51/70/43 52/71/29
f 6/20/14 37/19/15 7/10/7 48/64/41 50/72/14 43/73/14 3/22/14 33/21/14
f 48/64/41 49/69/24 50/72/14
f 45/66/42 46/65/25 47/34/23 44/33/22
f 46/36/25 49/35/24 48/64/41 47/34/23
f 51/74/43 45/75/42 44/41/22 52/40/29
f 45/75/42 51/74/43 22/58/30 41/57/38 20/56/37
