# Blender v2.90.1 OBJ File: 'tiles.blend'
# www.blender.org
o beach_1100-0000_Cube.011
v -1.000000 0.000000 -1.000000
v 0.000000 0.000000 -1.000000
v -1.000000 -0.100000 -0.600000
v -1.000000 0.000000 -0.680000
v -1.000000 -0.050000 -0.640000
v -1.000000 -0.450000 -0.600000
v -0.992894 -0.550000 0.007107
v -0.992894 -1.000000 0.007107
v 0.007106 -1.000000 0.007107
v 0.007106 -0.550000 0.007107
v -0.000000 -0.450000 -0.600000
v 0.000000 -0.050000 -0.640000
v 0.000000 0.000000 -0.680000
v 0.000000 -0.100000 -0.600000
v 1.000000 0.000000 -1.000000
v 1.007107 -1.000000 0.007107
v 1.007107 -0.550000 0.007107
v 1.000000 -0.450000 -0.600000
v 1.000000 -0.050000 -0.640000
v 1.000000 0.000000 -0.680000
v 1.000000 -0.100000 -0.600000
vt 0.179823 0.939419
vt 0.179823 0.939419
vt 0.179823 0.939419
vt 0.179823 0.939419
vt 0.062008 0.936319
vt 0.062008 0.936319
vt 0.062008 0.936319
vt 0.062008 0.936319
vt 0.062008 0.936319
vt 0.062008 0.936319
vt 0.062008 0.936319
vt 0.062008 0.936319
vt 0.313140 0.933218
vt 0.313140 0.933218
vt 0.313140 0.933218
vt 0.313140 0.933218
vt 0.179823 0.939419
vt 0.179823 0.939419
vt 0.179823 0.939419
vt 0.179823 0.939419
vt 0.062008 0.936319
vt 0.062008 0.936319
vt 0.062008 0.936319
vt 0.062008 0.936319
vt 0.313140 0.933218
vt 0.313140 0.933218
vt 0.179823 0.939419
vt 0.179823 0.939419
vt 0.179823 0.939419
vt 0.179823 0.939419
vn 0.0000 -0.0000 1.0000
vn 0.0000 0.6247 0.7809
vn 0.0000 1.0000 -0.0000
vn 0.0000 0.9867 0.1625
s off
f 7/1/1 8/2/1 9/3/1 10/4/1
f 5/5/2 3/6/2 14/7/2 12/8/2
f 1/9/3 4/10/3 13/11/3 2/12/3
f 7/13/4 10/14/4 11/15/4 6/16/4
f 4/10/2 5/5/2 12/8/2 13/11/2
f 3/17/1 6/18/1 11/19/1 14/20/1
f 12/8/2 14/7/2 21/21/2 19/22/2
f 2/12/3 13/11/3 20/23/3 15/24/3
f 10/14/4 17/25/4 18/26/4 11/15/4
f 10/4/1 9/3/1 16/27/1 17/28/1
f 13/11/2 12/8/2 19/22/2 20/23/2
f 14/20/1 11/19/1 18/29/1 21/30/1
