# Blender v2.90.1 OBJ File: 'tiles.blend'
# www.blender.org
o building_0000-1000_Cube.019
v -0.300000 0.000000 -0.300000
v -0.300000 1.000000 -0.300000
v -0.500000 0.000000 -0.500000
v -0.500000 1.000000 -0.500000
v -0.300000 0.000000 -1.000000
v -0.300000 1.000000 -1.000000
v -1.000000 1.000000 -0.500000
v -1.000000 0.000000 -0.500000
v -0.500000 0.000000 -1.000000
v -0.500000 1.000000 -1.000000
v -0.300000 0.420000 -1.000000
v -0.500000 0.420000 -1.000000
v -0.300000 0.420000 -0.850000
v -0.500000 0.420000 -0.850000
v -0.300000 0.800000 -1.000000
v -0.500000 0.800000 -1.000000
v -0.300000 0.800000 -0.980000
v -0.500000 0.800000 -0.980000
v -0.300000 0.630000 -0.850000
v -0.500000 0.630000 -0.850000
v -0.300000 0.720000 -0.870000
v -0.500000 0.720000 -0.870000
v -0.300000 0.780000 -0.920000
v -0.500000 0.780000 -0.920000
v -1.000000 0.420000 -0.500000
v -0.850000 0.550000 -0.500000
v -0.850000 0.420000 -0.500000
v -1.000000 0.800000 -0.500000
v -0.980000 0.800000 -0.500000
v -0.850000 0.630000 -0.500000
v -0.870000 0.720000 -0.500000
v -0.920000 0.780000 -0.500000
v -1.000000 1.000000 -0.300000
v -1.000000 0.000000 -0.300000
v -1.000000 0.420000 -0.300000
v -0.850000 0.550000 -0.300000
v -0.850000 0.420000 -0.300000
v -1.000000 0.800000 -0.300000
v -0.980000 0.800000 -0.300000
v -0.850000 0.630000 -0.300000
v -0.870000 0.720000 -0.300000
v -0.920000 0.780000 -0.300000
vt 0.440148 0.906894
vt 0.439624 0.906296
vt 0.446124 0.904103
vt 0.436689 0.916064
vt 0.431447 0.914070
vt 0.438785 0.914070
vt 0.447487 0.916852
vt 0.446962 0.916255
vt 0.451365 0.914064
vt 0.442979 0.916162
vt 0.445075 0.914070
vt 0.445075 0.916162
vt 0.438785 0.920247
vt 0.440880 0.918254
vt 0.440880 0.920247
vt 0.442979 0.918253
vt 0.440882 0.914070
vt 0.442979 0.914070
vt 0.446962 0.911873
vt 0.447487 0.911275
vt 0.438785 0.922241
vt 0.440358 0.920247
vt 0.440358 0.922241
vt 0.445075 0.918067
vt 0.445284 0.916082
vt 0.445284 0.918069
vt 0.445928 0.918056
vt 0.445928 0.916070
vt 0.442979 0.917066
vt 0.445075 0.917066
vt 0.442979 0.917686
vt 0.440882 0.920246
vt 0.442455 0.922239
vt 0.440882 0.922239
vt 0.445075 0.919205
vt 0.442979 0.918301
vt 0.445075 0.918301
vt 0.438785 0.914070
vt 0.440882 0.918254
vt 0.438785 0.918254
vt 0.445075 0.921297
vt 0.442979 0.920002
vt 0.445075 0.920002
vt 0.445075 0.917686
vt 0.442979 0.917686
vt 0.440882 0.920246
vt 0.442977 0.918253
vt 0.442977 0.920246
vt 0.445928 0.916070
vt 0.445284 0.914070
vt 0.445928 0.914083
vt 0.445075 0.916059
vt 0.445075 0.914072
vt 0.431447 0.904103
vt 0.437423 0.906894
vt 0.437213 0.907791
vt 0.446124 0.914070
vt 0.438785 0.914070
vt 0.440358 0.909884
vt 0.438785 0.909884
vt 0.438785 0.904103
vt 0.440358 0.907791
vt 0.438995 0.906097
vt 0.438785 0.906097
vt 0.438785 0.921047
vt 0.436689 0.921047
vt 0.431447 0.916064
vt 0.451365 0.924021
vt 0.447696 0.918545
vt 0.446124 0.924021
vt 0.447696 0.919839
vt 0.446124 0.919839
vt 0.447696 0.917748
vt 0.446124 0.916055
vt 0.446124 0.914064
vt 0.446333 0.916055
vt 0.442979 0.914070
vt 0.438785 0.918254
vt 0.440882 0.918253
vt 0.447696 0.908287
vt 0.446124 0.908287
vt 0.446124 0.904103
vt 0.451365 0.904103
vt 0.446124 0.914064
vt 0.446124 0.912072
vt 0.446333 0.912072
vt 0.447696 0.910379
vt 0.438785 0.920247
vt 0.445075 0.916080
vt 0.445075 0.917686
vt 0.442455 0.920246
vt 0.442979 0.919205
vt 0.440882 0.914070
vt 0.442979 0.921297
vt 0.440882 0.918253
vt 0.445284 0.916057
vt 0.438785 0.914070
vt 0.431447 0.914070
vt 0.437213 0.909884
vt 0.437213 0.908589
vt 0.438785 0.904103
vt 0.437947 0.906296
vt 0.438785 0.906097
vt 0.438576 0.906097
vt 0.438785 0.909884
vn 1.0000 0.0000 0.0000
vn 0.0000 1.0000 0.0000
vn 0.0000 0.0000 -1.0000
vn -1.0000 0.0000 -0.0000
vn 0.0000 -1.0000 -0.0000
vn 0.0000 -0.9487 -0.3162
vn 0.0000 -0.2169 -0.9762
vn 0.0000 -0.6402 -0.7682
vn -0.9762 -0.2169 -0.0000
vn -0.7682 -0.6402 -0.0000
vn -0.3162 -0.9487 0.0000
vn -0.0000 -0.0000 1.0000
s off
f 21/1/1 23/2/1 2/3/1
f 4/4/2 33/5/2 2/6/2
f 31/7/3 32/8/3 4/9/3
f 19/10/3 14/11/3 20/12/3
f 10/13/3 15/14/3 16/15/3
f 12/16/3 5/17/3 9/18/3
f 4/9/4 24/19/4 22/20/4
f 14/21/2 11/22/2 12/23/2
f 16/24/5 17/25/5 18/26/5
f 24/27/6 17/25/6 23/28/6
f 20/12/7 21/29/7 19/10/7
f 22/30/8 23/31/8 21/29/8
f 35/32/2 27/33/2 25/34/2
f 30/35/9 41/36/9 31/37/9
f 8/38/4 35/39/4 25/40/4
f 27/41/4 36/42/4 26/43/4
f 32/44/10 41/36/10 42/45/10
f 28/46/4 33/47/4 7/48/4
f 42/49/11 29/50/11 32/51/11
f 36/42/4 30/35/4 26/43/4
f 29/50/5 38/52/5 28/53/5
f 2/54/12 41/55/12 40/56/12
f 1/57/1 5/58/1 13/59/1
f 5/58/1 11/60/1 13/59/1
f 6/61/1 2/3/1 23/2/1
f 2/3/1 1/57/1 13/59/1
f 21/1/1 2/3/1 19/62/1
f 17/63/1 15/64/1 6/61/1
f 23/2/1 17/63/1 6/61/1
f 13/59/1 19/62/1 2/3/1
f 6/65/2 10/66/2 4/4/2
f 4/4/2 7/67/2 33/5/2
f 2/6/2 6/65/2 4/4/2
f 4/9/3 3/68/3 26/69/3
f 3/68/3 8/70/3 27/71/3
f 8/70/3 25/72/3 27/71/3
f 27/71/3 26/69/3 3/68/3
f 26/69/3 30/73/3 4/9/3
f 28/74/3 7/75/3 29/76/3
f 7/75/3 4/9/3 32/8/3
f 29/76/3 7/75/3 32/8/3
f 4/9/3 30/73/3 31/7/3
f 19/10/3 13/77/3 14/11/3
f 10/13/3 6/78/3 15/14/3
f 12/16/3 11/79/3 5/17/3
f 14/80/4 12/81/4 9/82/4
f 9/82/4 3/83/4 14/80/4
f 3/83/4 4/9/4 14/80/4
f 4/9/4 10/84/4 24/19/4
f 10/84/4 16/85/4 18/86/4
f 10/84/4 18/86/4 24/19/4
f 20/87/4 14/80/4 4/9/4
f 22/20/4 20/87/4 4/9/4
f 14/21/2 13/88/2 11/22/2
f 16/24/5 15/89/5 17/25/5
f 24/27/6 18/26/6 17/25/6
f 20/12/7 22/30/7 21/29/7
f 22/30/8 24/90/8 23/31/8
f 35/32/2 37/91/2 27/33/2
f 30/35/9 40/92/9 41/36/9
f 8/38/4 34/93/4 35/39/4
f 27/41/4 37/94/4 36/42/4
f 32/44/10 31/37/10 41/36/10
f 28/46/4 38/95/4 33/47/4
f 42/49/11 39/96/11 29/50/11
f 36/42/4 40/92/4 30/35/4
f 29/50/5 39/96/5 38/52/5
f 34/97/12 1/98/12 37/99/12
f 1/98/12 2/54/12 36/100/12
f 37/99/12 1/98/12 36/100/12
f 2/54/12 33/101/12 42/102/12
f 33/101/12 38/103/12 39/104/12
f 33/101/12 39/104/12 42/102/12
f 37/99/12 35/105/12 34/97/12
f 40/56/12 36/100/12 2/54/12
f 2/54/12 42/102/12 41/55/12
