# Blender v2.90.1 OBJ File: 'tiles.blend'
# www.blender.org
o cliff_1100-1000_Cube.012
v -1.000000 1.000000 -0.999999
v -1.000000 -1.000000 -0.999999
v 1.000000 -1.000000 -1.000000
v -1.000000 1.000000 -0.099999
v -0.200000 1.000000 -0.200000
v -0.100000 1.000000 -1.000000
v -0.450000 1.000000 -0.100000
v -0.100000 1.000000 -0.450000
v -1.000001 -1.000000 -0.100000
v 1.000000 0.000000 -1.000001
v -0.000000 -0.100000 -0.100000
v -1.000000 0.000000 -0.100000
v -0.200000 0.100000 -0.200000
v 1.000000 -0.100000 -0.100001
v 1.000000 0.000000 -0.200001
v -0.000000 -1.000000 -0.100000
v 0.001922 0.000000 -0.200000
v 1.000000 -1.000000 -0.100001
v -0.250001 -0.100000 -0.100000
v -0.450000 0.100000 -0.100000
v -0.008453 0.000000 -1.000000
v -0.100001 0.091457 -1.000000
v -0.100000 0.100000 -0.450000
vt 0.194868 0.937541
vt 0.198546 0.945086
vt 0.200886 0.942109
vt 0.188831 0.945917
vt 0.194198 0.945917
vt 0.194869 0.945073
vt 0.208518 0.945085
vt 0.212208 0.937485
vt 0.208518 0.937413
vt 0.212208 0.945085
vt 0.213970 0.937485
vt 0.188831 0.930667
vt 0.194949 0.932799
vt 0.194902 0.930618
vt 0.215894 0.937413
vt 0.209808 0.928196
vt 0.209189 0.928968
vt 0.066668 0.926824
vt 0.068392 0.925855
vt 0.066701 0.925012
vt 0.072067 0.926764
vt 0.188878 0.937472
vt 0.195624 0.937418
vt 0.072101 0.935185
vt 0.066701 0.935157
vt 0.200886 0.937472
vt 0.194869 0.945127
vt 0.200217 0.944224
vt 0.194869 0.937472
vt 0.188831 0.937472
vt 0.213970 0.945085
vt 0.188878 0.932848
vt 0.215894 0.920524
vt 0.209808 0.920524
vt 0.202370 0.928968
vt 0.202370 0.937413
vt 0.072101 0.925885
vt 0.065952 0.926931
vt 0.202370 0.928955
vt 0.196298 0.929005
vt 0.196298 0.931107
vt 0.059160 0.916513
vt 0.059881 0.908196
vt 0.059160 0.908122
vt 0.202370 0.920548
vt 0.202370 0.937363
vt 0.059881 0.916603
vt 0.196298 0.920597
vn 0.0000 1.0000 0.0000
vn 0.7071 -0.0000 -0.7071
vn 1.0000 -0.0000 -0.0000
vn 0.9821 -0.0000 0.1882
vn 0.9820 -0.0000 0.1891
vn 0.5215 0.1785 0.8344
vn 0.7071 -0.0000 0.7071
vn 0.1421 0.0480 0.9887
vn -0.0000 0.0000 -1.0000
vn 0.3082 0.7805 0.5439
vn 0.6537 0.7560 0.0355
vn 0.4203 0.8487 0.3209
vn 0.7075 0.7066 -0.0107
vn 0.0000 -0.0000 1.0000
vn 0.1891 -0.0000 0.9820
vn 0.7067 0.7074 -0.0110
vn 0.1129 0.7015 0.7037
vn 0.0000 0.0961 0.9954
vn 0.0614 0.1593 0.9853
vn 0.0000 0.7071 0.7071
s 1
f 1/1/1 7/2/1 8/3/1
f 10/4/2 15/5/3 14/6/3
f 6/7/3 23/8/4 22/9/3
f 8/10/5 13/11/6 23/8/4
f 5/12/7 20/13/8 13/14/6
f 2/15/9 22/16/9 21/17/9
f 17/18/10 23/19/11 13/20/12
f 21/21/13 23/19/11 17/18/10
f 20/13/8 4/22/14 12/23/14
f 10/24/1 17/18/1 15/25/1
f 6/26/1 1/1/1 8/3/1
f 1/1/1 4/27/1 7/2/1
f 8/3/1 7/2/1 5/28/1
f 18/29/3 3/30/2 14/6/3
f 3/30/2 10/4/2 14/6/3
f 6/7/3 8/10/5 23/8/4
f 8/10/5 5/31/7 13/11/6
f 5/12/7 7/32/15 20/13/8
f 2/15/9 1/33/9 22/16/9
f 1/33/9 6/34/9 22/16/9
f 10/35/2 3/36/2 21/17/9
f 3/36/2 2/15/9 21/17/9
f 21/21/13 22/37/16 23/19/11
f 20/13/8 7/32/15 4/22/14
f 10/24/1 21/21/1 17/18/1
f 17/18/10 13/20/12 11/38/17
f 16/39/14 11/40/18 19/41/19
f 17/42/10 14/43/20 15/44/20
f 18/45/14 11/40/18 16/39/14
f 12/23/14 19/41/19 20/13/8
f 13/14/6 19/41/19 11/40/18
f 12/23/14 9/46/14 19/41/19
f 9/46/14 16/39/14 19/41/19
f 17/42/10 11/47/17 14/43/20
f 18/45/14 14/48/14 11/40/18
f 13/14/6 20/13/8 19/41/19
