# Blender v2.90.1 OBJ File: 'grass.blend'
# www.blender.org
o 1000-0000.001_Cube.002
v -0.200000 -1.000000 -0.200000
v -0.100000 -1.000000 -1.000000
v -1.000000 0.000000 -1.000000
v -1.000000 -1.000000 -0.100000
v -0.200000 -1.000000 -0.200000
v -0.200000 0.000000 -1.000000
v -0.100000 -0.100000 -1.000000
v -0.300000 0.000000 -0.300000
v -0.200000 -0.100000 -0.200000
v -1.000000 -0.100000 -0.100000
v -1.000000 0.000000 -0.200000
v -0.100000 -1.000000 -0.450000
v -0.450000 -1.000000 -0.100000
v -0.150000 -0.050000 -1.000000
v -0.200000 0.000000 -0.500000
v -0.250000 -0.050000 -0.250000
v -0.100000 -0.100000 -0.450000
v -0.500000 0.000000 -0.200000
v -1.000000 -0.050000 -0.150000
v -0.450000 -0.100000 -0.100000
v -0.100000 -0.550000 -1.000000
v -0.200000 -0.550000 -0.200000
v -0.200000 -0.550000 -0.200000
v -1.000000 -0.550000 -0.100000
v -0.100000 -0.550000 -0.450000
v -0.475000 -0.050000 -0.150000
v -0.150000 -0.050000 -0.475000
v -0.450000 -0.550000 -0.100000
vt 0.066858 0.944103
vt 0.078869 0.932092
vt 0.078869 0.944103
vt 0.191247 0.930664
vt 0.191247 0.917152
vt 0.191247 0.917152
vt 0.191247 0.930664
vt 0.057399 0.940099
vt 0.070161 0.940099
vt 0.071663 0.940099
vt 0.058150 0.940099
vt 0.080370 0.932843
vt 0.080370 0.920081
vt 0.081872 0.920081
vt 0.081872 0.933594
vt 0.177734 0.944176
vt 0.191247 0.944176
vt 0.191247 0.944176
vt 0.177734 0.944176
vt 0.164222 0.944176
vt 0.164222 0.944176
vt 0.164222 0.944176
vt 0.177734 0.944176
vt 0.191247 0.944176
vt 0.080370 0.945605
vt 0.081872 0.947106
vt 0.078869 0.920081
vt 0.044638 0.940099
vt 0.044638 0.940099
vt 0.044638 0.940099
vt 0.056649 0.940099
vt 0.068660 0.940099
vt 0.191247 0.944176
vt 0.191247 0.944176
vt 0.191247 0.930664
vt 0.191247 0.917152
vt 0.054847 0.920081
vt 0.054847 0.944103
vn 0.0000 1.0000 0.0000
vn 0.1891 -0.0000 0.9820
vn -0.0000 0.0000 1.0000
vn 0.6503 0.7483 0.1306
vn 0.4299 0.7940 0.4299
vn 0.4292 0.7948 0.4292
vn 0.6446 0.7512 0.1422
vn 0.1306 0.7483 0.6503
vn 0.0000 0.7071 0.7071
vn 0.1422 0.7512 0.6446
vn 0.9820 -0.0000 0.1891
vn 0.9285 -0.0000 0.3714
vn 1.0000 -0.0000 0.0000
vn 0.4309 0.7929 0.4309
vn 0.1230 0.7463 0.6541
vn 0.7071 0.7071 0.0000
vn 0.6541 0.7463 0.1230
vn 0.3714 -0.0000 0.9285
s 1
f 15/1/1 18/2/1 8/3/1
f 28/4/2 24/5/3 4/6/3 13/7/2
f 27/8/4 16/9/5 9/10/6 17/11/7
f 26/12/8 19/13/9 10/14/9 20/15/10
f 25/16/11 22/17/12 1/18/12 12/19/11
f 21/20/13 25/16/11 12/19/11 2/21/13
f 7/22/13 17/23/11 25/16/11 21/20/13
f 17/23/11 9/24/12 22/17/12 25/16/11
f 16/25/5 26/12/8 20/15/10 9/26/6
f 8/3/14 18/2/15 26/12/8 16/25/5
f 18/2/15 11/27/9 19/13/9 26/12/8
f 14/28/16 27/8/4 17/11/7 7/29/16
f 6/30/16 15/31/17 27/8/4 14/28/16
f 15/31/17 8/32/14 16/9/5 27/8/4
f 23/33/18 28/4/2 13/7/2 5/34/18
f 9/24/18 20/35/2 28/4/2 23/33/18
f 20/35/2 10/36/3 24/5/3 28/4/2
f 3/37/1 11/27/1 18/2/1 15/1/1 6/38/1
