# Blender v2.90.1 OBJ File: 'tiles.blend'
# www.blender.org
o cliff_1111-1100_Cube.018
v -1.000000 -0.000000 1.000000
v -1.000000 0.500000 -0.100000
v -1.000000 1.000000 -0.100000
v 1.000000 -0.000000 1.000000
v 1.000000 0.500000 -0.100000
v 1.000000 1.000000 -0.100000
v 1.000000 0.000000 -0.008571
v -1.000000 0.000000 -0.008571
v -1.000000 0.091430 -0.100000
v 1.000000 0.091430 -0.100000
v 0.000000 0.091430 -0.100000
v 0.000000 0.000000 -0.008571
v 0.000000 1.000000 -0.100000
v 0.000000 0.500000 -0.100000
v 0.000000 -0.000000 1.000000
v -1.000000 1.000000 -1.000000
v 1.000000 1.000000 -1.000000
v -1.000000 -1.000000 1.000000
v 1.000000 -1.000000 1.000000
v -1.000000 -1.000000 -1.000000
v 1.000000 -1.000000 -1.000000
vt 0.071309 0.942519
vt 0.071309 0.942519
vt 0.071309 0.942519
vt 0.068209 0.936319
vt 0.068209 0.936319
vt 0.068209 0.936319
vt 0.173622 0.930118
vt 0.173622 0.930118
vt 0.173622 0.930118
vt 0.173622 0.930118
vt 0.173622 0.930118
vt 0.173622 0.930118
vt 0.173622 0.930118
vt 0.071309 0.942519
vt 0.071309 0.942519
vt 0.173622 0.930118
vt 0.068209 0.936319
vt 0.068209 0.936319
vt 0.071309 0.942519
vt 0.068209 0.936319
vt 0.175781 0.921875
vt 0.175781 0.921875
vt 0.175781 0.921875
vt 0.175781 0.921875
vt 0.175781 0.921875
vt 0.175781 0.921875
vt 0.173622 0.930118
vn 0.0000 0.7071 0.7071
vn 0.0000 1.0000 0.0000
vn 0.0000 0.0000 1.0000
vn 1.0000 -0.0000 0.0000
vn 0.5774 -0.5774 -0.5774
vn -0.5774 -0.5774 -0.5774
vn -1.0000 -0.0000 0.0000
vn 0.5774 0.5774 -0.5774
vn -0.5774 0.5774 -0.5774
vn -0.5774 -0.5774 0.5774
vn 0.5774 -0.5774 0.5774
vn 0.7071 0.7071 0.0000
vn 0.7071 -0.0000 0.7071
vn -0.7071 0.7071 0.0000
vn -0.7071 -0.0000 0.7071
s 1
f 7/1/1 11/2/1 12/3/1
f 4/4/2 12/5/2 15/6/2
f 5/7/3 13/8/3 14/9/3
f 10/10/3 14/9/3 11/11/3
f 14/9/3 3/12/3 2/13/3
f 12/3/1 9/14/1 8/15/1
f 11/11/3 2/13/3 9/16/3
f 15/6/2 8/17/2 1/18/2
f 10/19/4 7/20/4 21/21/5
f 20/22/6 8/17/7 9/14/7
f 13/8/2 17/23/8 16/24/9
f 20/22/6 17/23/8 21/21/5
f 21/21/5 18/25/10 20/22/6
f 15/6/3 18/25/10 19/26/11
f 7/1/1 10/19/1 11/2/1
f 4/4/2 7/20/2 12/5/2
f 5/7/3 6/27/3 13/8/3
f 10/10/3 5/7/3 14/9/3
f 14/9/3 13/8/3 3/12/3
f 12/3/1 11/2/1 9/14/1
f 11/11/3 14/9/3 2/13/3
f 15/6/2 12/5/2 8/17/2
f 17/23/8 6/27/12 5/7/4
f 17/23/8 5/7/4 10/19/4
f 4/4/13 19/26/11 7/20/4
f 19/26/11 21/21/5 7/20/4
f 21/21/5 17/23/8 10/19/4
f 2/13/7 3/12/14 16/24/9
f 20/22/6 18/25/10 8/17/7
f 18/25/10 1/18/15 8/17/7
f 2/13/7 16/24/9 9/14/7
f 16/24/9 20/22/6 9/14/7
f 16/24/9 3/12/14 13/8/2
f 13/8/2 6/27/12 17/23/8
f 20/22/6 16/24/9 17/23/8
f 21/21/5 19/26/11 18/25/10
f 19/26/11 4/4/13 15/6/3
f 15/6/3 1/18/15 18/25/10
