# Blender v2.90.1 OBJ File: 'tiles.blend'
# www.blender.org
o cliff_1110-1110_Cube.009
v 0.100000 -1.000000 1.000000
v -1.000000 -1.000000 -0.100000
v 0.100000 -1.000000 0.030000
v -0.030000 -1.000000 -0.100000
v 0.100000 1.000000 1.000000
v -1.000000 1.000000 -0.100000
v 0.100000 1.000000 0.030000
v -0.030001 1.000000 -0.100000
v 1.000000 -1.000000 1.000000
v 1.000000 1.000000 1.000000
v -1.000000 -1.000000 -1.000000
v -1.000000 1.000000 -1.000000
v 1.000000 -1.000000 -1.000000
v 1.000000 1.000000 -1.000000
v -1.000000 0.000000 -0.100000
v -0.030000 0.000000 -0.100000
v 0.100000 0.000000 0.030000
v 0.100000 0.000000 1.000000
vt 0.209324 0.919908
vt 0.208709 0.925781
vt 0.208709 0.919908
vt 0.208709 0.914035
vt 0.204124 0.919908
vt 0.204124 0.914035
vt 0.214192 0.919321
vt 0.213578 0.920084
vt 0.209324 0.914035
vt 0.209324 0.925781
vt 0.199870 0.937527
vt 0.199870 0.925781
vt 0.218777 0.937527
vt 0.209324 0.925781
vt 0.218777 0.925781
vt 0.199870 0.937527
vt 0.195616 0.937527
vt 0.195616 0.931654
vt 0.204124 0.914035
vt 0.199539 0.919908
vt 0.199539 0.914035
vt 0.204124 0.919908
vt 0.199539 0.925781
vt 0.204124 0.925781
vt 0.195285 0.919908
vt 0.199539 0.914035
vt 0.199539 0.925781
vt 0.209324 0.925781
vt 0.218777 0.914035
vt 0.218777 0.919321
vt 0.213578 0.925781
vt 0.209324 0.925781
vt 0.209324 0.937527
vt 0.209324 0.937527
vt 0.209324 0.914035
vt 0.195616 0.925781
vt 0.199870 0.925781
vt 0.204124 0.925781
vt 0.195285 0.925781
vt 0.195285 0.914035
vn -0.8844 -0.0631 0.4625
vn -0.4774 0.0000 0.8787
vn -0.2817 0.0000 0.9595
vn -0.4490 -0.0741 0.8905
vn -0.0000 0.0000 1.0000
vn -0.0316 0.9925 -0.1180
vn -0.0864 0.9925 -0.0864
vn 0.2138 0.9284 -0.3040
vn -0.7071 0.0000 -0.7071
vn 0.7071 0.0000 -0.7071
vn 0.7071 -0.0000 0.7071
vn 0.7071 -0.0062 0.7071
vn -0.7501 0.6596 0.0475
vn -0.6124 0.3534 0.7071
vn -0.8802 0.0000 0.4747
vn -1.0000 0.0000 -0.0000
vn -0.7059 -0.0593 -0.7059
vn -0.0474 0.6598 0.7500
vn -0.8915 0.0720 0.4473
s 1
f 17/1/1 8/2/2 16/3/3
f 4/4/4 15/5/5 2/6/5
f 8/7/6 7/8/7 14/9/8
f 11/10/9 14/11/8 13/12/10
f 9/13/11 14/14/8 10/15/12
f 4/4/4 17/1/1 16/3/3
f 10/16/12 5/17/13 18/18/14
f 7/19/15 18/20/16 5/21/16
f 17/22/1 1/23/16 18/20/16
f 15/5/5 8/2/2 6/24/5
f 15/25/16 12/26/17 11/27/9
f 17/1/1 7/28/15 8/2/2
f 4/4/4 16/3/3 15/5/5
f 12/29/17 6/30/18 8/7/6
f 7/8/7 5/31/13 10/32/12
f 14/9/8 12/29/17 8/7/6
f 7/8/7 10/32/12 14/9/8
f 11/10/9 12/33/17 14/11/8
f 9/13/11 13/34/10 14/14/8
f 4/4/4 3/35/19 17/1/1
f 18/18/14 1/36/5 9/37/11
f 9/37/11 10/16/12 18/18/14
f 7/19/15 17/22/1 18/20/16
f 17/22/1 3/38/19 1/23/16
f 15/5/5 16/3/3 8/2/2
f 11/27/9 2/39/16 15/25/16
f 15/25/16 6/40/18 12/26/17
