# Blender v2.90.1 OBJ File: 'tiles.blend'
# www.blender.org
o cliff_1110-0000_Cube.004
v -0.030001 -1.000000 -0.100000
v 0.100000 -1.000000 1.000000
v 1.000000 -0.000000 1.000000
v 1.000000 -0.000000 -1.000000
v -1.000000 0.000000 -1.000000
v -1.000000 -1.000000 -0.100000
v 0.099999 -1.000000 0.030000
v 0.200000 -0.000000 1.000000
v 0.100000 -0.100000 1.000000
v -0.037689 0.000000 -0.200000
v -0.030001 -0.100000 -0.100000
v -1.000000 -0.100000 -0.100000
v -1.000000 0.000000 -0.200000
v 0.100000 -0.100000 0.030000
v 0.200000 0.000000 0.037689
v 1.000000 -1.000000 1.000000
v 1.000000 -1.000000 -1.000000
v -1.000000 -1.000000 -1.000000
v 0.000000 0.000000 -1.000000
v 1.000000 -0.000000 0.000000
vt 0.181606 0.948856
vt 0.181606 0.940996
vt 0.181606 0.940996
vt 0.079163 0.929181
vt 0.064676 0.934020
vt 0.063442 0.929181
vt 0.197327 0.940996
vt 0.189466 0.940996
vt 0.189466 0.940996
vt 0.056815 0.934020
vt 0.056815 0.941880
vt 0.056815 0.941880
vt 0.072536 0.934020
vt 0.064676 0.934020
vt 0.056815 0.949741
vt 0.056815 0.949741
vt 0.207031 0.929687
vt 0.061695 0.960623
vt 0.207031 0.929687
vt 0.047720 0.929181
vt 0.047720 0.944902
vt 0.207031 0.929687
vt 0.181606 0.948856
vt 0.181606 0.956717
vt 0.181606 0.956717
vt 0.047720 0.960623
vt 0.072536 0.934020
vt 0.197327 0.940996
vt 0.056815 0.934020
vn -0.9239 0.0000 0.3827
vn -0.3827 0.0000 0.9239
vn -0.0000 1.0000 -0.0000
vn -0.0000 0.0000 1.0000
vn -0.2372 0.6778 0.6960
vn -0.6724 0.6444 0.3641
vn -0.6960 0.6778 0.2372
vn -0.0000 0.7071 0.7071
vn -0.3641 0.6444 0.6724
vn -0.7071 0.7071 -0.0000
vn 0.5774 -0.5774 0.5774
vn 0.5774 -0.5774 -0.5774
vn 0.7071 -0.0000 -0.7071
vn 1.0000 -0.0000 0.0000
vn -0.5774 -0.5774 -0.5774
vn -0.7071 -0.0000 -0.7071
vn -0.0000 -0.0000 -1.0000
vn -1.0000 -0.0000 -0.0000
vn 0.0000 -1.0000 0.0000
vn 0.0000 -0.7071 0.7071
vn 0.7071 0.0000 0.7071
vn -0.7071 -0.7071 0.0000
s 1
f 7/1/1 11/2/2 1/3/2
f 5/4/3 10/5/3 19/6/3
f 12/7/4 1/8/2 11/9/2
f 10/10/5 14/11/6 15/12/7
f 10/5/5 12/13/8 11/14/9
f 15/12/7 9/15/10 8/16/10
f 16/17/11 8/18/4 9/15/4
f 17/19/12 4/20/13 20/21/14
f 18/22/15 5/4/16 19/6/17
f 12/7/18 5/4/16 18/22/15
f 7/1/19 1/8/19 17/19/12
f 14/23/1 2/24/18 9/25/18
f 15/12/3 4/20/3 10/10/3
f 15/12/3 3/26/3 20/21/3
f 7/1/1 14/23/1 11/2/2
f 5/4/3 13/27/3 10/5/3
f 12/7/4 6/28/4 1/8/2
f 10/10/5 11/29/9 14/11/6
f 10/5/5 13/27/8 12/13/8
f 15/12/7 14/11/6 9/15/10
f 9/15/4 2/24/20 16/17/11
f 16/17/11 3/26/21 8/18/4
f 20/21/14 3/26/21 16/17/11
f 16/17/11 17/19/12 20/21/14
f 19/6/17 4/20/13 17/19/12
f 17/19/12 18/22/15 19/6/17
f 18/22/15 6/28/22 12/7/18
f 12/7/18 13/27/18 5/4/16
f 16/17/11 2/24/20 7/1/19
f 1/8/19 6/28/22 18/22/15
f 17/19/12 16/17/11 7/1/19
f 1/8/19 18/22/15 17/19/12
f 14/23/1 7/1/1 2/24/18
f 20/21/3 4/20/3 15/12/3
f 4/20/3 19/6/3 10/10/3
f 15/12/3 8/18/3 3/26/3
