# Blender v2.90.1 OBJ File: 'tiles.blend'
# www.blender.org
o cliff_1111-1000_Cube.015
v -1.000000 -0.000000 1.000000
v 0.000000 -0.000000 1.000000
v 1.000000 0.000000 0.000000
v 1.000000 -0.000000 1.000000
v 1.000000 0.000000 -1.000000
v -0.100000 0.500000 -1.000000
v -0.200000 0.500000 -0.200000
v -1.000000 0.500000 -0.100000
v -0.100000 0.500000 -0.450000
v -0.450000 0.500000 -0.100000
v -0.100000 1.000000 -1.000000
v -0.200000 1.000000 -0.200000
v -1.000000 1.000000 -0.100000
v -0.100000 1.000000 -0.450000
v -0.450000 1.000000 -0.100000
v -0.200000 0.091429 -0.200000
v -0.129662 -0.000000 -0.129662
v -1.000000 0.000000 -0.008571
v -1.000000 0.091430 -0.100000
v -0.100000 0.091429 -1.000000
v -0.008570 -0.000000 -1.000000
v -0.100000 0.091429 -0.450000
v -0.008571 -0.000000 -0.432392
v -0.432392 0.000000 -0.008571
v -0.450000 0.091429 -0.100000
vt 0.059280 0.933324
vt 0.059722 0.938569
vt 0.049618 0.937748
vt 0.064851 0.938894
vt 0.071235 0.948557
vt 0.060426 0.948557
vt 0.059528 0.926940
vt 0.060426 0.932344
vt 0.060426 0.937748
vt 0.071235 0.938647
vt 0.065831 0.937748
vt 0.071235 0.937748
vt 0.059605 0.938453
vt 0.049618 0.948557
vt 0.049618 0.926940
vt 0.060426 0.926940
vt 0.059873 0.938302
vt 0.191247 0.930664
vt 0.191247 0.917152
vt 0.191247 0.917152
vt 0.191247 0.944176
vt 0.191247 0.930664
vt 0.177734 0.944176
vt 0.191247 0.944176
vt 0.164222 0.944176
vt 0.177734 0.944176
vt 0.191247 0.930664
vt 0.191247 0.917152
vt 0.191247 0.944176
vt 0.177734 0.944176
vt 0.164222 0.944176
vt 0.164222 0.944176
vn -0.0000 1.0000 0.0000
vn 0.7071 0.7071 0.0000
vn 0.8980 0.4046 0.1729
vn 0.6880 0.7135 0.1325
vn 0.6333 0.4447 0.6333
vn 0.4785 0.7362 0.4785
vn 0.0000 0.7071 0.7071
vn 0.1729 0.4046 0.8980
vn -0.0000 0.3827 0.9239
vn 0.1325 0.7135 0.6880
vn 0.9239 0.3827 0.0000
vn -0.0000 0.0000 1.0000
vn 0.1891 0.0000 0.9820
vn 0.7071 -0.0000 0.7071
vn 1.0000 0.0000 0.0000
vn 0.9820 -0.0000 0.1891
s 1
f 23/1/1 17/2/1 3/3/1
f 24/4/1 1/5/1 2/6/1
f 21/7/2 22/8/3 23/1/4
f 23/1/4 16/9/5 17/2/6
f 18/10/7 25/11/8 19/12/9
f 16/9/5 24/4/10 17/13/6
f 3/3/1 2/6/1 4/14/1
f 3/3/1 5/15/1 23/1/1
f 5/15/1 21/7/1 23/1/1
f 2/6/1 17/13/1 24/4/1
f 24/4/1 18/10/1 1/5/1
f 21/7/2 20/16/11 22/8/3
f 23/1/4 22/8/3 16/9/5
f 18/10/7 24/4/10 25/11/8
f 16/9/5 25/11/8 24/4/10
f 3/3/1 17/17/1 2/6/1
f 25/18/8 8/19/12 19/20/9
f 16/21/5 10/22/13 25/18/8
f 22/23/3 7/24/14 16/21/5
f 22/23/3 6/25/15 9/26/16
f 8/19/12 15/27/13 13/28/12
f 7/24/14 15/27/13 10/22/13
f 9/26/16 12/29/14 7/24/14
f 6/25/15 14/30/16 9/26/16
f 25/18/8 10/22/13 8/19/12
f 16/21/5 7/24/14 10/22/13
f 22/23/3 9/26/16 7/24/14
f 22/23/3 20/31/11 6/25/15
f 8/19/12 10/22/13 15/27/13
f 7/24/14 12/29/14 15/27/13
f 9/26/16 14/30/16 12/29/14
f 6/25/15 11/32/15 14/30/16
