# Blender v2.90.1 OBJ File: 'tiles.blend'
# www.blender.org
o cliff_1110-0010_Cube.028
v 0.999999 -1.000001 0.100001
v 0.099999 -1.000000 1.000001
v 0.200000 -0.000000 0.200001
v 0.100000 0.000000 1.000000
v 0.100000 -0.000000 0.450000
v 1.000000 0.999999 0.100001
v 0.200000 1.000000 0.200001
v 0.100000 1.000000 1.000000
v 0.450000 1.000000 0.100001
v 0.100001 1.000000 0.450001
v -0.030001 -1.000000 -0.099999
v -1.000001 -0.999999 -0.100000
v -1.000000 0.000000 -1.000000
v 1.000000 -0.000001 -0.999999
v 1.000000 -0.000000 1.000001
v 0.099999 -1.000000 0.030001
v -1.000000 0.000001 -0.200000
v -1.000000 -0.099999 -0.100000
v -0.037690 0.000000 -0.200000
v -0.030000 -0.100000 -0.100000
v 0.099999 -0.100000 0.030001
v 0.200000 0.000000 0.037690
v 0.100000 -0.100000 0.325001
v -1.000000 -1.000000 -1.000000
v 1.000000 -1.000000 -0.999999
v 0.999999 -1.000000 1.000001
v 1.000000 1.000000 1.000001
v 0.000000 -0.000000 -1.000000
v 1.000000 -0.000001 0.000001
v 1.000000 0.099999 0.100001
v 1.000000 -0.100001 0.100001
vt 0.204608 0.919637
vt 0.206152 0.916990
vt 0.203864 0.916697
vt 0.194961 0.913884
vt 0.195245 0.914143
vt 0.194961 0.912741
vt 0.203864 0.919634
vt 0.192122 0.913884
vt 0.203477 0.916687
vt 0.047970 0.922408
vt 0.048298 0.922709
vt 0.048804 0.922410
vt 0.195245 0.914756
vt 0.197800 0.914756
vt 0.197800 0.922621
vt 0.200354 0.922621
vt 0.200354 0.919978
vt 0.197800 0.912741
vt 0.194961 0.910872
vt 0.204467 0.922282
vt 0.206022 0.922285
vt 0.206022 0.919642
vt 0.192122 0.910872
vt 0.192122 0.912741
vt 0.203477 0.922621
vt 0.203477 0.919684
vt 0.200638 0.919684
vt 0.200354 0.919390
vt 0.048555 0.925065
vt 0.048757 0.922710
vt 0.206152 0.919633
vt 0.203477 0.919624
vt 0.047591 0.922414
vt 0.197800 0.919684
vt 0.200354 0.916747
vt 0.197800 0.916747
vt 0.197800 0.910872
vt 0.203477 0.919637
vt 0.203477 0.921252
vt 0.203760 0.921987
vt 0.048863 0.925059
vt 0.197800 0.915296
vt 0.195245 0.917311
vt 0.197800 0.917311
vt 0.195245 0.915296
vt 0.049171 0.919180
vt 0.049429 0.922013
vt 0.049429 0.919187
vt 0.050713 0.915296
vt 0.050430 0.914532
vt 0.050430 0.915520
vt 0.194961 0.919180
vt 0.197800 0.919180
vt 0.203477 0.913776
vt 0.206315 0.916687
vt 0.206315 0.910879
vt 0.203477 0.913516
vt 0.200922 0.910872
vt 0.200922 0.913721
vt 0.051690 0.919192
vt 0.051690 0.925065
vt 0.049171 0.922029
vt 0.050714 0.914756
vt 0.194961 0.917518
vt 0.203477 0.910872
vt 0.203477 0.916681
vt 0.200553 0.914103
vt 0.197800 0.914103
vt 0.197800 0.916747
vt 0.203477 0.916747
vt 0.203477 0.910872
vt 0.051690 0.922129
vn -0.1874 -0.0182 -0.9821
vn -0.0781 -0.0477 -0.9958
vn -0.6440 -0.0319 -0.7644
vn -0.9944 0.0000 -0.1056
vn -1.0000 0.0000 0.0000
vn -0.7071 0.0000 -0.7071
vn -0.9820 0.0000 -0.1891
vn -0.8176 0.5266 -0.2329
vn -0.5731 0.8179 -0.0517
vn -0.6724 0.6444 0.3641
vn -0.9239 0.0000 0.3827
vn 0.5773 -0.5774 0.5774
vn 0.7071 -0.7071 0.0000
vn 1.0000 -0.0000 0.0000
vn -0.0000 -0.7071 0.7071
vn 0.7071 -0.0000 0.7071
vn -0.0000 0.0000 1.0000
vn 0.0000 1.0000 -0.0000
vn 0.0000 0.7071 0.7071
vn 0.5774 0.5774 0.5774
vn 0.5774 -0.5774 -0.5774
vn 0.7071 -0.0000 -0.7071
vn -0.0460 0.7667 -0.6404
vn -0.5015 0.8566 0.1218
vn 0.0000 0.0000 -1.0000
vn -0.8422 0.4211 -0.3369
vn 0.7071 0.7071 -0.0000
vn -0.0333 0.7067 -0.7067
vn -0.3827 0.0000 0.9239
vn -0.2372 0.6778 0.6960
vn -0.3641 0.6444 0.6724
vn -0.5774 -0.5774 -0.5774
vn -0.0000 -1.0000 0.0000
vn -0.7071 -0.7071 -0.0000
s 1
f 9/1/1 30/2/2 3/3/3
f 5/4/4 23/5/5 4/6/5
f 9/1/1 3/3/3 7/7/6
f 4/6/5 10/8/7 5/4/4
f 5/9/4 7/7/6 3/3/3
f 23/10/8 3/11/9 21/12/10
f 23/5/5 21/13/11 16/14/11
f 26/15/12 1/16/13 31/17/14
f 2/18/15 15/19/16 4/6/17
f 10/20/18 8/21/19 27/22/20
f 4/6/17 27/23/20 8/24/19
f 25/25/21 14/26/22 29/27/14
f 29/27/14 30/28/14 31/17/14
f 30/29/23 22/30/24 3/11/9
f 9/1/1 6/31/25 30/2/2
f 4/6/5 8/24/5 10/8/7
f 5/9/4 10/32/7 7/7/6
f 5/33/26 3/11/9 23/10/8
f 3/11/9 22/30/24 21/12/10
f 16/14/11 2/18/5 23/5/5
f 2/18/5 4/6/5 23/5/5
f 31/17/14 30/28/14 15/34/16
f 30/28/14 6/35/27 27/36/20
f 15/34/16 30/28/14 27/36/20
f 15/34/16 26/15/12 31/17/14
f 2/18/15 26/37/12 15/19/16
f 6/38/27 9/39/18 27/22/20
f 9/39/18 7/40/18 10/20/18
f 27/22/20 9/39/18 10/20/18
f 4/6/17 15/19/16 27/23/20
f 29/27/14 31/17/14 1/16/13
f 1/16/13 25/25/21 29/27/14
f 30/29/23 29/41/28 22/30/24
f 11/42/29 18/43/17 12/44/17
f 11/42/29 21/13/11 20/45/29
f 18/46/19 19/47/30 17/48/19
f 20/49/31 22/50/24 19/51/30
f 18/43/5 13/52/6 24/53/32
f 28/54/25 25/55/21 24/56/32
f 1/57/13 2/58/15 16/59/33
f 19/47/18 13/60/18 17/48/18
f 22/30/18 29/41/18 14/61/18
f 11/42/29 20/45/29 18/43/17
f 11/42/29 16/14/11 21/13/11
f 18/46/19 20/62/31 19/47/30
f 20/49/31 21/63/10 22/50/24
f 24/53/32 12/44/34 18/43/5
f 18/43/5 17/64/5 13/52/6
f 24/56/32 13/65/6 28/54/25
f 28/54/25 14/66/22 25/55/21
f 11/67/33 12/68/34 24/69/32
f 24/69/32 25/70/21 11/67/33
f 25/70/21 1/57/13 16/59/33
f 11/67/33 25/70/21 16/59/33
f 1/57/13 26/71/12 2/58/15
f 19/47/18 28/72/18 13/60/18
f 14/61/18 28/72/18 19/47/18
f 19/47/18 22/30/18 14/61/18
