# Blender v2.90.1 OBJ File: 'tiles.blend'
# www.blender.org
o cliff_1100-1100_Cube.008
v -0.000000 -1.000000 -0.100000
v 1.000000 -1.000000 -0.100000
v -1.000000 -1.000000 -0.100000
v -1.000000 1.000000 -0.100000
v 1.000000 -0.000000 -0.100000
v 0.000000 1.000000 -0.100000
v 0.000000 0.000000 -0.100000
v -1.000000 0.000000 -0.100000
v 1.000000 1.000000 -0.100000
v -0.000000 -1.000000 -1.000000
v 1.000000 -1.000000 -1.000000
v -1.000000 -1.000000 -1.000000
v -0.000000 -1.000000 -1.000000
v 1.000000 -0.000000 -1.000000
v 1.000000 1.000000 -1.000000
v -1.000000 1.000000 -1.000000
v -1.000000 0.000000 -1.000000
v 0.000000 -0.000000 -1.000000
v 0.000000 1.000000 -1.000000
vt 0.194027 0.912262
vt 0.194027 0.930493
vt 0.194027 0.930493
vt 0.194027 0.948724
vt 0.194027 0.930493
vt 0.194027 0.912262
vt 0.194027 0.948724
vt 0.194027 0.948724
vt 0.194027 0.930493
vt 0.194027 0.912262
vt 0.194027 0.930493
vt 0.194027 0.948724
vt 0.194027 0.948724
vt 0.194027 0.930493
vt 0.194027 0.948724
vt 0.194027 0.912262
vt 0.194027 0.930493
vt 0.194027 0.912262
vt 0.194027 0.912262
vn -0.0000 0.0000 1.0000
vn 0.5774 -0.5774 -0.5774
vn -0.7071 -0.0000 -0.7071
vn 0.0000 -0.0000 -1.0000
vn 0.5774 0.5774 -0.5774
vn 0.7071 -0.0000 -0.7071
vn 0.0000 0.7071 -0.7071
vn 0.7071 -0.7071 -0.0000
vn 1.0000 -0.0000 0.0000
vn 0.0000 1.0000 -0.0000
vn -0.5774 0.5774 -0.5774
vn -0.7071 0.7071 -0.0000
vn -1.0000 0.0000 -0.0000
vn -0.5774 -0.5774 -0.5774
vn -0.4707 -0.8823 -0.0000
vn 0.7071 0.7071 0.0000
vn 0.4707 -0.8823 0.0000
vn -0.7071 -0.7071 0.0000
s 1
f 8/1/1 1/2/1 7/3/1
f 7/3/1 9/4/1 6/5/1
f 8/1/1 6/5/1 4/6/1
f 7/3/1 2/7/1 5/8/1
f 13/9/2 17/10/3 18/11/4
f 18/11/4 15/12/5 14/13/6
f 17/10/3 19/14/7 18/11/4
f 11/15/2 18/11/4 14/13/6
f 2/7/8 14/13/6 5/8/9
f 6/5/10 16/16/11 4/6/12
f 16/16/11 8/1/13 4/6/12
f 18/11/4 1/2/13 7/3/1
f 10/17/14 2/7/8 1/2/15
f 15/12/5 6/5/10 9/4/16
f 1/2/9 18/11/4 7/3/1
f 12/18/14 1/2/17 3/19/18
f 8/1/13 12/18/14 3/19/18
f 14/13/6 9/4/16 5/8/9
f 8/1/1 3/19/1 1/2/1
f 7/3/1 5/8/1 9/4/1
f 8/1/1 7/3/1 6/5/1
f 7/3/1 1/2/1 2/7/1
f 13/9/2 12/18/14 17/10/3
f 18/11/4 19/14/7 15/12/5
f 17/10/3 16/16/11 19/14/7
f 11/15/2 10/17/14 18/11/4
f 2/7/8 11/15/2 14/13/6
f 6/5/10 19/14/7 16/16/11
f 16/16/11 17/10/3 8/1/13
f 18/11/4 10/17/14 1/2/15
f 10/17/14 11/15/2 2/7/8
f 15/12/5 19/14/7 6/5/10
f 1/2/17 13/9/2 18/11/4
f 12/18/14 13/9/2 1/2/17
f 8/1/13 17/10/3 12/18/14
f 14/13/6 15/12/5 9/4/16
