# Blender v2.90.1 OBJ File: 'tiles.blend'
# www.blender.org
o cliff_1110-1100_Cube.024
v 0.995059 -1.000000 -1.000000
v 0.995059 -1.000000 -0.100000
v -1.004941 -1.000000 -0.100000
v -0.054941 -1.000000 -0.100000
v -1.004941 1.000000 -0.100000
v 0.995059 -0.000000 -0.100000
v -0.004941 1.000000 -0.100000
v -0.004941 0.000000 -0.100000
v -1.004941 0.000000 -0.100000
v 0.995059 1.000000 -0.100000
v 0.065059 -1.000000 -0.070000
v 0.095058 -1.000000 1.000000
v 0.995059 -0.000000 1.000000
v 0.995059 -0.000000 -1.000000
v -0.004941 0.000000 -1.000000
v 0.095059 -0.500000 1.000000
v 0.065059 -0.500000 -0.070000
v 0.095059 -1.000000 0.050000
v -0.054941 -0.500000 -0.100000
v 0.095059 -0.500000 0.050000
v 0.195059 -0.000000 1.000000
v 0.095059 -0.100000 1.000000
v 0.147521 0.000000 -0.100000
v 0.065059 -0.100000 -0.070000
v -1.004941 -0.100000 -0.100000
v 0.095059 -0.100000 0.050000
v 0.195059 0.000000 0.037689
v -0.054941 -0.100000 -0.100000
v 0.995059 -1.000000 1.000000
v -1.004941 -1.000000 -1.000000
v -0.004941 -1.000000 -1.000000
v -1.004941 1.000000 -1.000000
v -0.004941 1.000000 -1.000000
v -1.004941 0.000000 -1.000000
v 0.995059 1.000000 -1.000000
vt 0.196764 0.923736
vt 0.195063 0.921979
vt 0.194974 0.923741
vt 0.194974 0.925503
vt 0.194701 0.923742
vt 0.196764 0.925498
vt 0.398541 0.784156
vt 0.598541 0.568714
vt 0.398541 0.568714
vt 0.958206 0.588665
vt 0.778541 0.392443
vt 0.778541 0.588665
vt 0.800000 0.000000
vt 0.610000 0.176599
vt 0.800000 0.176599
vt 0.778541 0.588665
vt 0.598541 0.392443
vt 0.598541 0.588665
vt 0.778541 0.784887
vt 0.598541 0.981108
vt 0.778541 0.981108
vt 0.598541 0.392443
vt 0.778541 0.784886
vt 0.598541 0.784886
vt 0.778541 0.784886
vt 0.196764 0.921974
vt 0.193184 0.923746
vt 0.193184 0.925507
vt 0.598541 0.784156
vt 0.958206 0.392443
vt 0.600000 0.000000
vt 0.778541 0.392443
vt 0.598541 0.784886
vt 0.398541 0.392443
vt 0.958206 0.784886
vt 0.194844 0.923563
vt 0.195063 0.923564
vt 0.188679 0.928774
vt 0.189578 0.928989
vt 0.189578 0.928774
vt 0.187961 0.928774
vt 0.188679 0.927103
vt 0.187961 0.927103
vt 0.195063 0.922860
vt 0.194844 0.921978
vt 0.194844 0.922859
vt 0.189578 0.927103
vt 0.188679 0.928989
vt 0.085894 0.922912
vt 0.085448 0.923553
vt 0.085894 0.923526
vt 0.072936 0.945197
vt 0.072490 0.941043
vt 0.072490 0.945197
vt 0.072936 0.940989
vt 0.076501 0.945197
vt 0.798468 0.785304
vt 0.778541 0.804969
vt 0.778541 0.883419
vt 0.586000 0.182486
vt 0.400000 0.000000
vt 0.580000 0.206033
vt 0.400000 0.176599
vt 0.400000 0.392443
vt 0.200000 0.000000
vt 0.000000 0.196222
vt 0.200000 0.392443
vt 0.187961 0.928989
vt 0.085448 0.923021
vt 0.076501 0.940387
vt 0.072724 0.940387
vt 0.778541 0.981482
vt 0.957884 0.981013
vt 0.957884 0.784886
vt 0.580000 0.392443
vt 0.400000 0.392443
vt 0.400000 0.196222
vt 0.400000 0.000000
vt 0.000000 0.000000
vt 0.000000 0.392443
vn -0.0000 -0.0000 1.0000
vn -0.0000 -0.0013 1.0000
vn -0.0394 0.0619 0.9973
vn -0.4976 0.3770 0.7812
vn -1.0000 0.0000 0.0000
vn -0.7071 0.0000 -0.7071
vn -0.7071 -0.0004 -0.7071
vn -0.7071 -0.7071 0.0000
vn -0.5774 -0.5774 -0.5774
vn 0.0013 -1.0000 0.0001
vn 0.0000 0.7071 -0.7071
vn -0.7071 0.7071 -0.0000
vn 0.0000 1.0000 0.0000
vn 1.0000 0.0000 0.0000
vn 0.5774 0.5774 -0.5774
vn 0.7071 0.7071 0.0000
vn -0.0000 -0.7071 -0.7071
vn -0.5774 0.5774 -0.5774
vn 0.1625 -0.0000 -0.9867
vn -0.7071 -0.0003 -0.7071
vn -0.5109 0.2672 0.8171
vn -0.1285 0.0951 0.9871
vn -0.9925 0.0000 0.1222
vn -0.7071 -0.0000 0.7071
vn -0.9137 0.3874 0.1225
vn -0.1222 0.0000 0.9925
vn -0.6954 0.7095 0.1146
vn -0.0000 -1.0000 0.0000
vn 0.0007 -0.2588 -0.9659
vn 0.0004 -0.7071 -0.7071
vn -0.0000 -0.7071 0.7071
vn -0.2636 0.9613 0.0806
s 1
f 9/1/1 4/2/2 8/3/3
f 7/4/1 8/3/3 23/5/4
f 9/1/1 7/4/1 5/6/1
f 29/7/5 6/8/6 2/9/7
f 34/10/6 3/11/8 9/12/5
f 30/13/9 4/14/10 3/15/8
f 33/16/11 5/17/12 7/18/13
f 6/19/14 35/20/15 10/21/16
f 14/22/6 2/9/7 6/8/6
f 35/23/15 7/18/13 10/24/16
f 5/25/12 34/10/6 9/12/5
f 9/1/1 3/26/1 4/2/2
f 6/27/1 10/28/1 23/5/4
f 10/28/1 7/4/1 23/5/4
f 9/1/1 8/3/3 7/4/1
f 29/7/5 13/29/5 6/8/6
f 34/10/6 30/30/9 3/11/8
f 30/13/9 31/31/17 4/14/10
f 33/16/11 32/32/18 5/17/12
f 6/19/14 14/33/19 35/20/15
f 14/22/6 1/34/20 2/9/7
f 35/23/15 33/16/11 7/18/13
f 5/25/12 32/35/18 34/10/6
f 24/36/21 8/3/3 28/37/22
f 20/38/23 11/39/24 18/40/23
f 26/41/25 16/42/5 22/43/5
f 19/44/26 11/45/24 17/46/24
f 20/38/23 12/47/5 16/42/5
f 26/41/25 17/48/24 20/38/23
f 28/37/22 17/46/24 24/36/21
f 23/49/4 26/50/25 27/51/27
f 21/52/12 26/53/25 22/54/12
f 27/55/13 21/52/13 13/56/13
f 21/57/1 22/58/1 16/59/1
f 11/60/28 31/31/17 1/61/29
f 18/62/28 2/63/30 29/64/31
f 34/65/6 33/66/11 14/67/19
f 24/36/21 23/5/4 8/3/3
f 20/38/23 17/48/24 11/39/24
f 26/41/25 20/38/23 16/42/5
f 19/44/26 4/2/26 11/45/24
f 20/38/23 18/40/23 12/47/5
f 26/41/25 24/68/21 17/48/24
f 28/37/22 19/44/26 17/46/24
f 23/49/4 24/69/21 26/50/25
f 21/52/12 27/55/27 26/53/25
f 13/56/13 6/70/13 27/55/13
f 6/70/13 23/71/32 27/55/13
f 16/59/1 12/72/31 29/73/31
f 29/73/31 13/74/1 16/59/1
f 13/74/1 21/57/1 16/59/1
f 1/61/29 2/63/30 11/60/28
f 11/60/28 4/14/10 31/31/17
f 29/64/31 12/75/31 18/62/28
f 18/62/28 11/60/28 2/63/30
f 14/67/19 1/76/29 31/77/17
f 31/77/17 30/78/9 34/65/6
f 34/65/6 32/79/18 33/66/11
f 33/66/11 35/80/15 14/67/19
f 14/67/19 31/77/17 34/65/6
l 25 28
