# Blender v2.90.1 OBJ File: 'tiles.blend'
# www.blender.org
o cliff_0000-1100_Cube.034
v -0.000000 1.000000 -0.100000
v 1.000000 1.000000 -0.100000
v 0.000000 0.000000 -1.000000
v 1.000000 0.000000 -1.000000
v -1.000000 0.000000 -1.000000
v -1.000000 1.000000 -0.100000
v -0.000000 1.000000 -0.100000
v 1.000000 0.000000 -0.200000
v 1.000000 0.100000 -0.100000
v 0.000000 0.000000 -0.200000
v 0.000000 0.100000 -0.100000
v -1.000000 0.100000 -0.100000
v -1.000000 -0.000000 -0.200000
vt 0.167293 0.932788
vt 0.167293 0.951019
vt 0.183499 0.951019
vt 0.183499 0.932788
vt 0.167293 0.914557
vt 0.183499 0.914557
vt 0.187827 0.933594
vt 0.187827 0.933594
vt 0.187827 0.915363
vt 0.187826 0.915363
vt 0.183951 0.948724
vt 0.183951 0.948724
vt 0.183951 0.930493
vt 0.183951 0.930493
vt 0.185524 0.932788
vt 0.185524 0.914557
vt 0.187827 0.951825
vt 0.187827 0.951825
vt 0.187827 0.933594
vn 0.0000 -1.0000 -0.0000
vn -0.0000 -0.0000 1.0000
vn 0.0000 -0.7071 0.7071
s 1
f 3/1/1 4/2/1 8/3/1 10/4/1
f 5/5/1 3/1/1 10/4/1 13/6/1
f 11/7/2 7/8/2 6/9/2 12/10/2
f 8/11/3 9/12/3 11/13/3 10/14/3
f 10/4/3 11/15/3 12/16/3 13/6/3
f 9/17/2 2/18/2 1/19/2 11/7/2
