# Blender v2.90.1 OBJ File: 'tiles.blend'
# www.blender.org
o cliff_1000-1000_Cube.006
v -0.200000 -1.000000 -0.200000
v -0.100000 -1.000000 -1.000000
v -1.000000 -1.000000 -0.100000
v -0.200000 -1.000000 -0.200000
v -0.100000 -0.000000 -1.000000
v -0.200000 -0.000000 -0.200000
v -1.000000 0.000000 -0.100000
v -0.100000 -1.000000 -0.450000
v -0.450000 -1.000000 -0.100000
v -0.100000 -0.000000 -0.450000
v -0.450000 0.000000 -0.100000
v -0.100000 -0.500000 -1.000000
v -0.200000 -0.500000 -0.200000
v -0.200000 -0.500000 -0.200000
v -1.000000 -0.500000 -0.100000
v -0.100000 -0.500000 -0.450000
v -0.450000 -0.500000 -0.100000
v -0.100000 0.500000 -1.000000
v -0.200000 0.500000 -0.200000
v -1.000000 0.500000 -0.100000
v -0.100000 0.500000 -0.450000
v -0.450000 0.500000 -0.100000
v -0.100000 1.000000 -1.000000
v -0.200000 1.000000 -0.200000
v -1.000000 1.000000 -0.100000
v -0.100000 1.000000 -0.450000
v -0.450000 1.000000 -0.100000
vt 0.191247 0.930664
vt 0.191247 0.917152
vt 0.191247 0.917152
vt 0.191247 0.930664
vt 0.177734 0.944176
vt 0.191247 0.944176
vt 0.191247 0.944176
vt 0.177734 0.944176
vt 0.164222 0.944176
vt 0.164222 0.944176
vt 0.164222 0.944176
vt 0.177734 0.944176
vt 0.191247 0.944176
vt 0.191247 0.944176
vt 0.191247 0.944176
vt 0.191247 0.930664
vt 0.191247 0.917152
vt 0.191247 0.944176
vt 0.191247 0.930664
vt 0.177734 0.944176
vt 0.164222 0.944176
vt 0.191247 0.917152
vt 0.191247 0.930664
vt 0.191247 0.917152
vt 0.191247 0.944176
vt 0.177734 0.944176
vt 0.164222 0.944176
vn 0.1891 -0.0000 0.9820
vn -0.0000 0.0000 1.0000
vn 0.9820 -0.0000 0.1891
vn 0.9285 -0.0000 0.3714
vn 1.0000 -0.0000 0.0000
vn 0.3714 -0.0000 0.9285
vn 0.7071 0.0000 0.7071
s 1
f 17/1/1 15/2/2 3/3/2 9/4/1
f 16/5/3 13/6/4 1/7/4 8/8/3
f 12/9/5 16/5/3 8/8/3 2/10/5
f 5/11/5 10/12/3 16/5/3 12/9/5
f 10/12/3 6/13/4 13/6/4 16/5/3
f 14/14/6 17/1/1 9/4/1 4/15/6
f 6/13/6 11/16/1 17/1/1 14/14/6
f 11/16/1 7/17/2 15/2/2 17/1/1
f 11/16/1 6/13/7 19/18/7 22/19/1
f 6/13/7 10/12/3 21/20/3 19/18/7
f 10/12/3 5/11/5 18/21/5 21/20/3
f 7/17/2 11/16/1 22/19/1 20/22/2
f 20/22/2 22/19/1 27/23/1 25/24/2
f 22/19/1 19/18/7 24/25/7 27/23/1
f 19/18/7 21/20/3 26/26/3 24/25/7
f 21/20/3 18/21/5 23/27/5 26/26/3
