# Blender v2.90.1 OBJ File: 'tiles.blend'
# www.blender.org
o cliff_0000-1110_Cube.032
v 0.070000 1.000000 -0.070000
v 0.100000 1.000000 1.000000
v 1.000000 0.000000 0.000000
v 1.000000 -0.000000 1.000000
v 1.000000 0.000000 -1.000000
v 0.000000 0.000000 -1.000000
v -1.000000 0.000000 -1.000000
v -1.000000 1.000000 -0.100000
v 0.100000 0.500000 1.000000
v 0.070000 0.500000 -0.070000
v 0.100000 1.000000 0.050000
v -1.000000 0.500000 -0.100000
v -0.050000 1.000000 -0.100000
v -0.050000 0.500000 -0.100000
v 0.100000 0.500000 0.050000
v 0.200000 -0.000000 1.000000
v 0.100000 0.100000 1.000000
v 0.152462 0.000000 -0.152462
v 0.070000 0.100000 -0.070000
v -1.000000 0.100000 -0.100000
v -1.000000 -0.000000 -0.200000
v 0.100000 0.100000 0.050000
v 0.200000 -0.000000 0.037689
v -0.050000 0.100000 -0.100000
v -0.037689 -0.000000 -0.200000
vt 0.181606 0.948856
vt 0.181606 0.948856
vt 0.181606 0.940996
vt 0.181606 0.940996
vt 0.181606 0.956717
vt 0.181606 0.956717
vt 0.181606 0.948856
vt 0.193658 0.916779
vt 0.191470 0.931021
vt 0.197201 0.930493
vt 0.209379 0.930753
vt 0.209379 0.916779
vt 0.189466 0.940996
vt 0.189466 0.940996
vt 0.197327 0.940996
vt 0.197327 0.940996
vt 0.189466 0.940996
vt 0.197327 0.940996
vt 0.177937 0.916779
vt 0.177937 0.932500
vt 0.192179 0.931021
vt 0.181606 0.956717
vt 0.181606 0.940996
vt 0.187031 0.929479
vt 0.187031 0.929479
vt 0.187031 0.921618
vt 0.187031 0.921618
vt 0.194892 0.921618
vt 0.194892 0.921618
vt 0.202753 0.921618
vt 0.202753 0.921618
vt 0.187031 0.937339
vt 0.187031 0.937339
vt 0.177937 0.948222
vt 0.191911 0.948222
vt 0.191650 0.936043
vt 0.192179 0.930312
vn -0.9925 -0.0000 0.1222
vn -0.9701 -0.0000 0.2425
vn -1.0000 -0.0000 -0.0000
vn 0.0000 -1.0000 -0.0000
vn -0.1222 -0.0000 0.9925
vn -0.0000 -0.0000 1.0000
vn -0.2425 -0.0000 0.9701
vn -0.6992 -0.7098 0.0861
vn -0.4603 -0.7591 0.4603
vn -0.0861 -0.7098 0.6992
vn -0.0000 -0.7071 0.7071
vn -0.7071 -0.7071 -0.0000
s 1
f 15/1/1 11/2/1 1/3/2 10/4/2
f 17/5/3 9/6/3 15/1/1 22/7/1
f 6/8/4 18/9/4 25/10/4 21/11/4 7/12/4
f 24/13/5 14/14/5 12/15/6 20/16/6
f 14/14/5 13/17/5 8/18/6 12/15/6
f 10/4/7 1/3/7 13/17/5 14/14/5
f 5/19/4 3/20/4 18/21/4 6/8/4
f 9/6/3 2/22/3 11/2/1 15/1/1
f 22/7/1 15/1/1 10/4/2 19/23/2
f 19/23/7 10/4/7 14/14/5 24/13/5
f 23/24/8 22/25/8 19/26/9 18/27/9
f 25/28/10 24/29/10 20/30/11 21/31/11
f 16/32/12 17/33/12 22/25/8 23/24/8
f 18/27/9 19/26/9 24/29/10 25/28/10
f 3/20/4 4/34/4 16/35/4 23/36/4 18/37/4
