# Blender v2.90.1 OBJ File: 'tiles.blend'
# www.blender.org
o cliff_1000-1000_Cube.006
v -0.200000 -1.000000 -0.200000
v -0.100000 -1.000000 -1.000000
v -1.000000 -1.000000 -0.100000
v -0.100000 -1.000000 -0.450000
v -0.450000 -1.000000 -0.100000
v -0.100000 1.000000 -1.000000
v -0.200000 1.000000 -0.200000
v -1.000000 1.000000 -0.100000
v -0.100000 1.000000 -0.450000
v -0.450000 1.000000 -0.100000
v -1.000000 1.000000 -1.000000
v -1.000000 -1.000000 -1.000000
v -0.450000 0.000000 -0.100000
v -1.000000 0.000000 -0.100000
v -0.200000 0.000000 -0.200000
v -0.100000 -0.000000 -0.450000
v -0.100000 -0.000000 -1.000000
vt 0.177734 0.944176
vt 0.191247 0.944176
vt 0.191247 0.944176
vt 0.191247 0.930664
vt 0.191247 0.917152
vt 0.164321 0.923917
vt 0.164321 0.923917
vt 0.191247 0.930664
vt 0.177734 0.944176
vt 0.191247 0.917152
vt 0.164222 0.944176
vt 0.164222 0.944176
vt 0.164222 0.944176
vt 0.191247 0.930664
vt 0.191247 0.917152
vt 0.191247 0.944176
vt 0.177734 0.944176
vn 0.9820 -0.0000 0.1891
vn 0.7071 -0.0000 0.7071
vn -0.0000 -1.0000 0.0000
vn -0.7071 -0.7071 -0.0000
vn -0.5774 -0.5774 -0.5774
vn -0.5774 0.5774 -0.5774
vn 0.0000 1.0000 0.0000
vn -1.0000 -0.0000 -0.0000
vn 1.0000 -0.0000 -0.0000
vn 0.0000 0.7071 -0.7071
vn 0.0000 -0.0000 -1.0000
vn 0.1891 -0.0000 0.9820
vn -0.0000 0.0000 1.0000
vn 0.0000 -0.7071 -0.7071
vn -0.7071 0.7071 0.0000
s 1
f 16/1/1 7/2/2 15/3/2
f 5/4/3 3/5/4 12/6/5
f 11/7/6 10/8/7 9/9/7
f 14/10/8 11/7/6 12/6/5
f 16/1/1 2/11/9 17/12/9
f 11/7/6 6/13/10 17/12/11
f 7/2/2 13/14/12 15/3/2
f 13/14/12 3/5/13 5/4/12
f 8/15/13 13/14/12 10/8/12
f 15/3/2 5/4/12 1/16/2
f 9/9/1 17/12/9 6/13/9
f 4/17/1 15/3/2 1/16/2
f 16/1/1 9/9/1 7/2/2
f 2/11/14 4/17/3 12/6/5
f 4/17/3 1/16/3 5/4/3
f 12/6/5 4/17/3 5/4/3
f 7/2/7 9/9/7 10/8/7
f 9/9/7 6/13/10 11/7/6
f 11/7/6 8/15/15 10/8/7
f 12/6/5 3/5/4 14/10/8
f 14/10/8 8/15/15 11/7/6
f 16/1/1 4/17/1 2/11/9
f 2/11/14 12/6/5 17/12/11
f 12/6/5 11/7/6 17/12/11
f 7/2/2 10/8/12 13/14/12
f 13/14/12 14/10/13 3/5/13
f 8/15/13 14/10/13 13/14/12
f 15/3/2 13/14/12 5/4/12
f 9/9/1 16/1/1 17/12/9
f 4/17/1 16/1/1 15/3/2
