# Blender v2.90.1 OBJ File: 'tiles.blend'
# www.blender.org
o cliff_1110-1000_Cube.027
v -0.200000 -1.000000 -0.200000
v -0.100000 -1.000000 -1.000000
v -1.000000 -1.000000 -0.100000
v -0.200000 -1.000000 -0.200000
v -0.100000 -0.000000 -1.000000
v -0.200000 -0.000000 -0.200000
v -1.000000 0.000000 -0.100000
v -0.100000 -1.000000 -0.450000
v -0.450000 -1.000000 -0.100000
v -0.100000 0.000000 -0.450000
v -0.450000 0.000000 -0.100000
v -0.100000 -0.500000 -1.000000
v -0.200000 -0.500000 -0.200000
v -0.200000 -0.500000 -0.200000
v -1.000000 -0.500000 -0.100000
v -0.100000 -0.500000 -0.450000
v -0.450000 -0.500000 -0.100000
v -0.100000 0.500000 -1.000000
v -0.200000 0.500000 -0.200000
v -1.000000 0.500000 -0.100000
v -0.100000 0.500000 -0.450000
v -0.450000 0.500000 -0.100000
v -0.100000 1.000000 -1.000000
v -0.200000 1.000000 -0.200000
v -1.000000 1.000000 -0.100000
v -0.100000 1.000000 -0.450000
v -0.450000 1.000000 -0.100000
v 0.070000 -1.000000 -0.070000
v 0.100000 -1.000000 1.000000
v 1.000000 -0.000000 0.000000
v 1.000000 -0.000000 1.000000
v 1.000000 -0.000000 -1.000000
v 0.000000 0.000000 -1.000000
v -1.000000 0.000000 -1.000000
v 0.100000 -0.500000 1.000000
v 0.070000 -0.500000 -0.070000
v 0.100000 -1.000000 0.050000
v -0.050000 -1.000000 -0.100000
v -0.050000 -0.500000 -0.100000
v 0.100000 -0.500000 0.050000
v 0.200000 0.000000 1.000000
v 0.100000 -0.100000 1.000000
v 0.152462 0.000000 -0.152462
v 0.070000 -0.100000 -0.070000
v -1.000000 -0.100000 -0.100000
v -1.000000 0.000000 -0.200000
v 0.100000 -0.100000 0.050000
v 0.200000 0.000000 0.037689
v -0.050000 -0.100000 -0.100000
v -0.037689 0.000000 -0.200000
v -0.525000 -1.000000 -0.100000
v -0.525000 -0.500000 -0.100000
v -0.525000 -0.100000 -0.100000
vt 0.191247 0.930664
vt 0.191247 0.917152
vt 0.191247 0.917152
vt 0.191247 0.930664
vt 0.177734 0.944176
vt 0.191247 0.944176
vt 0.191247 0.944176
vt 0.177734 0.944176
vt 0.164222 0.944176
vt 0.164222 0.944176
vt 0.164222 0.944176
vt 0.177734 0.944176
vt 0.191247 0.944176
vt 0.191247 0.944176
vt 0.191247 0.944176
vt 0.191247 0.930664
vt 0.191247 0.917152
vt 0.191247 0.944176
vt 0.191247 0.930664
vt 0.177734 0.944176
vt 0.164222 0.944176
vt 0.191247 0.917152
vt 0.191247 0.930664
vt 0.191247 0.917152
vt 0.191247 0.944176
vt 0.177734 0.944176
vt 0.164222 0.944176
vt 0.181606 0.948856
vt 0.181606 0.940996
vt 0.181606 0.940996
vt 0.181606 0.948856
vt 0.181606 0.956717
vt 0.181606 0.948856
vt 0.181606 0.956717
vt 0.063442 0.929181
vt 0.079163 0.929181
vt 0.079163 0.943155
vt 0.066984 0.942894
vt 0.061254 0.943423
vt 0.189466 0.940996
vt 0.189466 0.940996
vt 0.047720 0.929181
vt 0.061962 0.943423
vt 0.047720 0.944902
vt 0.181606 0.956717
vt 0.181606 0.940996
vt 0.189466 0.940996
vt 0.056815 0.941880
vt 0.056815 0.934020
vt 0.056815 0.934020
vt 0.056815 0.941880
vt 0.064676 0.934020
vt 0.072536 0.934020
vt 0.072536 0.934020
vt 0.068606 0.934020
vt 0.064676 0.934020
vt 0.056815 0.949741
vt 0.056815 0.949741
vt 0.061962 0.942714
vt 0.061434 0.948444
vt 0.061695 0.960623
vt 0.047720 0.960623
vt 0.193397 0.940996
vt 0.193397 0.940996
vt 0.193397 0.940996
vn 0.1891 -0.0000 0.9820
vn -0.0000 0.0000 1.0000
vn 0.9820 -0.0000 0.1891
vn 0.9285 -0.0000 0.3714
vn 1.0000 -0.0000 0.0000
vn 0.3714 -0.0000 0.9285
vn 0.7071 0.0000 0.7071
vn -0.9925 0.0000 0.1222
vn -0.9701 0.0000 0.2425
vn -1.0000 0.0000 -0.0000
vn 0.0000 1.0000 -0.0000
vn -0.2425 0.0000 0.9701
vn -0.1222 0.0000 0.9925
vn -0.6992 0.7098 0.0861
vn -0.4603 0.7591 0.4603
vn -0.0861 0.7098 0.6992
vn -0.0000 0.7071 0.7071
vn -0.7071 0.7071 -0.0000
s 1
f 17/1/1 15/2/2 3/3/2 9/4/1
f 16/5/3 13/6/4 1/7/4 8/8/3
f 12/9/5 16/5/3 8/8/3 2/10/5
f 5/11/5 10/12/3 16/5/3 12/9/5
f 10/12/3 6/13/4 13/6/4 16/5/3
f 14/14/6 17/1/1 9/4/1 4/15/6
f 6/13/6 11/16/1 17/1/1 14/14/6
f 11/16/1 7/17/2 15/2/2 17/1/1
f 11/16/1 6/13/7 19/18/7 22/19/1
f 6/13/7 10/12/3 21/20/3 19/18/7
f 10/12/3 5/11/5 18/21/5 21/20/3
f 7/17/2 11/16/1 22/19/1 20/22/2
f 20/22/2 22/19/1 27/23/1 25/24/2
f 22/19/1 19/18/7 24/25/7 27/23/1
f 19/18/7 21/20/3 26/26/3 24/25/7
f 21/20/3 18/21/5 23/27/5 26/26/3
f 40/28/8 36/29/9 28/30/9 37/31/8
f 42/32/10 47/33/8 40/28/8 35/34/10
f 33/35/11 34/36/11 46/37/11 50/38/11 43/39/11
f 36/29/12 39/40/13 38/41/13 28/30/12
f 32/42/11 33/35/11 43/43/11 30/44/11
f 35/34/10 40/28/8 37/31/8 29/45/10
f 47/33/8 44/46/9 36/29/9 40/28/8
f 44/46/12 49/47/13 39/40/13 36/29/12
f 48/48/14 43/49/15 44/50/15 47/51/14
f 50/52/16 46/53/17 45/54/17 53/55/17 49/56/16
f 41/57/18 48/48/14 47/51/14 42/58/18
f 43/49/15 50/52/16 49/56/16 44/50/15
f 30/44/11 43/59/11 48/60/11 41/61/11 31/62/11
f 39/40/13 52/63/2 51/64/2 38/41/13
f 49/47/13 53/65/2 52/63/2 39/40/13
