# Blender v2.90.1 OBJ File: 'tiles.blend'
# www.blender.org
o cliff_1101-1100_Cube.026
v 0.000000 -1.000000 -0.100000
v -1.000000 -1.000000 -0.100000
v 1.000000 -1.000000 -0.100000
v 0.000000 -1.000000 -0.100000
v 1.000000 1.000000 -0.100000
v -1.000000 -0.000000 -0.100000
v 0.000000 1.000000 -0.100000
v 0.000000 0.000000 -0.100000
v 1.000000 0.000000 -0.100000
v -1.000000 1.000000 -0.100000
v -0.070000 -1.000000 -0.070000
v -0.100000 -1.000000 1.000000
v -1.000000 -0.000000 1.000000
v -1.000000 -0.000000 -1.000000
v -0.000000 0.000000 -1.000000
v 1.000000 0.000000 -1.000000
v -0.100000 -0.500000 1.000000
v -0.070000 -0.500000 -0.070000
v -0.100000 -1.000000 0.050000
v 0.050000 -1.000000 -0.100000
v 0.050000 -0.500000 -0.100000
v -0.100000 -0.500000 0.050000
v -0.200000 0.000000 1.000000
v -0.100000 -0.100000 1.000000
v -0.152462 0.000000 -0.152462
v -0.070000 -0.100000 -0.070000
v 1.000000 -0.100000 -0.100000
v 1.000000 0.000000 -0.200000
v -0.100000 -0.100000 0.050000
v -0.200000 0.000000 0.037689
v 0.050000 -0.100000 -0.100000
v 0.037689 0.000000 -0.200000
vt 0.187827 0.933594
vt 0.187827 0.933594
vt 0.187827 0.915363
vt 0.187826 0.915363
vt 0.187827 0.933594
vt 0.187827 0.951825
vt 0.187827 0.951825
vt 0.187826 0.915363
vt 0.187827 0.951825
vt 0.187827 0.933594
vt 0.181606 0.948856
vt 0.181606 0.948856
vt 0.181606 0.940996
vt 0.181606 0.940996
vt 0.181606 0.956717
vt 0.181606 0.956717
vt 0.181606 0.948856
vt 0.189466 0.940996
vt 0.189466 0.940996
vt 0.181606 0.956717
vt 0.181606 0.940996
vt 0.189466 0.940996
vt 0.056815 0.941880
vt 0.056815 0.941880
vt 0.056815 0.934020
vt 0.056815 0.934020
vt 0.064676 0.934020
vt 0.064676 0.934020
vt 0.072536 0.934020
vt 0.072536 0.934020
vt 0.056815 0.949741
vt 0.056815 0.949741
vt 0.047720 0.944902
vt 0.047720 0.960623
vt 0.061695 0.960623
vt 0.061434 0.948444
vt 0.061962 0.942714
vn 0.0000 0.0000 1.0000
vn 0.9925 0.0000 0.1222
vn 0.9701 0.0000 0.2425
vn 1.0000 0.0000 -0.0000
vn 0.2425 0.0000 0.9701
vn 0.3592 0.0000 0.9332
vn 0.6992 0.7098 0.0861
vn 0.4603 0.7591 0.4603
vn 0.0861 0.7098 0.6992
vn 0.0000 0.7071 0.7071
vn 0.7071 0.7071 -0.0000
vn -0.0000 1.0000 -0.0000
s 1
f 8/1/1 4/2/1 3/3/1 9/4/1
f 8/1/1 7/5/1 10/6/1 6/7/1
f 9/4/1 5/8/1 7/5/1 8/1/1
f 6/7/1 2/9/1 1/10/1 8/1/1
f 22/11/2 19/12/2 11/13/3 18/14/3
f 24/15/4 17/16/4 22/11/2 29/17/2
f 18/14/5 11/13/5 20/18/6 21/19/6
f 17/16/4 12/20/4 19/12/2 22/11/2
f 29/17/2 22/11/2 18/14/3 26/21/3
f 26/21/5 18/14/5 21/19/6 31/22/6
f 30/23/7 29/24/7 26/25/8 25/26/8
f 32/27/9 31/28/9 27/29/10 28/30/10
f 23/31/11 24/32/11 29/24/7 30/23/7
f 25/26/8 26/25/8 31/28/9 32/27/9
f 6/33/12 13/34/12 23/35/12 30/36/12 25/37/12
