# Blender v2.90.1 OBJ File: 'tiles.blend'
# www.blender.org
o cliff_1111-1110_Cube.020
v -1.000000 -0.000000 -0.004285
v 0.100000 0.091430 1.000000
v 0.005714 0.000000 1.000000
v 0.100000 1.000000 1.000000
v 0.100000 0.500000 1.000000
v -1.000000 -0.000000 1.000000
v -1.000000 0.500000 -0.100000
v -1.000000 1.000000 -0.100000
v -1.000000 0.091430 -0.100000
v 0.100000 0.500000 0.031731
v -0.032135 0.500000 -0.100000
v 0.100000 1.000000 0.031476
v -0.031865 1.000000 -0.100000
v -0.131083 0.000000 -0.005523
v 0.003235 0.000000 0.127402
v -0.032968 0.091430 -0.100000
v 0.100000 0.091430 0.032516
v -1.000000 1.000000 -1.000000
v 1.000000 1.000000 -1.000000
v 1.000000 1.000000 1.000000
v -1.000000 -1.000000 -1.000000
v 1.000000 -1.000000 -1.000000
v 1.000000 -1.000000 1.000000
v -1.000000 -1.000000 1.000000
vt 0.173622 0.930118
vt 0.173622 0.930118
vt 0.173622 0.930118
vt 0.068209 0.936319
vt 0.068209 0.936319
vt 0.068209 0.936319
vt 0.173622 0.930118
vt 0.173622 0.930118
vt 0.071309 0.942519
vt 0.071309 0.942519
vt 0.071309 0.942519
vt 0.173622 0.930118
vt 0.071309 0.942519
vt 0.173622 0.930118
vt 0.000000 0.000000
vt 0.000000 0.000000
vt 0.000000 0.000000
vt 0.000000 0.000000
vt 0.000000 0.000000
vt 0.068209 0.936319
vt 0.000000 0.000000
vt 0.000000 0.000000
vt 0.173622 0.930118
vt 0.173622 0.930118
vt 0.173622 0.930118
vt 0.068209 0.936319
vt 0.071309 0.942519
vt 0.071309 0.942519
vt 0.173622 0.930118
vt 0.173622 0.930118
vt 0.071309 0.942519
vt 0.071309 0.942519
vn -1.0000 -0.0000 0.0000
vn -0.0000 1.0000 0.0000
vn -0.6868 0.7269 0.0000
vn -0.7061 0.0004 0.7082
vn -0.3948 0.8290 0.3962
vn -0.7060 0.0014 0.7082
vn 1.0000 0.0000 0.0000
vn 0.0000 0.0000 -1.0000
vn -0.0000 0.0000 1.0000
vn 0.0000 -1.0000 -0.0000
vn -0.6961 0.7179 0.0020
vn -0.7060 0.0004 0.7082
vn -0.3921 0.8302 0.3962
vn -0.7059 0.0014 0.7083
vn 0.0010 0.7231 0.6907
vn 0.0000 0.7186 0.6954
s off
f 17/1/1 5/2/1 10/3/1
f 6/4/2 15/5/2 14/6/2
f 10/3/1 4/7/1 12/8/1
f 15/9/3 2/10/3 17/11/3
f 13/12/4 10/3/4 12/8/4
f 16/13/5 15/9/5 17/11/5
f 11/14/6 17/1/6 10/3/6
f 20/15/7 22/16/7 19/17/7
f 19/17/8 21/18/8 18/19/8
f 12/8/2 19/17/2 13/12/2
f 3/20/9 24/21/9 23/22/9
f 22/16/10 24/21/10 21/18/10
f 7/23/1 18/19/1 9/24/1
f 17/1/1 2/25/1 5/2/1
f 14/6/2 1/26/2 6/4/2
f 6/4/2 3/20/2 15/5/2
f 10/3/1 5/2/1 4/7/1
f 15/9/11 3/27/11 2/10/11
f 13/12/12 11/14/12 10/3/12
f 16/13/13 14/28/13 15/9/13
f 11/14/14 16/29/14 17/1/14
f 20/15/7 23/22/7 22/16/7
f 19/17/8 22/16/8 21/18/8
f 12/8/2 4/7/2 20/15/2
f 19/17/2 18/19/2 13/12/2
f 18/19/2 8/30/2 13/12/2
f 12/8/2 20/15/2 19/17/2
f 3/20/9 6/4/9 24/21/9
f 23/22/9 20/15/9 2/25/9
f 20/15/9 4/7/9 5/2/9
f 2/25/9 20/15/9 5/2/9
f 2/25/9 3/20/9 23/22/9
f 22/16/10 23/22/10 24/21/10
f 24/21/1 6/4/1 1/31/1
f 24/21/1 1/31/1 21/18/1
f 1/31/1 9/24/1 21/18/1
f 8/30/1 18/19/1 7/23/1
f 18/19/1 21/18/1 9/24/1
f 16/29/9 7/23/9 9/24/9
f 14/28/15 9/32/15 1/31/15
f 11/14/9 8/30/9 7/23/9
f 16/29/9 11/14/9 7/23/9
f 14/28/16 16/13/16 9/32/16
f 11/14/9 13/12/9 8/30/9
