# Blender v2.90.1 OBJ File: 'tiles.blend'
# www.blender.org
o cliff_1111-0000_Cube.001
v 0.000000 0.000000 0.000000
v -1.000000 0.000000 0.000000
v -1.000000 -0.000000 1.000000
v 0.000000 -0.000000 1.000000
v 1.000000 0.000000 0.000000
v 1.000000 -0.000000 1.000000
v 1.000000 0.000000 -1.000000
v 0.000000 0.000000 -1.000000
v -1.000000 0.000000 -1.000000
v -1.000000 -1.000000 0.000000
v -1.000000 -1.000000 1.000000
v 0.000000 -1.000000 1.000000
v 1.000000 -1.000000 0.000000
v 1.000000 -1.000000 1.000000
v 1.000000 -1.000000 -1.000000
v 0.000000 -1.000000 -1.000000
v -1.000000 -1.000000 -1.000000
vt 0.071235 0.937748
vt 0.060426 0.948557
vt 0.060426 0.937748
vt 0.049618 0.948557
vt 0.049618 0.937748
vt 0.060426 0.926940
vt 0.049618 0.926940
vt 0.071235 0.926940
vt 0.071235 0.926940
vt 0.060426 0.926940
vt 0.049618 0.948557
vt 0.049618 0.937748
vt 0.071235 0.948557
vt 0.071235 0.937748
vt 0.071235 0.948557
vt 0.049618 0.926940
vt 0.060426 0.948557
vn 0.0000 1.0000 0.0000
vn 0.0000 0.0000 -1.0000
vn -0.5774 -0.5774 -0.5774
vn -0.7071 0.0000 -0.7071
vn 0.7071 0.0000 -0.7071
vn 0.0000 -0.7071 -0.7071
vn 0.0000 -0.0000 1.0000
vn 0.5774 -0.5774 0.5774
vn 0.7071 -0.0000 0.7071
vn 0.7071 -0.7071 -0.0000
vn 1.0000 0.0000 0.0000
vn -0.7071 -0.0000 0.7071
vn -0.7071 -0.7071 -0.0000
vn -0.5774 -0.5774 0.5774
vn -1.0000 0.0000 0.0000
vn 0.5774 -0.5774 -0.5774
vn 0.0000 -0.7071 0.7071
s 1
f 2/1/1 4/2/1 1/3/1
f 1/3/1 6/4/1 5/5/1
f 8/6/1 5/5/1 7/7/1
f 9/8/1 1/3/1 8/6/1
f 8/6/2 17/9/3 9/8/4
f 7/7/5 16/10/6 8/6/2
f 4/2/7 14/11/8 6/4/9
f 6/4/9 13/12/10 5/5/11
f 3/13/12 10/14/13 11/15/14
f 2/1/15 17/9/3 10/14/13
f 5/5/11 15/16/16 7/7/5
f 3/13/12 12/17/17 4/2/7
f 16/10/6 13/12/10 12/17/17
f 2/1/1 3/13/1 4/2/1
f 1/3/1 4/2/1 6/4/1
f 8/6/1 1/3/1 5/5/1
f 9/8/1 2/1/1 1/3/1
f 8/6/2 16/10/6 17/9/3
f 7/7/5 15/16/16 16/10/6
f 4/2/7 12/17/17 14/11/8
f 6/4/9 14/11/8 13/12/10
f 3/13/12 2/1/15 10/14/13
f 2/1/15 9/8/4 17/9/3
f 5/5/11 13/12/10 15/16/16
f 3/13/12 11/15/14 12/17/17
f 11/15/14 10/14/13 12/17/17
f 10/14/13 17/9/3 16/10/6
f 16/10/6 15/16/16 13/12/10
f 10/14/13 16/10/6 12/17/17
f 13/12/10 14/11/8 12/17/17
