# Blender v2.90.1 OBJ File: 'tiles.blend'
# www.blender.org
o cliff_1111-1010_Cube.016
v -1.000000 0.000000 1.000000
v 0.004285 -0.000000 1.000000
v 1.000000 0.000000 0.004285
v 1.000000 -0.000000 -1.000000
v -0.100000 1.000000 -1.000000
v -0.200000 1.000000 -0.200000
v -1.000000 1.000000 -0.100000
v -0.100000 1.000000 -0.450000
v -0.450000 1.000000 -0.100000
v -0.200000 0.091429 -0.200000
v -0.129662 -0.000000 -0.129662
v -1.000000 0.000000 -0.004285
v -1.000000 0.091430 -0.100000
v -0.100000 0.091429 -1.000000
v -0.004285 -0.000000 -1.000000
v -0.100000 0.091429 -0.450000
v -0.008571 -0.000000 -0.432392
v -0.432392 0.000000 -0.008571
v -0.450000 0.091429 -0.100000
v -1.000000 -1.000000 1.000000
v 1.000000 -1.000000 1.000000
v -1.000000 1.000000 -1.000000
v -1.000000 -0.000000 -1.000000
v 0.100000 1.000000 1.000000
v 0.200000 1.000000 0.200000
v 1.000000 1.000000 0.100000
v 0.100000 1.000000 0.450000
v 0.450000 1.000000 0.100000
v 0.200000 0.091429 0.200000
v 0.129663 -0.000000 0.129662
v 1.000000 0.091430 0.100000
v 0.100000 0.091429 1.000000
v 0.100000 0.091429 0.450000
v 0.008571 -0.000000 0.432392
v 0.432392 0.000000 0.008571
v 0.450000 0.091429 0.100000
v 1.000000 -1.000000 -1.000000
v -1.000000 -1.000000 -1.000000
v 1.000000 1.000000 1.000000
vt 0.196765 0.910687
vt 0.193169 0.915054
vt 0.193169 0.910687
vt 0.193157 0.910687
vt 0.191557 0.913070
vt 0.191387 0.912871
vt 0.077772 0.950671
vt 0.077600 0.949471
vt 0.077600 0.950671
vt 0.077420 0.948925
vt 0.077764 0.949432
vt 0.077547 0.948771
vt 0.077787 0.946304
vt 0.077960 0.947505
vt 0.077960 0.946304
vt 0.078139 0.948051
vt 0.077795 0.947544
vt 0.078013 0.948205
vt 0.186047 0.915054
vt 0.187817 0.917238
vt 0.187647 0.917438
vt 0.075982 0.946304
vt 0.077002 0.948507
vt 0.196765 0.915054
vt 0.193157 0.915054
vt 0.191557 0.915054
vt 0.189602 0.912871
vt 0.189602 0.910687
vt 0.189602 0.915054
vt 0.189602 0.917238
vt 0.187647 0.919421
vt 0.186047 0.919421
vt 0.079578 0.950671
vt 0.079578 0.948479
vt 0.078557 0.948469
vt 0.075982 0.948497
vt 0.188809 0.910687
vt 0.188337 0.908703
vt 0.188809 0.908703
vt 0.193529 0.910687
vt 0.194518 0.908722
vt 0.195147 0.909486
vt 0.189280 0.908703
vt 0.189280 0.910687
vt 0.187360 0.910687
vt 0.188337 0.910687
vt 0.190258 0.908703
vt 0.190258 0.910687
vt 0.070172 0.940706
vt 0.069883 0.940151
vt 0.070024 0.940018
vt 0.070005 0.940720
vt 0.070053 0.941937
vt 0.069883 0.941911
vt 0.189602 0.915054
vt 0.191378 0.917238
vt 0.191207 0.917438
vt 0.187832 0.912871
vt 0.186047 0.910687
vt 0.189602 0.910687
vt 0.194967 0.908940
vt 0.195147 0.910687
vt 0.193529 0.908722
vt 0.187360 0.908703
vt 0.191207 0.919421
vt 0.189602 0.919421
vt 0.193169 0.915054
vt 0.193169 0.917238
vt 0.189602 0.915054
vt 0.188002 0.915054
vt 0.188002 0.913070
vt 0.186047 0.912871
vt 0.190729 0.908703
vt 0.190258 0.910687
vt 0.190258 0.908703
vt 0.191707 0.910687
vt 0.190729 0.910687
vt 0.192176 0.910687
vt 0.193157 0.908703
vt 0.193157 0.910687
vt 0.196765 0.908722
vt 0.195776 0.910687
vt 0.195147 0.909923
vt 0.191707 0.910687
vt 0.192176 0.908703
vt 0.076341 0.940706
vt 0.076052 0.940151
vt 0.076193 0.940018
vt 0.076174 0.940720
vt 0.076223 0.941937
vt 0.076052 0.941911
vt 0.191707 0.908703
vt 0.195327 0.910469
vt 0.195147 0.908722
vt 0.196765 0.910687
vt 0.191707 0.908703
vn 0.5774 -0.5774 0.5774
vn -0.5774 -0.5774 -0.5774
vn 0.5774 -0.5774 -0.5774
vn 0.0000 0.0000 1.0000
vn 0.0008 0.7208 0.6931
vn 0.1348 0.7146 0.6864
vn 0.0000 0.7231 0.6907
vn 0.4785 0.7362 0.4785
vn 0.1349 0.7135 0.6875
vn -0.0008 0.7208 -0.6931
vn -0.1348 0.7146 -0.6864
vn -0.0000 0.7231 -0.6907
vn -0.4785 0.7362 -0.4785
vn -0.1349 0.7135 -0.6875
vn 1.0000 -0.0000 -0.0000
vn -0.0000 1.0000 -0.0000
vn -0.5774 -0.5774 0.5774
vn -0.0740 0.7821 -0.6188
vn -0.6136 -0.0431 0.7885
vn -0.7071 0.0000 0.7071
vn 0.7071 0.0000 -0.7071
vn -0.0610 0.8066 -0.5879
vn 0.7071 0.0000 0.7071
vn 0.1891 0.0000 0.9820
vn 0.0283 0.8217 0.5692
vn 0.9820 0.0000 0.1891
vn 0.6875 0.7135 0.1349
vn 0.6864 0.7146 0.1348
vn 0.6931 0.7208 0.0008
vn 0.6907 0.7231 0.0000
vn -1.0000 -0.0000 0.0000
vn -0.0000 -0.0000 -1.0000
vn 0.2500 0.3062 -0.9186
vn -0.6596 0.0476 0.7501
vn -0.1891 -0.0000 -0.9820
vn -0.7071 -0.0000 -0.7071
vn -0.9820 0.0000 -0.1891
vn -0.6875 0.7135 -0.1349
vn -0.6864 0.7146 -0.1348
vn -0.6931 0.7208 -0.0008
vn -0.6907 0.7231 0.0000
s 1
f 21/1/1 38/2/2 37/3/3
f 21/4/1 32/5/4 2/6/4
f 12/7/5 19/8/6 13/9/7
f 10/10/8 18/11/9 11/12/8
f 3/13/10 36/14/11 31/15/12
f 29/16/13 35/17/14 30/18/13
f 21/19/1 3/20/15 31/21/15
f 35/17/16 4/22/16 17/23/16
f 21/1/1 20/24/17 38/2/2
f 21/4/1 39/25/18 32/5/4
f 39/25/18 24/26/19 32/5/4
f 1/27/20 20/28/17 2/6/4
f 20/28/17 21/4/1 2/6/4
f 12/7/5 18/11/9 19/8/6
f 10/10/8 19/8/6 18/11/9
f 3/13/10 35/17/14 36/14/11
f 29/16/13 36/14/11 35/17/14
f 21/19/1 37/29/3 3/20/15
f 37/29/3 4/30/21 3/20/15
f 26/31/22 39/32/18 31/21/15
f 39/32/18 21/19/1 31/21/15
f 12/7/16 1/33/16 18/11/16
f 1/33/16 2/34/16 34/35/16
f 1/33/16 34/35/16 18/11/16
f 18/11/16 34/35/16 30/18/16
f 11/12/16 18/11/16 30/18/16
f 35/17/16 3/13/16 4/22/16
f 11/12/16 30/18/16 35/17/16
f 4/22/16 15/36/16 17/23/16
f 17/23/16 11/12/16 35/17/16
f 6/37/23 19/38/24 10/39/23
f 22/40/25 9/41/16 8/42/16
f 6/37/23 16/43/26 8/44/26
f 7/45/4 19/38/24 9/46/24
f 8/44/26 14/47/15 5/48/15
f 17/49/27 10/50/8 11/51/8
f 16/52/28 15/53/29 14/54/30
f 38/55/2 12/56/31 13/57/31
f 15/58/32 37/59/3 38/60/2
f 6/37/23 9/46/24 19/38/24
f 6/61/16 8/42/16 9/41/16
f 8/42/16 5/62/33 22/40/25
f 22/40/25 7/63/34 9/41/16
f 6/37/23 10/39/23 16/43/26
f 7/45/4 13/64/4 19/38/24
f 8/44/26 16/43/26 14/47/15
f 17/49/27 16/52/28 10/50/8
f 16/52/28 17/49/27 15/53/29
f 13/57/31 7/65/34 22/66/25
f 38/55/2 20/67/17 12/56/31
f 20/67/17 1/68/20 12/56/31
f 13/57/31 22/66/25 38/55/2
f 22/69/25 5/70/33 14/71/32
f 15/58/32 4/72/21 37/59/3
f 38/60/2 22/69/25 14/71/32
f 14/71/32 15/58/32 38/60/2
f 28/73/35 29/74/36 25/75/36
f 28/73/35 31/76/32 36/77/35
f 27/78/37 32/79/31 24/80/31
f 39/81/18 28/82/16 27/83/16
f 25/84/36 33/85/37 27/78/37
f 34/86/38 29/87/13 30/88/13
f 33/89/39 2/90/40 32/91/41
f 28/73/35 36/77/35 29/74/36
f 28/73/35 26/92/32 31/76/32
f 27/78/37 33/85/37 32/79/31
f 25/93/16 27/83/16 28/82/16
f 27/83/16 24/94/19 39/81/18
f 39/81/18 26/95/22 28/82/16
f 25/84/36 29/96/36 33/85/37
f 34/86/38 33/89/39 29/87/13
f 33/89/39 34/86/38 2/90/40
