# Blender v2.90.1 OBJ File: 'tiles.blend'
# www.blender.org
o cliff_1110-1110_Cube.009
v 0.100000 -1.000000 1.000000
v -1.000000 -1.000000 -0.100000
v 0.100000 -1.000000 0.030000
v -0.030000 -1.000000 -0.100000
v 0.100000 1.000000 1.000000
v -1.000000 1.000000 -0.100000
v 0.100000 1.000000 0.030000
v -0.030001 1.000000 -0.100000
v 1.000000 -1.000000 1.000000
v 1.000000 1.000000 1.000000
v -1.000000 -1.000000 -1.000000
v -1.000000 1.000000 -1.000000
v 1.000000 -1.000000 -1.000000
v 1.000000 1.000000 -1.000000
v -1.000000 0.000000 -0.100000
v -0.030000 0.000000 -0.100000
v 0.100000 0.000000 0.030000
v 0.100000 0.000000 1.000000
vt 0.209324 0.919908
vt 0.208709 0.925781
vt 0.208709 0.919908
vt 0.208709 0.914035
vt 0.204124 0.919908
vt 0.204124 0.914035
vt 0.214192 0.919321
vt 0.213578 0.920084
vt 0.209324 0.914035
vt 0.209324 0.925781
vt 0.199870 0.937527
vt 0.199870 0.925781
vt 0.218777 0.937527
vt 0.209324 0.925781
vt 0.218777 0.925781
vt 0.199870 0.937527
vt 0.195616 0.937527
vt 0.195616 0.931654
vt 0.204124 0.914035
vt 0.199539 0.919908
vt 0.199539 0.914035
vt 0.204124 0.919908
vt 0.199539 0.925781
vt 0.204124 0.925781
vt 0.195285 0.919908
vt 0.199539 0.914035
vt 0.199539 0.925781
vt 0.209324 0.925781
vt 0.218777 0.914035
vt 0.218777 0.919321
vt 0.213578 0.925781
vt 0.209324 0.925781
vt 0.209324 0.937527
vt 0.209324 0.937527
vt 0.209324 0.914035
vt 0.195616 0.925781
vt 0.199870 0.925781
vt 0.204124 0.925781
vt 0.195285 0.925781
vt 0.195285 0.914035
vn -0.9239 -0.0000 0.3827
vn -0.3827 0.0000 0.9239
vn -0.0000 0.0000 1.0000
vn -0.0000 1.0000 -0.0000
vn 0.5774 0.5774 -0.5774
vn -0.7071 0.0000 -0.7071
vn 0.7071 0.0000 -0.7071
vn 0.7071 -0.0000 0.7071
vn 0.5774 0.5774 0.5774
vn 0.0000 0.7071 0.7071
vn -1.0000 0.0000 -0.0000
vn -0.5774 0.5774 -0.5774
vn -0.7071 0.7071 0.0000
s 1
f 17/1/1 8/2/2 16/3/2
f 4/4/2 15/5/3 2/6/3
f 8/7/4 7/8/4 14/9/5
f 11/10/6 14/11/5 13/12/7
f 9/13/8 14/14/5 10/15/9
f 4/4/2 17/1/1 16/3/2
f 10/16/9 5/17/10 18/18/3
f 7/19/1 18/20/11 5/21/11
f 17/22/1 1/23/11 18/20/11
f 15/5/3 8/2/2 6/24/3
f 15/25/11 12/26/12 11/27/6
f 17/1/1 7/28/1 8/2/2
f 4/4/2 16/3/2 15/5/3
f 12/29/12 6/30/13 8/7/4
f 7/8/4 5/31/10 10/32/9
f 14/9/5 12/29/12 8/7/4
f 7/8/4 10/32/9 14/9/5
f 11/10/6 12/33/12 14/11/5
f 9/13/8 13/34/7 14/14/5
f 4/4/2 3/35/1 17/1/1
f 18/18/3 1/36/3 9/37/8
f 9/37/8 10/16/9 18/18/3
f 7/19/1 17/22/1 18/20/11
f 17/22/1 3/38/1 1/23/11
f 15/5/3 16/3/2 8/2/2
f 11/27/6 2/39/11 15/25/11
f 15/25/11 6/40/13 12/26/12
