# Blender v2.90.1 OBJ File: 'tiles.blend'
# www.blender.org
o cliff_1111-1110_Cube.020
v -1.000000 -0.000000 -0.004285
v 0.100000 0.091430 1.000000
v 0.005714 0.000000 1.000000
v 0.100000 1.000000 1.000000
v -1.000000 -0.000000 1.000000
v -1.000000 1.000000 -0.100000
v -1.000000 0.091430 -0.100000
v 0.100000 1.000000 0.030000
v -0.031000 1.000000 -0.101000
v -0.131083 0.000000 -0.005523
v 0.003235 0.000000 0.127402
v -0.030000 0.091000 -0.100000
v 0.100000 0.091000 0.030000
v -1.000000 1.000000 -1.000000
v 1.000000 1.000000 -1.000000
v 1.000000 1.000000 1.000000
v -1.000000 -1.000000 -1.000000
v 1.000000 -1.000000 -1.000000
v 1.000000 -1.000000 1.000000
v -1.000000 -1.000000 1.000000
vt 0.054688 0.928279
vt 0.058393 0.924020
vt 0.058957 0.924590
vt 0.198065 0.937584
vt 0.194206 0.938136
vt 0.194206 0.937580
vt 0.054688 0.923609
vt 0.058806 0.923609
vt 0.059358 0.924161
vt 0.173314 0.929810
vt 0.164823 0.938300
vt 0.164823 0.929810
vt 0.173314 0.938300
vt 0.181805 0.929810
vt 0.181805 0.938300
vt 0.168941 0.942121
vt 0.169497 0.942677
vt 0.169093 0.925564
vt 0.164823 0.921319
vt 0.173314 0.921319
vt 0.190295 0.921319
vt 0.181805 0.929810
vt 0.181805 0.921319
vt 0.177135 0.925952
vt 0.173314 0.929810
vt 0.173314 0.921319
vt 0.198063 0.942254
vt 0.198065 0.938136
vt 0.058952 0.928279
vt 0.054688 0.924009
vt 0.173314 0.938300
vt 0.173314 0.929810
vt 0.164823 0.942121
vt 0.164823 0.938300
vt 0.173314 0.946791
vt 0.169493 0.946791
vt 0.164823 0.925564
vt 0.169493 0.925952
vt 0.169493 0.929810
vt 0.190295 0.929810
vt 0.181805 0.921319
vt 0.181805 0.925564
vt 0.177541 0.925564
vt 0.177135 0.929810
vt 0.194206 0.942254
vt 0.183374 0.935204
vt 0.179516 0.939318
vt 0.179515 0.935200
vt 0.049656 0.924590
vt 0.050057 0.928279
vt 0.049651 0.928279
vt 0.183374 0.939318
vt 0.050057 0.924161
vn -0.0000 1.0000 0.0000
vn -0.3831 0.0006 0.9237
vn -0.9239 -0.0000 0.3827
vn -0.3821 0.0003 0.9241
vn -0.5803 0.7969 0.1679
vn -0.6951 0.7189 0.0018
vn -0.5161 0.8186 0.2521
vn -0.2547 0.8175 0.5166
vn 0.5774 0.5774 0.5774
vn 0.5774 -0.5774 -0.5774
vn 0.5774 0.5774 -0.5774
vn -0.5774 -0.5774 -0.5774
vn -0.5774 0.5774 -0.5774
vn 0.0000 0.0000 1.0000
vn -0.5774 -0.5774 0.5774
vn 0.5774 -0.5774 0.5774
vn -1.0000 -0.0000 0.0000
vn -0.6961 0.7179 0.0020
vn -0.1628 0.7920 0.5884
vn 0.0000 0.7071 0.7071
vn -0.7073 0.7069 0.0000
vn -0.7071 -0.0000 0.7071
vn 0.0005 0.0005 1.0000
vn 0.0009 0.7228 0.6910
vn 0.0010 0.7231 0.6907
vn 0.0010 0.0000 1.0000
s 1
f 5/1/1 11/2/1 10/3/1
f 12/4/2 8/5/3 9/6/4
f 11/2/5 2/7/6 13/8/7
f 12/9/8 11/2/5 13/8/7
f 16/10/9 18/11/10 15/12/11
f 15/13/11 17/14/12 14/15/13
f 8/16/1 15/13/11 9/17/1
f 3/18/14 20/19/15 19/20/16
f 18/21/10 20/22/15 17/23/12
f 7/24/17 14/25/13 17/26/12
f 2/27/17 8/5/3 13/28/3
f 10/3/1 1/29/1 5/1/1
f 5/1/1 3/30/1 11/2/1
f 12/4/2 13/28/3 8/5/3
f 11/2/5 3/30/18 2/7/6
f 12/9/8 10/3/19 11/2/5
f 16/10/9 19/31/16 18/11/10
f 15/13/11 18/32/10 17/14/12
f 8/16/1 4/33/20 16/34/9
f 15/13/11 14/35/13 9/17/1
f 14/35/13 6/36/21 9/17/1
f 8/16/1 16/34/9 15/13/11
f 3/18/14 5/37/22 20/19/15
f 19/20/16 16/10/9 2/38/14
f 16/10/9 4/39/20 2/38/14
f 2/38/14 3/18/14 19/20/16
f 18/21/10 19/40/16 20/22/15
f 20/41/15 5/42/22 1/43/17
f 7/24/17 6/44/21 14/25/13
f 20/41/15 1/43/17 17/26/12
f 1/43/17 7/24/17 17/26/12
f 2/27/17 4/45/17 8/5/3
f 9/46/4 7/47/23 12/48/2
f 10/49/19 7/50/24 1/51/25
f 9/46/4 6/52/26 7/47/23
f 10/49/19 12/53/8 7/50/24
