# Blender v2.90.1 OBJ File: 'grass.blend'
# www.blender.org
o 1110-0000.001_Cube.004
v 0.070000 -1.000000 -0.070000
v 0.100000 -1.000000 1.000000
v 1.000000 -0.000000 0.000000
v 1.000000 -0.000000 1.000000
v 1.000000 -0.000000 -1.000000
v 0.000000 0.000000 -1.000000
v -1.000000 0.000000 -1.000000
v -1.000000 -1.000000 -0.100000
v 0.100000 -0.500000 1.000000
v 0.070000 -0.500000 -0.070000
v 0.100000 -1.000000 0.050000
v -1.000000 -0.500000 -0.100000
v -0.050000 -1.000000 -0.100000
v -0.050000 -0.500000 -0.100000
v 0.100000 -0.500000 0.050000
v 0.200000 -0.000000 1.000000
v 0.100000 -0.100000 1.000000
v 0.152462 -0.000000 -0.152462
v 0.070000 -0.100000 -0.070000
v -1.000000 -0.100000 -0.100000
v -1.000000 0.000000 -0.200000
v 0.100000 -0.100000 0.050000
v 0.200000 0.000000 0.037689
v -0.050000 -0.100000 -0.100000
v -0.037689 0.000000 -0.200000
vt 0.181606 0.948856
vt 0.181606 0.940996
vt 0.181606 0.940996
vt 0.181606 0.948856
vt 0.181606 0.956717
vt 0.181606 0.948856
vt 0.181606 0.956717
vt 0.063442 0.929181
vt 0.079163 0.929181
vt 0.079163 0.943155
vt 0.066984 0.942894
vt 0.061254 0.943423
vt 0.189466 0.940996
vt 0.197327 0.940996
vt 0.197327 0.940996
vt 0.189466 0.940996
vt 0.197327 0.940996
vt 0.189466 0.940996
vt 0.047720 0.929181
vt 0.061962 0.943423
vt 0.047720 0.944902
vt 0.181606 0.956717
vt 0.181606 0.940996
vt 0.056815 0.941880
vt 0.056815 0.934020
vt 0.056815 0.934020
vt 0.056815 0.941880
vt 0.064676 0.934020
vt 0.072536 0.934020
vt 0.072536 0.934020
vt 0.064676 0.934020
vt 0.056815 0.949741
vt 0.056815 0.949741
vt 0.061962 0.942714
vt 0.061434 0.948444
vt 0.061695 0.960623
vt 0.047720 0.960623
vn -0.9925 0.0000 0.1222
vn -0.9701 0.0000 0.2425
vn -1.0000 0.0000 -0.0000
vn 0.0000 1.0000 -0.0000
vn -0.1222 0.0000 0.9925
vn -0.0000 -0.0000 1.0000
vn -0.2425 0.0000 0.9701
vn -0.6992 0.7098 0.0861
vn -0.4603 0.7591 0.4603
vn -0.0861 0.7098 0.6992
vn -0.0000 0.7071 0.7071
vn -0.7071 0.7071 -0.0000
s 1
f 15/1/1 10/2/2 1/3/2 11/4/1
f 17/5/3 22/6/1 15/1/1 9/7/3
f 6/8/4 7/9/4 21/10/4 25/11/4 18/12/4
f 24/13/5 20/14/6 12/15/6 14/16/5
f 14/16/5 12/15/6 8/17/6 13/18/5
f 10/2/7 14/16/5 13/18/5 1/3/7
f 5/19/4 6/8/4 18/20/4 3/21/4
f 9/7/3 15/1/1 11/4/1 2/22/3
f 22/6/1 19/23/2 10/2/2 15/1/1
f 19/23/7 24/13/5 14/16/5 10/2/7
f 23/24/8 18/25/9 19/26/9 22/27/8
f 25/28/10 21/29/11 20/30/11 24/31/10
f 16/32/12 23/24/8 22/27/8 17/33/12
f 18/25/9 25/28/10 24/31/10 19/26/9
f 3/21/4 18/34/4 23/35/4 16/36/4 4/37/4
