# Blender v2.90.1 OBJ File: 'tiles.blend'
# www.blender.org
o cliff_1110-1100_Cube.022
v 1.000000 -1.000000 -1.000000
v -1.000000 -1.000000 -0.100000
v -0.029999 -1.000000 -0.100000
v -1.000000 1.000000 -0.100000
v 1.000000 1.000000 -0.100000
v 0.100000 -1.000000 1.000000
v 1.000000 -0.000000 1.000000
v 0.000000 0.000000 -1.000000
v 0.100001 -1.000000 0.030000
v 0.200000 -0.000000 1.000000
v 0.100000 -0.100000 1.000000
v 0.000000 0.000000 -0.100000
v 0.100001 -0.100000 0.030000
v 0.200000 0.000000 -0.000000
v 1.000000 -1.000000 1.000000
v -1.000000 -1.000000 -1.000000
v -1.000000 1.000000 -1.000000
v 1.000000 1.000000 -1.000000
v -1.000000 0.000000 -0.100000
v 0.000000 1.000000 -0.100000
v 1.000000 0.100000 -0.100000
v 1.000000 -0.000000 0.000000
v 0.000000 0.100000 -0.100000
vt 0.175738 0.948659
vt 0.167596 0.948659
vt 0.168273 0.942911
vt 0.177092 0.937164
vt 0.168950 0.937164
vt 0.168265 0.931484
vt 0.166759 0.956739
vt 0.157184 0.956739
vt 0.157423 0.952699
vt 0.174368 0.937301
vt 0.166970 0.930978
vt 0.165998 0.931553
vt 0.074524 0.951081
vt 0.031410 0.935421
vt 0.031274 0.934296
vt 0.167580 0.925805
vt 0.157661 0.948659
vt 0.175722 0.925805
vt 0.166759 0.948659
vt 0.156951 0.931553
vt 0.156274 0.937301
vt 0.031139 0.933172
vt 0.079174 0.940502
vt 0.156891 0.942412
vt 0.166095 0.937239
vt 0.165485 0.942412
vt 0.068342 0.915928
vt 0.059843 0.920471
vt 0.059295 0.915928
vt 0.158116 0.964820
vt 0.166759 0.964820
vt 0.068438 0.921614
vt 0.059844 0.921614
vt 0.166759 0.964820
vt 0.174038 0.956739
vt 0.174948 0.957547
vt 0.185280 0.933482
vt 0.186645 0.934694
vt 0.177092 0.941966
vt 0.166592 0.942582
vt 0.195288 0.958126
vt 0.177092 0.941966
vt 0.195288 0.941966
vt 0.068549 0.920471
vt 0.068899 0.920545
vt 0.157500 0.937239
vt 0.068620 0.918237
vt 0.174948 0.964820
vt 0.166759 0.956739
vt 0.177092 0.925805
vt 0.185280 0.925805
vt 0.195288 0.934694
vt 0.195288 0.941966
vt 0.167201 0.937410
vt 0.177092 0.958126
vn -0.5774 -0.5774 -0.5774
vn -0.7071 -0.7071 -0.0000
vn -1.0000 0.0000 -0.0000
vn -0.5774 0.5774 -0.5774
vn -0.7071 0.7071 -0.0000
vn 0.0000 1.0000 0.0000
vn 0.0000 -0.0000 1.0000
vn -0.2122 0.0064 0.9772
vn 0.5774 -0.5774 -0.5774
vn 1.0000 -0.0000 0.0000
vn -0.3192 0.2700 0.9084
vn -0.4394 0.1860 0.8788
vn -0.3250 0.7140 0.6202
vn 0.7071 0.7071 0.0000
vn 0.5774 0.5774 -0.5774
vn 0.7071 -0.0000 0.7071
vn 0.5774 -0.5774 0.5774
vn 0.0000 0.7071 0.7071
vn -0.9237 0.0130 0.3829
vn -0.9239 -0.0000 0.3827
vn -0.3826 0.0015 0.9239
vn -0.6059 0.7122 0.3543
vn 0.0000 -1.0000 0.0000
vn 0.0000 -0.7071 0.7071
s 1
f 16/1/1 2/2/2 19/3/3
f 17/4/4 4/5/5 20/6/6
f 19/7/7 12/8/8 23/9/7
f 1/10/9 21/11/10 22/12/10
f 23/13/11 12/14/12 14/15/13
f 23/9/7 5/16/7 20/17/7
f 19/3/3 4/5/5 17/4/4
f 17/4/4 16/1/1 19/3/3
f 20/6/6 5/16/14 18/18/15
f 18/18/15 17/4/4 20/6/6
f 20/17/7 4/19/7 23/9/7
f 4/19/7 19/7/7 23/9/7
f 1/10/9 18/18/15 21/11/10
f 18/18/15 5/16/14 21/11/10
f 7/20/16 15/21/17 22/12/10
f 15/21/17 1/10/9 22/12/10
f 14/15/13 22/22/18 21/23/18
f 21/23/18 23/13/11 14/15/13
f 23/9/7 21/11/7 5/16/7
f 6/24/3 13/25/19 9/26/20
f 22/27/6 10/28/6 7/29/6
f 3/30/21 19/7/7 2/31/7
f 10/28/5 13/32/22 11/33/5
f 15/34/17 10/35/7 11/36/7
f 9/37/23 3/38/23 1/39/9
f 13/25/19 3/40/21 9/26/20
f 16/41/1 18/42/15 1/43/9
f 14/44/13 12/45/12 13/32/22
f 6/24/3 11/46/3 13/25/19
f 22/27/6 14/47/6 10/28/6
f 3/30/21 12/8/8 19/7/7
f 10/28/5 14/44/13 13/32/22
f 11/36/7 6/48/24 15/34/17
f 15/34/17 7/49/16 10/35/7
f 15/50/17 6/51/24 9/37/23
f 3/38/23 2/52/2 16/53/1
f 1/39/9 15/50/17 9/37/23
f 3/38/23 16/53/1 1/39/9
f 13/25/19 12/54/8 3/40/21
f 16/41/1 17/55/4 18/42/15
