# Blender v2.90.1 OBJ File: 'tiles.blend'
# www.blender.org
o cliff_1111-1100_Cube.018
v -1.000000 -0.000000 1.000000
v -1.000000 0.500000 -0.100000
v -1.000000 1.000000 -0.100000
v 1.000000 -0.000000 1.000000
v 1.000000 0.500000 -0.100000
v 1.000000 1.000000 -0.100000
v 1.000000 0.000000 -0.008571
v -1.000000 0.000000 -0.008571
v -1.000000 0.091430 -0.100000
v 1.000000 0.091430 -0.100000
v 0.000000 0.091430 -0.100000
v 0.000000 0.000000 -0.008571
v 0.000000 1.000000 -0.100000
v 0.000000 0.500000 -0.100000
v 0.000000 -0.000000 1.000000
v -1.000000 1.000000 -1.000000
v 1.000000 1.000000 -1.000000
v -1.000000 -1.000000 1.000000
v 1.000000 -1.000000 1.000000
v -1.000000 -1.000000 -1.000000
v 1.000000 -1.000000 -1.000000
vt 0.071309 0.942519
vt 0.071309 0.942519
vt 0.071309 0.942519
vt 0.068209 0.936319
vt 0.068209 0.936319
vt 0.068209 0.936319
vt 0.173622 0.930118
vt 0.173622 0.930118
vt 0.173622 0.930118
vt 0.173622 0.930118
vt 0.173622 0.930118
vt 0.173622 0.930118
vt 0.173622 0.930118
vt 0.071309 0.942519
vt 0.071309 0.942519
vt 0.173622 0.930118
vt 0.068209 0.936319
vt 0.068209 0.936319
vt 0.071309 0.942519
vt 0.068209 0.936319
vt 0.000000 0.000000
vt 0.000000 0.000000
vt 0.000000 0.000000
vt 0.000000 0.000000
vt 0.000000 0.000000
vt 0.000000 0.000000
vt 0.173622 0.930118
vn 0.0000 0.7071 0.7071
vn 0.0000 1.0000 0.0000
vn 0.0000 0.0000 1.0000
vn 1.0000 -0.0000 0.0000
vn -1.0000 -0.0000 0.0000
vn 0.0000 -0.0000 -1.0000
vn 0.0000 -1.0000 0.0000
s off
f 7/1/1 11/2/1 12/3/1
f 4/4/2 12/5/2 15/6/2
f 5/7/3 13/8/3 14/9/3
f 10/10/3 14/9/3 11/11/3
f 14/9/3 3/12/3 2/13/3
f 12/3/1 9/14/1 8/15/1
f 11/11/3 2/13/3 9/16/3
f 15/6/2 8/17/2 1/18/2
f 10/19/4 7/20/4 21/21/4
f 20/22/5 8/17/5 9/14/5
f 13/8/2 17/23/2 16/24/2
f 20/22/6 17/23/6 21/21/6
f 21/21/7 18/25/7 20/22/7
f 15/6/3 18/25/3 19/26/3
f 7/1/1 10/19/1 11/2/1
f 4/4/2 7/20/2 12/5/2
f 5/7/3 6/27/3 13/8/3
f 10/10/3 5/7/3 14/9/3
f 14/9/3 13/8/3 3/12/3
f 12/3/1 11/2/1 9/14/1
f 11/11/3 14/9/3 2/13/3
f 15/6/2 12/5/2 8/17/2
f 17/23/4 6/27/4 5/7/4
f 17/23/4 5/7/4 10/19/4
f 4/4/4 19/26/4 7/20/4
f 19/26/4 21/21/4 7/20/4
f 21/21/4 17/23/4 10/19/4
f 2/13/5 3/12/5 16/24/5
f 20/22/5 18/25/5 8/17/5
f 18/25/5 1/18/5 8/17/5
f 2/13/5 16/24/5 9/14/5
f 16/24/5 20/22/5 9/14/5
f 16/24/2 3/12/2 13/8/2
f 13/8/2 6/27/2 17/23/2
f 20/22/6 16/24/6 17/23/6
f 21/21/7 19/26/7 18/25/7
f 19/26/3 4/4/3 15/6/3
f 15/6/3 1/18/3 18/25/3
