# Blender v2.90.1 OBJ File: 'tiles.blend'
# www.blender.org
o Icosphere
v -0.163353 -1.684207 0.062869
v 1.050776 -0.824407 1.040871
v -0.681285 -0.642608 1.410708
v -1.572795 -0.613650 -0.130158
v -0.391699 -0.777567 -1.452292
v 1.229749 -0.907816 -0.728545
v 0.391699 0.777567 1.452292
v -1.229749 0.907816 0.728545
v -1.050776 0.824407 -1.040871
v 0.681285 0.642608 -1.410708
v 1.572795 0.613650 0.130158
v 0.163353 1.684207 -0.062869
v -0.496463 -1.367668 0.866141
v 0.521610 -1.474526 0.648758
v 0.217182 -0.862289 1.441000
v 1.340454 -1.018171 0.183580
v 0.626807 -1.523552 -0.391271
v -1.020481 -1.350646 -0.039551
v -1.324918 -0.738410 0.752685
v -0.326250 -1.446994 -0.816676
v -1.154704 -0.817737 -0.930138
v 0.492594 -0.990642 -1.281862
v 1.542100 -0.123876 0.688312
v 1.647297 -0.172903 -0.351721
v -0.170215 0.079327 1.682833
v 0.847870 -0.027532 1.465452
v -1.647297 0.172903 0.351721
v -1.123284 0.155887 1.257427
v -0.847870 0.027532 -1.465452
v -1.542100 0.123876 -0.688312
v 1.123284 -0.155887 -1.257427
v 0.170215 -0.079327 -1.682833
v 1.154704 0.817737 0.930138
v -0.492594 0.990642 1.281862
v -1.340454 1.018171 -0.183580
v -0.217182 0.862289 -1.441000
v 1.324918 0.738410 -0.752685
v 0.326250 1.446994 0.816676
v 1.020481 1.350646 0.039551
v -0.626807 1.523552 0.391271
v -0.521610 1.474526 -0.648758
v 0.496463 1.367668 -0.866141
vt 0.818181 0.000000
vt 0.772726 0.078731
vt 0.863635 0.078731
vt 0.727272 0.157461
vt 0.681818 0.078731
vt 0.636363 0.157461
vt 0.090909 0.000000
vt 0.045454 0.078731
vt 0.136363 0.078731
vt 0.272727 0.000000
vt 0.227273 0.078731
vt 0.318182 0.078731
vt 0.454545 0.000000
vt 0.409090 0.078731
vt 0.500000 0.078731
vt 0.681818 0.236191
vt 0.909090 0.157461
vt 0.818181 0.157461
vt 0.863635 0.236191
vt 0.181818 0.157461
vt 0.090909 0.157461
vt 0.136363 0.236191
vt 0.363636 0.157461
vt 0.272727 0.157461
vt 0.318182 0.236191
vt 0.545454 0.157461
vt 0.454545 0.157461
vt 0.500000 0.236191
vt 0.772726 0.236191
vt 0.954545 0.236191
vt 0.227273 0.236191
vt 0.409090 0.236191
vt 0.590909 0.236191
vt 0.818181 0.314921
vt 0.727272 0.314921
vt 0.772726 0.393651
vt 1.000000 0.314921
vt 0.909091 0.314921
vt 0.954545 0.393651
vt 0.272727 0.314921
vt 0.181818 0.314921
vt 0.227273 0.393651
vt 0.454545 0.314921
vt 0.363636 0.314921
vt 0.409090 0.393651
vt 0.636363 0.314921
vt 0.545454 0.314921
vt 0.590909 0.393651
vt 0.500000 0.393651
vt 0.545454 0.472382
vt 0.318182 0.393651
vt 0.363636 0.472382
vt 0.136363 0.393651
vt 0.181818 0.472382
vt 0.090909 0.314921
vt 0.863635 0.393651
vt 0.909090 0.472382
vt 0.681818 0.393651
vt 0.727272 0.472382
vt 0.045454 0.236191
vt 0.000000 0.157461
vt 0.590909 0.078731
vt 0.636363 0.000000
vn -0.0213 -0.9331 0.3589
vn 0.6026 -0.7101 0.3641
vn -0.3760 -0.9046 0.2006
vn -0.3369 -0.9229 -0.1865
vn 0.0420 -0.9627 -0.2674
vn 0.8373 -0.3994 0.3732
vn -0.1022 -0.2867 0.9526
vn -0.9446 -0.2319 0.2324
vn -0.5256 -0.3108 -0.7919
vn 0.5757 -0.4143 -0.7049
vn 0.7240 -0.1716 0.6681
vn -0.4105 -0.0525 0.9103
vn -0.9945 -0.0335 -0.0990
vn -0.2209 -0.1409 -0.9651
vn 0.8413 -0.2262 -0.4910
vn 0.4056 0.6499 0.6427
vn -0.4615 0.7289 0.5057
vn -0.6026 0.7101 -0.3641
vn 0.1773 0.6195 -0.7647
vn 0.8004 0.5823 -0.1424
vn 0.3760 0.9046 -0.2006
vn 0.5989 0.7284 -0.3328
vn 0.5320 0.5910 -0.6064
vn 0.0213 0.9331 -0.3589
vn -0.0511 0.7806 -0.6229
vn -0.3443 0.6743 -0.6533
vn -0.2370 0.9690 -0.0697
vn -0.5245 0.8463 -0.0929
vn -0.6565 0.7352 0.1686
vn -0.0420 0.9627 0.2674
vn -0.1671 0.8347 0.5247
vn 0.0267 0.6897 0.7236
vn 0.3369 0.9229 0.1865
vn 0.5271 0.7619 0.3764
vn 0.7612 0.6006 0.2446
vn 0.9446 0.2319 -0.2324
vn 0.8630 0.0863 -0.4977
vn 0.6761 0.2406 -0.6964
vn 0.1022 0.2867 -0.9526
vn -0.1886 0.1708 -0.9671
vn -0.4193 0.3414 -0.8412
vn -0.8373 0.3994 -0.3732
vn -0.9546 0.2771 -0.1096
vn -0.8912 0.4246 0.1595
vn -0.5757 0.4143 0.7049
vn -0.3764 0.2583 0.8897
vn -0.0875 0.3751 0.9228
vn 0.5256 0.3108 0.7919
vn 0.7470 0.1404 0.6499
vn 0.8812 0.2614 0.3939
vn 0.4105 0.0525 -0.9103
vn 0.3764 -0.2583 -0.8897
vn 0.0875 -0.3751 -0.9228
vn -0.7240 0.1716 -0.6681
vn -0.7470 -0.1404 -0.6499
vn -0.8812 -0.2614 -0.3939
vn -0.8413 0.2262 0.4910
vn -0.8630 -0.0863 0.4977
vn -0.6761 -0.2406 0.6964
vn 0.2209 0.1409 0.9651
vn 0.1886 -0.1708 0.9671
vn 0.4193 -0.3414 0.8412
vn 0.9945 0.0335 0.0990
vn 0.9546 -0.2771 0.1096
vn 0.8912 -0.4246 -0.1595
vn 0.4615 -0.7289 -0.5057
vn 0.1671 -0.8347 -0.5247
vn -0.0267 -0.6897 -0.7236
vn -0.4056 -0.6499 -0.6427
vn -0.5271 -0.7619 -0.3764
vn -0.7612 -0.6006 -0.2446
vn -0.8004 -0.5823 0.1424
vn -0.5989 -0.7284 0.3328
vn -0.5320 -0.5910 0.6064
vn 0.6565 -0.7352 -0.1686
vn 0.5245 -0.8463 0.0929
vn 0.2370 -0.9690 0.0697
vn -0.1773 -0.6195 0.7647
vn 0.0511 -0.7806 0.6229
vn 0.3443 -0.6743 0.6533
s off
f 1/1/1 14/2/1 13/3/1
f 2/4/2 14/5/2 16/6/2
f 1/7/3 13/8/3 18/9/3
f 1/10/4 18/11/4 20/12/4
f 1/13/5 20/14/5 17/15/5
f 2/4/6 16/6/6 23/16/6
f 3/17/7 15/18/7 25/19/7
f 4/20/8 19/21/8 27/22/8
f 5/23/9 21/24/9 29/25/9
f 6/26/10 22/27/10 31/28/10
f 2/4/11 23/16/11 26/29/11
f 3/17/12 25/19/12 28/30/12
f 4/20/13 27/22/13 30/31/13
f 5/23/14 29/25/14 32/32/14
f 6/26/15 31/28/15 24/33/15
f 7/34/16 33/35/16 38/36/16
f 8/37/17 34/38/17 40/39/17
f 9/40/18 35/41/18 41/42/18
f 10/43/19 36/44/19 42/45/19
f 11/46/20 37/47/20 39/48/20
f 39/48/21 42/49/21 12/50/21
f 39/48/22 37/47/22 42/49/22
f 37/47/23 10/43/23 42/49/23
f 42/45/24 41/51/24 12/52/24
f 42/45/25 36/44/25 41/51/25
f 36/44/26 9/40/26 41/51/26
f 41/42/27 40/53/27 12/54/27
f 41/42/28 35/41/28 40/53/28
f 35/41/29 8/55/29 40/53/29
f 40/39/30 38/56/30 12/57/30
f 40/39/31 34/38/31 38/56/31
f 34/38/32 7/34/32 38/56/32
f 38/36/33 39/58/33 12/59/33
f 38/36/34 33/35/34 39/58/34
f 33/35/35 11/46/35 39/58/35
f 24/33/36 37/47/36 11/46/36
f 24/33/37 31/28/37 37/47/37
f 31/28/38 10/43/38 37/47/38
f 32/32/39 36/44/39 10/43/39
f 32/32/40 29/25/40 36/44/40
f 29/25/41 9/40/41 36/44/41
f 30/31/42 35/41/42 9/40/42
f 30/31/43 27/22/43 35/41/43
f 27/22/44 8/55/44 35/41/44
f 28/30/45 34/38/45 8/37/45
f 28/30/46 25/19/46 34/38/46
f 25/19/47 7/34/47 34/38/47
f 26/29/48 33/35/48 7/34/48
f 26/29/49 23/16/49 33/35/49
f 23/16/50 11/46/50 33/35/50
f 31/28/51 32/32/51 10/43/51
f 31/28/52 22/27/52 32/32/52
f 22/27/53 5/23/53 32/32/53
f 29/25/54 30/31/54 9/40/54
f 29/25/55 21/24/55 30/31/55
f 21/24/56 4/20/56 30/31/56
f 27/22/57 28/60/57 8/55/57
f 27/22/58 19/21/58 28/60/58
f 19/21/59 3/61/59 28/60/59
f 25/19/60 26/29/60 7/34/60
f 25/19/61 15/18/61 26/29/61
f 15/18/62 2/4/62 26/29/62
f 23/16/63 24/33/63 11/46/63
f 23/16/64 16/6/64 24/33/64
f 16/6/65 6/26/65 24/33/65
f 17/15/66 22/27/66 6/26/66
f 17/15/67 20/14/67 22/27/67
f 20/14/68 5/23/68 22/27/68
f 20/12/69 21/24/69 5/23/69
f 20/12/70 18/11/70 21/24/70
f 18/11/71 4/20/71 21/24/71
f 18/9/72 19/21/72 4/20/72
f 18/9/73 13/8/73 19/21/73
f 13/8/74 3/61/74 19/21/74
f 16/6/75 17/62/75 6/26/75
f 16/6/76 14/5/76 17/62/76
f 14/5/77 1/63/77 17/62/77
f 13/3/78 15/18/78 3/17/78
f 13/3/79 14/2/79 15/18/79
f 14/2/80 2/4/80 15/18/80
