# Blender v2.90.1 OBJ File: 'tiles.blend'
# www.blender.org
o cliff_1000-0000_Cube.002
v -0.100000 -1.000000 -1.000000
v -1.000000 -1.000000 -0.100000
v -0.200000 -1.000000 -0.200000
v -0.200000 0.000000 -1.000000
v -0.100000 -0.100000 -1.000000
v -0.300000 0.000000 -0.300000
v -0.200000 -0.100000 -0.200000
v -1.000000 -0.100000 -0.100000
v -1.000000 0.000000 -0.200000
v -0.100000 -1.000000 -0.450000
v -0.450000 -1.000000 -0.100000
v -0.150000 -0.050000 -1.000000
v -0.200000 0.000000 -0.500000
v -0.250000 -0.050000 -0.250000
v -0.100000 -0.100000 -0.450000
v -0.500000 0.000000 -0.200000
v -1.000000 -0.050000 -0.150000
v -0.450000 -0.100000 -0.100000
v -0.100000 -0.550000 -1.000000
v -0.200000 -0.550000 -0.200000
v -1.000000 -0.550000 -0.100000
v -0.100000 -0.550000 -0.450000
v -0.475000 -0.050000 -0.150000
v -0.150000 -0.050000 -0.475000
v -0.450000 -0.550000 -0.100000
v -0.100000 -1.000000 -0.725000
v -0.325000 -1.000000 -0.150000
v -0.175000 -0.025000 -1.000000
v -0.250000 0.000000 -0.400000
v -0.225000 -0.075000 -0.225000
v -0.100000 -0.100000 -0.725000
v -0.750000 0.000000 -0.200000
v -1.000000 -0.075000 -0.125000
v -0.325000 -0.100000 -0.150000
v -0.100000 -0.325000 -1.000000
v -1.000000 -0.775000 -0.100000
v -0.725000 -1.000000 -0.100000
v -0.125000 -0.075000 -1.000000
v -0.200000 0.000000 -0.750000
v -0.275000 -0.025000 -0.275000
v -0.150000 -0.100000 -0.325000
v -0.400000 0.000000 -0.250000
v -1.000000 -0.025000 -0.175000
v -0.725000 -0.100000 -0.100000
v -0.100000 -0.775000 -1.000000
v -0.200000 -0.325000 -0.200000
v -1.000000 -0.325000 -0.100000
v -0.100000 -0.775000 -0.450000
v -0.100000 -0.325000 -0.450000
v -0.100000 -0.550000 -0.725000
v -0.150000 -0.550000 -0.325000
v -0.462500 -0.075000 -0.125000
v -0.487500 -0.025000 -0.175000
v -0.362500 -0.050000 -0.200000
v -0.737500 -0.050000 -0.150000
v -0.125000 -0.075000 -0.462500
v -0.175000 -0.025000 -0.487500
v -0.150000 -0.050000 -0.737500
v -0.200000 -0.050000 -0.362500
v -0.450000 -0.775000 -0.100000
v -0.450000 -0.325000 -0.100000
v -0.725000 -0.550000 -0.100000
v -0.200000 -0.775000 -0.200000
v -0.150000 -1.000000 -0.325000
v -0.325000 -0.550000 -0.150000
v -0.725000 -0.325000 -0.100000
v -0.325000 -0.325000 -0.150000
v -0.325000 -0.775000 -0.150000
v -0.225000 -0.025000 -0.381250
v -0.175000 -0.025000 -0.743750
v -0.125000 -0.075000 -0.731250
v -0.743750 -0.025000 -0.175000
v -0.381250 -0.025000 -0.225000
v -0.343750 -0.075000 -0.175000
v -0.150000 -0.325000 -0.325000
v -0.100000 -0.325000 -0.725000
v -0.100000 -0.775000 -0.725000
v -0.150000 -0.775000 -0.325000
v -0.731250 -0.075000 -0.125000
v -0.175000 -0.075000 -0.343750
v -0.725000 -0.775000 -0.100000
v -1.000000 0.000000 -0.500000
v -0.750000 0.000000 -0.750000
v -0.754117 0.000000 -0.498742
v -0.500000 0.000000 -1.000000
v -0.500000 0.000000 -0.750000
v -0.500000 0.000000 -0.500000
v -1.000000 0.000000 -0.750000
v -1.000000 -0.000000 -1.000000
v -0.750000 0.000000 -1.000000
v -1.000000 -1.000000 -1.000000
vt 0.068209 0.939419
vt 0.078869 0.938098
vt 0.068209 0.939419
vt 0.191247 0.923908
vt 0.191247 0.917152
vt 0.191247 0.923908
vt 0.070912 0.940099
vt 0.064906 0.940099
vt 0.064343 0.940099
vt 0.081121 0.926650
vt 0.081872 0.920081
vt 0.081872 0.926838
vt 0.184491 0.944176
vt 0.191247 0.944176
vt 0.184491 0.944176
vt 0.177734 0.944176
vt 0.170978 0.944176
vt 0.170978 0.944176
vt 0.177734 0.944176
vt 0.170978 0.944176
vt 0.170978 0.944176
vt 0.184491 0.944176
vt 0.191247 0.944176
vt 0.184491 0.944176
vt 0.081121 0.939787
vt 0.081872 0.933594
vt 0.081872 0.940350
vt 0.079620 0.938661
vt 0.080370 0.932843
vt 0.080370 0.939224
vt 0.079620 0.926275
vt 0.080370 0.920081
vt 0.080370 0.926462
vt 0.057775 0.940099
vt 0.051394 0.940099
vt 0.051206 0.940099
vt 0.057024 0.940099
vt 0.051019 0.940099
vt 0.050831 0.940099
vt 0.069410 0.940099
vt 0.063780 0.940099
vt 0.063217 0.940099
vt 0.191247 0.930664
vt 0.191247 0.937420
vt 0.191247 0.937420
vt 0.191247 0.930664
vt 0.191247 0.937420
vt 0.191247 0.937420
vt 0.191247 0.917152
vt 0.191247 0.923908
vt 0.191247 0.923908
vt 0.078869 0.944103
vt 0.062654 0.940099
vt 0.191247 0.930664
vt 0.191247 0.923908
vt 0.191247 0.930664
vt 0.191247 0.917152
vt 0.191247 0.944176
vt 0.191247 0.937420
vt 0.191247 0.944176
vt 0.191247 0.944176
vt 0.057399 0.940099
vt 0.079620 0.932468
vt 0.068660 0.940099
vt 0.044638 0.940099
vt 0.044638 0.940099
vt 0.068209 0.939419
vt 0.044638 0.940099
vt 0.044638 0.940099
vt 0.079620 0.944854
vt 0.080370 0.945605
vt 0.081121 0.946355
vt 0.081872 0.947106
vt 0.081121 0.933218
vt 0.177734 0.944176
vt 0.184491 0.944176
vt 0.177734 0.944176
vt 0.164222 0.944176
vt 0.164222 0.944176
vt 0.170978 0.944176
vt 0.164222 0.944176
vt 0.164222 0.944176
vt 0.164222 0.944176
vt 0.177734 0.944176
vt 0.081121 0.920081
vt 0.058150 0.940099
vt 0.070161 0.940099
vt 0.191247 0.930664
vt 0.191247 0.917152
vt 0.068209 0.939419
vt 0.079620 0.920081
vt 0.068209 0.939419
vt 0.068209 0.939419
vt 0.068209 0.939419
vt 0.068209 0.939419
vt 0.068209 0.939419
vt 0.068209 0.939419
vt 0.068209 0.939419
vt 0.068209 0.939419
vt 0.068209 0.939419
vt 0.071663 0.940099
vt 0.191247 0.917152
vt 0.068209 0.939419
vt 0.068209 0.939419
vt 0.170522 0.930118
vn 0.0000 1.0000 -0.0000
vn -0.0000 -0.0000 1.0000
vn 0.4104 0.8144 0.4104
vn 0.5869 0.7731 0.2404
vn 0.5862 0.7716 0.2469
vn 0.0000 0.7071 0.7071
vn 0.9285 -0.0000 0.3714
vn 0.7071 -0.0000 0.7071
vn 0.9820 -0.0000 0.1891
vn 1.0000 -0.0000 -0.0000
vn 0.2469 0.7716 0.5862
vn 0.1468 0.7381 0.6585
vn 0.2404 0.7731 0.5869
vn 0.2694 0.7746 0.5722
vn 0.1390 0.7357 0.6629
vn 0.2577 0.7731 0.5795
vn 0.6653 0.7347 0.1327
vn 0.7071 0.7071 0.0000
vn 0.6602 0.7368 0.1458
vn 0.4107 0.8140 0.4107
vn 0.5795 0.7731 0.2577
vn 0.5722 0.7746 0.2694
vn 0.1891 -0.0000 0.9820
vn 0.3714 -0.0000 0.9285
vn 0.6629 0.7357 0.1390
vn 0.2782 0.7722 0.5712
vn 0.1458 0.7368 0.6602
vn 0.4129 0.8118 0.4129
vn 0.5712 0.7722 0.2782
vn 0.4105 0.8142 0.4105
vn 0.4082 0.8165 0.4082
vn 0.1327 0.7347 0.6653
vn 0.6585 0.7381 0.1468
vn 0.1363 0.7337 0.6656
vn 0.6656 0.7337 0.1363
vn 0.0000 -0.0000 -1.0000
vn -0.5774 -0.5774 -0.5774
vn -1.0000 -0.0000 -0.0000
vn -0.0000 -1.0000 -0.0000
vn 0.0000 -0.7071 -0.7071
vn -0.7071 -0.0000 -0.7071
vn -0.7071 -0.7071 -0.0000
s 1
f 16/1/1 42/2/1 87/3/1
f 81/4/2 2/5/2 37/6/2
f 30/7/3 41/8/4 80/9/5
f 79/10/6 8/11/6 44/12/6
f 78/13/7 3/14/8 64/15/7
f 48/16/9 26/17/10 77/18/10
f 49/19/9 50/20/10 76/21/10
f 75/22/7 20/23/8 51/24/7
f 74/25/11 18/26/12 34/27/13
f 73/28/14 23/29/15 54/30/16
f 72/31/6 17/32/6 55/33/6
f 56/34/17 31/35/18 71/36/18
f 57/37/19 58/38/18 70/39/18
f 40/40/20 59/41/21 69/42/22
f 60/43/23 27/44/24 68/45/24
f 61/46/23 65/47/24 67/48/24
f 47/49/2 62/50/2 66/51/2
f 87/3/1 6/52/1 29/53/1
f 66/51/2 25/54/23 61/46/23
f 44/55/2 61/46/23 18/56/23
f 8/57/2 66/51/2 44/55/2
f 67/48/24 20/23/8 46/58/8
f 34/59/24 46/58/8 7/60/8
f 18/56/23 67/48/24 34/59/24
f 63/61/8 27/44/24 3/14/8
f 20/23/8 68/45/24 63/61/8
f 25/54/23 68/45/24 65/47/24
f 69/42/22 24/62/25 57/37/19
f 42/2/26 53/63/27 73/28/14
f 6/64/28 69/42/22 29/53/29
f 70/39/18 12/65/18 28/66/18
f 28/66/18 39/67/18 70/39/18
f 71/36/18 5/68/18 38/69/18
f 58/38/18 38/69/18 12/65/18
f 24/62/25 71/36/18 58/38/18
f 53/63/27 55/33/6 23/29/15
f 40/70/20 54/30/16 14/71/30
f 6/52/28 73/28/14 40/70/20
f 57/37/19 29/53/29 69/42/22
f 30/72/3 34/27/13 7/73/31
f 14/71/30 74/25/11 30/72/3
f 54/30/16 52/74/32 74/25/11
f 49/19/9 51/24/7 22/75/9
f 41/76/7 49/19/9 15/77/9
f 7/60/8 75/22/7 41/76/7
f 76/21/10 19/78/10 35/79/10
f 31/80/10 35/79/10 5/81/10
f 15/77/9 76/21/10 31/80/10
f 77/18/10 1/82/10 45/83/10
f 50/20/10 45/83/10 19/78/10
f 22/75/9 77/18/10 50/20/10
f 48/16/9 64/15/7 10/84/9
f 51/24/7 48/16/9 22/75/9
f 51/24/7 63/61/8 78/13/7
f 52/74/32 44/12/6 18/26/12
f 23/29/15 79/10/6 52/74/32
f 55/33/6 33/85/6 79/10/6
f 80/9/5 15/86/33 56/34/17
f 59/41/21 56/34/17 24/62/25
f 14/87/30 80/9/5 59/41/21
f 60/43/23 37/6/2 11/88/23
f 62/50/2 60/43/23 25/54/23
f 62/50/2 36/89/2 81/4/2
f 72/31/6 16/1/34 32/90/6
f 43/91/6 32/90/6 9/92/6
f 13/93/35 70/39/18 39/67/18
f 39/67/1 85/94/1 86/95/1
f 84/96/1 9/92/1 32/90/1
f 87/3/1 83/97/1 84/96/1
f 88/98/1 84/96/1 83/97/1
f 83/97/1 85/94/1 90/99/1
f 88/98/1 90/99/1 89/100/1
f 29/53/1 13/93/1 87/3/1
f 13/93/1 39/67/1 87/3/1
f 39/67/1 86/95/1 87/3/1
f 84/96/1 32/90/1 87/3/1
f 32/90/1 16/1/1 87/3/1
f 42/2/1 6/52/1 87/3/1
f 81/4/2 36/89/2 2/5/2
f 30/7/3 7/101/31 41/8/4
f 79/10/6 33/85/6 8/11/6
f 78/13/7 63/61/8 3/14/8
f 48/16/9 10/84/9 26/17/10
f 49/19/9 22/75/9 50/20/10
f 75/22/7 46/58/8 20/23/8
f 74/25/11 52/74/32 18/26/12
f 73/28/14 53/63/27 23/29/15
f 72/31/6 43/91/6 17/32/6
f 56/34/17 15/86/33 31/35/18
f 57/37/19 24/62/25 58/38/18
f 40/40/20 14/87/30 59/41/21
f 60/43/23 11/88/23 27/44/24
f 61/46/23 25/54/23 65/47/24
f 47/49/2 21/102/2 62/50/2
f 66/51/2 62/50/2 25/54/23
f 44/55/2 66/51/2 61/46/23
f 8/57/2 47/49/2 66/51/2
f 67/48/24 65/47/24 20/23/8
f 34/59/24 67/48/24 46/58/8
f 18/56/23 61/46/23 67/48/24
f 63/61/8 68/45/24 27/44/24
f 20/23/8 65/47/24 68/45/24
f 25/54/23 60/43/23 68/45/24
f 69/42/22 59/41/21 24/62/25
f 42/2/26 16/1/34 53/63/27
f 6/64/28 40/40/20 69/42/22
f 70/39/18 58/38/18 12/65/18
f 28/66/18 4/103/18 39/67/18
f 71/36/18 31/35/18 5/68/18
f 58/38/18 71/36/18 38/69/18
f 24/62/25 56/34/17 71/36/18
f 53/63/27 72/31/6 55/33/6
f 40/70/20 73/28/14 54/30/16
f 6/52/28 42/2/26 73/28/14
f 57/37/19 13/93/35 29/53/29
f 30/72/3 74/25/11 34/27/13
f 14/71/30 54/30/16 74/25/11
f 54/30/16 23/29/15 52/74/32
f 49/19/9 75/22/7 51/24/7
f 41/76/7 75/22/7 49/19/9
f 7/60/8 46/58/8 75/22/7
f 76/21/10 50/20/10 19/78/10
f 31/80/10 76/21/10 35/79/10
f 15/77/9 49/19/9 76/21/10
f 77/18/10 26/17/10 1/82/10
f 50/20/10 77/18/10 45/83/10
f 22/75/9 48/16/9 77/18/10
f 48/16/9 78/13/7 64/15/7
f 51/24/7 78/13/7 48/16/9
f 51/24/7 20/23/8 63/61/8
f 52/74/32 79/10/6 44/12/6
f 23/29/15 55/33/6 79/10/6
f 55/33/6 17/32/6 33/85/6
f 80/9/5 41/8/4 15/86/33
f 59/41/21 80/9/5 56/34/17
f 14/87/30 30/7/3 80/9/5
f 60/43/23 81/4/2 37/6/2
f 62/50/2 81/4/2 60/43/23
f 62/50/2 21/102/2 36/89/2
f 72/31/6 53/63/27 16/1/34
f 43/91/6 72/31/6 32/90/6
f 13/93/35 57/37/19 70/39/18
f 39/67/1 4/103/1 85/94/1
f 84/96/1 82/104/1 9/92/1
f 87/3/1 86/95/1 83/97/1
f 88/98/1 82/104/1 84/96/1
f 83/97/1 86/95/1 85/94/1
f 88/98/1 83/97/1 90/99/1
f 90/99/36 19/78/36 91/105/37
f 88/98/38 91/105/37 21/102/38
f 37/6/39 91/105/37 26/17/39
f 4/103/36 28/66/36 85/94/36
f 28/66/36 12/65/36 85/94/36
f 38/69/36 5/68/36 35/79/36
f 12/65/36 38/69/36 35/79/36
f 35/79/36 19/78/36 85/94/36
f 19/78/36 45/83/36 91/105/37
f 35/79/36 85/94/36 12/65/36
f 45/83/36 1/82/40 91/105/37
f 91/105/37 89/100/41 90/99/36
f 90/99/36 85/94/36 19/78/36
f 8/57/38 33/85/38 47/49/38
f 33/85/38 17/32/38 47/49/38
f 43/91/38 9/92/38 82/104/38
f 17/32/38 43/91/38 82/104/38
f 88/98/38 89/100/41 91/105/37
f 17/32/38 82/104/38 47/49/38
f 82/104/38 88/98/38 21/102/38
f 21/102/38 47/49/38 82/104/38
f 91/105/37 2/5/42 36/89/38
f 36/89/38 21/102/38 91/105/37
f 1/82/40 26/17/39 91/105/37
f 26/17/39 10/84/39 11/88/39
f 11/88/39 10/84/39 64/15/39
f 64/15/39 3/14/39 27/44/39
f 11/88/39 64/15/39 27/44/39
f 37/6/39 2/5/42 91/105/37
f 11/88/39 37/6/39 26/17/39
