# Blender v2.90.1 OBJ File: 'tiles.blend'
# www.blender.org
o cliff_1110-0000_Cube.004
v 0.070000 -1.000000 -0.070000
v 0.100000 -1.000000 1.000000
v 1.000000 -0.000000 0.000000
v 1.000000 -0.000000 1.000000
v 1.000000 -0.000000 -1.000000
v 0.000000 0.000000 -1.000000
v -1.000000 0.000000 -1.000000
v -1.000000 -1.000000 -0.100000
v 0.100000 -0.500000 1.000000
v 0.070000 -0.500000 -0.070000
v 0.100000 -1.000000 0.050000
v -1.000000 -0.500000 -0.100000
v -0.050000 -1.000000 -0.100000
v -0.050000 -0.500000 -0.100000
v 0.100000 -0.500000 0.050000
v 0.200000 -0.000000 1.000000
v 0.100000 -0.100000 1.000000
v 0.152462 -0.000000 -0.152462
v 0.070000 -0.100000 -0.070000
v -1.000000 -0.100000 -0.100000
v -1.000000 0.000000 -0.200000
v 0.100000 -0.100000 0.050000
v 0.200000 0.000000 0.037689
v -0.050000 -0.100000 -0.100000
v -0.037689 0.000000 -0.200000
v 1.000000 -1.000000 1.000000
v 1.000000 -1.000000 -1.000000
v -1.000000 -1.000000 -1.000000
vt 0.181606 0.940996
vt 0.181606 0.948856
vt 0.181606 0.948856
vt 0.181606 0.948856
vt 0.181606 0.956717
vt 0.181606 0.956717
vt 0.079163 0.929181
vt 0.079163 0.943155
vt 0.066984 0.942894
vt 0.197327 0.940996
vt 0.189466 0.940996
vt 0.189466 0.940996
vt 0.197327 0.940996
vt 0.189466 0.940996
vt 0.181606 0.940996
vt 0.047720 0.929181
vt 0.061962 0.943423
vt 0.047720 0.944902
vt 0.181606 0.956717
vt 0.181606 0.940996
vt 0.056815 0.941880
vt 0.056815 0.934020
vt 0.056815 0.941880
vt 0.072536 0.934020
vt 0.064676 0.934020
vt 0.064676 0.934020
vt 0.056815 0.949741
vt 0.056815 0.949741
vt 0.056815 0.934020
vt 0.061434 0.948444
vt 0.061695 0.960623
vt 0.047720 0.960623
vt 0.000000 0.000000
vt 0.000000 0.000000
vt 0.000000 0.000000
vt 0.063442 0.929181
vt 0.197327 0.940996
vt 0.061254 0.943423
vt 0.072536 0.934020
vt 0.061962 0.942714
vn -0.7071 0.0000 0.7071
vn -0.9925 0.0000 0.1222
vn -1.0000 0.0000 -0.0000
vn -0.0000 1.0000 -0.0000
vn -0.0000 -0.0000 1.0000
vn -0.1222 0.0000 0.9925
vn -0.6992 0.7098 0.0861
vn -0.4603 0.7591 0.4603
vn 0.0000 0.7071 0.7071
vn -0.0861 0.7098 0.6992
vn -0.7071 0.7071 -0.0000
vn 0.5774 -0.5774 -0.5774
vn 1.0000 -0.0000 0.0000
vn 0.5774 -0.5774 0.5774
vn -0.5774 -0.5774 -0.5774
vn -0.7071 -0.0000 -0.7071
vn -0.0000 -0.0000 -1.0000
vn -0.7071 -0.7071 0.0000
vn -0.0000 -1.0000 -0.0000
vn 0.0000 -0.7071 0.7071
vn 0.7071 0.0000 0.7071
vn 0.7071 0.0000 -0.7071
s 1
f 10/1/1 11/2/2 15/3/2
f 22/4/2 9/5/3 17/6/3
f 7/7/4 21/8/4 25/9/4
f 20/10/5 14/11/6 24/12/6
f 12/13/5 13/14/6 14/11/6
f 14/11/6 1/15/1 10/1/1
f 5/16/4 18/17/4 3/18/4
f 15/3/2 2/19/3 9/5/3
f 19/20/1 15/3/2 22/4/2
f 24/12/6 10/1/1 19/20/1
f 23/21/7 19/22/8 22/23/7
f 21/24/9 24/25/10 25/26/10
f 16/27/11 22/23/7 17/28/11
f 25/26/10 19/22/8 18/29/8
f 23/30/4 16/31/4 4/32/4
f 16/31/5 17/28/5 9/5/5
f 27/33/12 3/18/13 26/34/14
f 28/35/15 7/7/16 6/36/17
f 28/35/15 8/37/18 12/13/3
f 1/15/19 13/14/19 27/33/12
f 10/1/1 1/15/1 11/2/2
f 22/4/2 15/3/2 9/5/3
f 18/38/4 6/36/4 25/9/4
f 6/36/4 7/7/4 25/9/4
f 20/10/5 12/13/5 14/11/6
f 12/13/5 8/37/5 13/14/6
f 14/11/6 13/14/6 1/15/1
f 5/16/4 6/36/4 18/17/4
f 15/3/2 11/2/2 2/19/3
f 19/20/1 10/1/1 15/3/2
f 24/12/6 14/11/6 10/1/1
f 23/21/7 18/29/8 19/22/8
f 21/24/9 20/39/9 24/25/10
f 16/27/11 23/21/7 22/23/7
f 25/26/10 24/25/10 19/22/8
f 4/32/4 3/18/4 23/30/4
f 3/18/4 18/40/4 23/30/4
f 9/5/5 2/19/20 26/34/14
f 26/34/14 4/32/21 9/5/5
f 4/32/21 16/31/5 9/5/5
f 5/16/22 3/18/13 27/33/12
f 3/18/13 4/32/21 26/34/14
f 6/36/17 5/16/22 27/33/12
f 27/33/12 28/35/15 6/36/17
f 12/13/3 20/10/3 21/24/3
f 21/24/3 7/7/16 12/13/3
f 7/7/16 28/35/15 12/13/3
f 26/34/14 2/19/20 11/2/19
f 26/34/14 11/2/19 27/33/12
f 11/2/19 1/15/19 27/33/12
f 8/37/18 28/35/15 13/14/19
f 28/35/15 27/33/12 13/14/19
