# Blender v2.90.1 OBJ File: 'tiles.blend'
# www.blender.org
o cliff_1110-1000_Cube.027
v -1.000000 -2.100000 -0.100000
v -0.100000 -1.100000 -1.000000
v -0.200000 -1.100000 -0.200000
v -1.000000 -1.100000 -0.100000
v -0.450000 -2.100000 -0.100000
v -0.100000 -1.100000 -0.450000
v -0.450000 -1.100000 -0.100000
v -1.000000 -1.600000 -0.100000
v -0.450000 -1.600000 -0.100000
v -0.100000 -0.600000 -1.000000
v -0.200000 -0.600000 -0.200000
v -1.000000 -0.600000 -0.100000
v -0.100000 -0.600000 -0.450000
v -0.450000 -0.600000 -0.100000
v -0.100000 -0.100000 -1.000000
v -0.200000 -0.100000 -0.200000
v -1.000000 -0.100000 -0.100000
v -0.100000 -0.100000 -0.450000
v -0.450000 -0.100000 -0.100000
v 0.070000 -2.100000 -0.070000
v 0.100000 -2.100000 1.000000
v 1.000000 -1.100000 0.000000
v 1.000000 -1.100000 1.000000
v 1.000000 -1.100000 -1.000000
v 0.100000 -1.600000 1.000000
v 0.070000 -1.600000 -0.070000
v 0.100000 -2.100000 0.050000
v -0.050000 -2.100000 -0.100000
v -0.050000 -1.600000 -0.100000
v 0.100000 -1.600000 0.050000
v 0.200000 -1.100000 1.000000
v 0.100000 -1.200000 1.000000
v 0.152462 -1.100000 -0.152462
v 0.070000 -1.200000 -0.070000
v 0.100000 -1.200000 0.050000
v 0.200000 -1.100000 0.037689
v -0.050000 -1.200000 -0.100000
v -0.037689 -1.100000 -0.200000
v 1.000000 -2.100000 1.000000
v 1.000000 -2.100000 -1.000000
v -1.000000 -2.100000 -1.000000
v -1.000000 -0.100000 -1.000000
vt 0.040305 0.927017
vt 0.040305 0.927017
vt 0.040305 0.927017
vt 0.040305 0.927017
vt 0.040305 0.927017
vt 0.040305 0.927017
vt 0.040305 0.927017
vt 0.191247 0.917152
vt 0.191247 0.930664
vt 0.191247 0.930664
vt 0.191247 0.917152
vt 0.191247 0.930664
vt 0.191247 0.944176
vt 0.191247 0.930664
vt 0.177734 0.944176
vt 0.191247 0.944176
vt 0.164222 0.944176
vt 0.177734 0.944176
vt 0.191247 0.917152
vt 0.191247 0.930664
vt 0.191247 0.917152
vt 0.191247 0.944176
vt 0.164222 0.944176
vt 0.177734 0.944176
vt 0.000000 0.000000
vt 0.000000 0.000000
vt 0.063442 0.929181
vt 0.000000 0.000000
vt 0.181606 0.940996
vt 0.189466 0.940996
vt 0.191247 0.917152
vt 0.164222 0.944176
vt 0.047720 0.929181
vt 0.193397 0.940996
vt 0.000000 0.000000
vt 0.181606 0.948856
vt 0.181606 0.956717
vt 0.181606 0.940996
vt 0.181606 0.948856
vt 0.181606 0.956717
vt 0.181606 0.956717
vt 0.061962 0.943423
vt 0.047720 0.944902
vt 0.181606 0.940996
vt 0.181606 0.948856
vt 0.189466 0.940996
vt 0.056815 0.941880
vt 0.056815 0.934020
vt 0.056815 0.941880
vt 0.056815 0.949741
vt 0.056815 0.949741
vt 0.064676 0.934020
vt 0.056815 0.934020
vt 0.061434 0.948444
vt 0.061695 0.960623
vt 0.047720 0.960623
vt 0.193397 0.940996
vt 0.189466 0.940996
vt 0.064676 0.934020
vt 0.061962 0.942714
vt 0.193397 0.940996
vn 0.0000 1.0000 0.0000
vn 0.2074 0.8296 0.5185
vn -0.0000 0.7071 0.7071
vn -0.0000 0.0000 1.0000
vn 0.1340 -0.0000 0.9910
vn 0.1665 -0.0079 0.9860
vn 0.7071 0.0000 0.7071
vn 0.1891 0.0000 0.9820
vn 0.9820 0.0000 0.1891
vn 1.0000 0.0000 0.0000
vn -0.5774 0.5774 -0.5774
vn -1.0000 0.0000 -0.0000
vn -0.5774 -0.5774 -0.5774
vn -0.0000 0.0000 -1.0000
vn 0.5774 -0.5774 -0.5774
vn 0.0000 -1.0000 0.0000
vn 0.0000 0.7071 -0.7071
vn -0.7071 0.7071 -0.0000
vn -0.7071 -0.7071 -0.0000
vn 0.7071 0.0000 -0.7071
vn -0.1340 -0.9910 -0.0000
vn 0.5774 -0.5774 0.5774
vn 0.0000 -0.7071 0.7071
vn -0.7071 0.0000 0.7071
vn -0.9925 0.0000 0.1222
vn -0.1222 0.0000 0.9925
vn -0.6992 0.7098 0.0861
vn -0.4603 0.7591 0.4603
vn -0.0860 0.7098 0.6992
vn -0.0861 0.7098 0.6992
s off
f 33/1/1 2/2/1 6/3/1
f 37/4/2 3/5/2 7/6/2
f 6/3/1 3/5/1 38/7/1
f 38/7/1 33/1/1 6/3/1
f 37/4/3 38/7/3 3/5/3
s 1
f 8/8/4 5/9/5 9/10/5
f 4/11/4 9/10/5 7/12/6
f 3/13/7 14/14/8 7/12/6
f 6/15/9 11/16/7 3/13/7
f 2/17/10 13/18/9 6/15/9
f 4/11/4 14/14/8 12/19/4
f 12/19/4 19/20/8 17/21/4
f 11/16/7 19/20/8 14/14/8
f 13/18/9 16/22/7 11/16/7
f 10/23/10 18/24/9 13/18/9
f 42/25/11 19/20/1 18/24/1
f 4/11/12 42/25/11 41/26/13
f 2/27/14 40/28/15 41/26/13
f 40/28/15 20/29/16 28/30/16
f 8/8/4 1/31/4 5/9/5
f 4/11/4 8/8/4 9/10/5
f 3/13/7 11/16/7 14/14/8
f 6/15/9 13/18/9 11/16/7
f 2/17/10 10/23/10 13/18/9
f 4/11/4 7/12/6 14/14/8
f 12/19/4 14/14/8 19/20/8
f 11/16/7 16/22/7 19/20/8
f 13/18/9 18/24/9 16/22/7
f 10/23/10 15/32/10 18/24/9
f 16/22/1 18/24/1 19/20/1
f 18/24/1 15/32/17 42/25/11
f 42/25/11 17/21/18 19/20/1
f 1/31/19 8/8/12 41/26/13
f 8/8/12 4/11/12 41/26/13
f 12/19/12 17/21/18 42/25/11
f 4/11/12 12/19/12 42/25/11
f 15/32/17 10/23/14 42/25/11
f 10/23/14 2/27/14 42/25/11
f 42/25/11 2/27/14 41/26/13
f 2/27/14 24/33/20 40/28/15
f 5/34/21 1/31/19 41/26/13
f 40/28/15 39/35/22 27/36/16
f 39/35/22 21/37/23 27/36/16
f 5/34/21 41/26/13 28/30/16
f 41/26/13 40/28/15 28/30/16
f 40/28/15 27/36/16 20/29/16
f 26/38/24 27/36/25 30/39/25
f 32/40/12 30/39/25 25/41/12
f 26/38/24 28/30/26 20/29/24
f 24/33/1 33/42/1 22/43/1
f 25/41/12 27/36/25 21/37/12
f 34/44/24 30/39/25 35/45/25
f 34/44/24 29/46/26 26/38/24
f 36/47/27 34/48/28 35/49/27
f 31/50/18 35/49/27 32/51/18
f 38/52/29 34/48/28 33/53/28
f 36/54/1 31/55/1 23/56/1
f 9/57/5 28/30/26 29/46/26
f 37/58/26 9/57/5 29/46/26
f 31/55/4 32/51/4 25/41/4
f 40/28/15 22/43/10 39/35/22
f 26/38/24 20/29/24 27/36/25
f 32/40/12 35/45/25 30/39/25
f 26/38/24 29/46/26 28/30/26
f 24/33/1 2/27/1 33/42/1
f 25/41/12 30/39/25 27/36/25
f 34/44/24 26/38/24 30/39/25
f 34/44/24 37/58/26 29/46/26
f 36/47/27 33/53/28 34/48/28
f 31/50/18 36/47/27 35/49/27
f 38/52/29 37/59/30 34/48/28
f 23/56/1 22/43/1 36/54/1
f 22/43/1 33/60/1 36/54/1
f 9/57/5 5/34/5 28/30/26
f 37/58/26 7/61/6 9/57/5
f 25/41/4 21/37/23 39/35/22
f 39/35/22 23/56/7 25/41/4
f 23/56/7 31/55/4 25/41/4
f 24/33/20 22/43/10 40/28/15
f 22/43/10 23/56/7 39/35/22
