# Blender v2.90.1 OBJ File: 'tiles.blend'
# www.blender.org
o cliff_1101-1100_Cube.026
v -1.000000 -2.200000 -1.000000
v -1.000000 -2.200000 -0.100000
v 1.000000 -2.200000 -0.100000
v 0.050000 -2.200000 -0.100000
v 1.000000 -0.200000 -0.100000
v -1.000000 -1.200000 -0.100000
v 0.000000 -0.200000 -0.100000
v 0.000000 -1.200000 -0.100000
v 1.000000 -1.200000 -0.100000
v -1.000000 -0.200000 -0.100000
v -0.070000 -2.200000 -0.070000
v -0.100000 -2.200000 1.000000
v -1.000000 -1.200000 1.000000
v -1.000000 -1.200000 -1.000000
v -0.000000 -1.200000 -1.000000
v -0.100000 -1.700000 1.000000
v -0.070000 -1.700000 -0.070000
v -0.100000 -2.200000 0.050000
v 0.050000 -1.700000 -0.100000
v -0.100000 -1.700000 0.050000
v -0.200000 -1.200000 1.000000
v -0.100000 -1.300000 1.000000
v -0.152462 -1.200000 -0.100000
v -0.070000 -1.300000 -0.070000
v 1.000000 -1.300000 -0.100000
v -0.100000 -1.300000 0.050000
v -0.200000 -1.200000 0.037689
v 0.050000 -1.300000 -0.100000
v -1.000000 -2.200000 1.000000
v 1.000000 -2.200000 -1.000000
v 0.000000 -2.200000 -1.000000
v 1.000000 -0.200000 -1.000000
v -0.000000 -0.200000 -1.000000
v 1.000000 -1.200000 -1.000000
v -1.000000 -0.200000 -1.000000
vt 0.195063 0.921979
vt 0.196764 0.923736
vt 0.194974 0.923741
vt 0.194701 0.923742
vt 0.194974 0.925503
vt 0.598541 0.568714
vt 0.398541 0.784156
vt 0.398541 0.568714
vt 0.778541 0.588665
vt 0.958206 0.392443
vt 0.958206 0.588665
vt 0.610000 0.176599
vt 0.800000 0.000000
vt 0.800000 0.176599
vt 0.598541 0.392443
vt 0.778541 0.588665
vt 0.598541 0.588665
vt 0.778541 0.784887
vt 0.598541 0.981108
vt 0.598541 0.784886
vt 0.598541 0.392443
vt 0.598541 0.784886
vt 0.778541 0.784886
vt 0.958206 0.784886
vt 0.778541 0.784886
vt 0.196764 0.921974
vt 0.193184 0.925507
vt 0.193184 0.923746
vt 0.196764 0.925498
vt 0.598541 0.784156
vt 0.778541 0.392443
vt 0.600000 0.000000
vt 0.778541 0.392443
vt 0.778541 0.981108
vt 0.398541 0.392443
vt 0.194844 0.923563
vt 0.195063 0.923564
vt 0.188679 0.928774
vt 0.189578 0.928989
vt 0.188679 0.928989
vt 0.188679 0.927103
vt 0.187961 0.928774
vt 0.187961 0.927103
vt 0.194844 0.922859
vt 0.195063 0.922860
vt 0.189578 0.927103
vt 0.187961 0.928989
vt 0.085448 0.923553
vt 0.085894 0.922912
vt 0.085894 0.923526
vt 0.072936 0.945197
vt 0.072490 0.941043
vt 0.072936 0.940989
vt 0.076501 0.945197
vt 0.957884 0.784886
vt 0.957884 0.981013
vt 0.778541 0.883419
vt 0.586000 0.182486
vt 0.400000 0.176599
vt 0.580000 0.206033
vt 0.000000 0.196222
vt 0.200000 0.000000
vt 0.400000 0.196222
vt 0.189578 0.928774
vt 0.194844 0.921978
vt 0.085448 0.923021
vt 0.072490 0.945197
vt 0.072724 0.940387
vt 0.076501 0.940387
vt 0.778541 0.981482
vt 0.778541 0.804969
vt 0.798468 0.785304
vt 0.400000 0.000000
vt 0.580000 0.392443
vt 0.400000 0.392443
vt 0.400000 0.392443
vt 0.200000 0.392443
vt 0.000000 0.392443
vt 0.000000 0.000000
vt 0.400000 0.000000
vn -0.0000 0.0013 1.0000
vn 0.0000 0.0000 1.0000
vn 0.0394 0.0619 0.9973
vn 0.0345 0.1977 0.9797
vn 0.7071 0.0000 0.7071
vn 1.0000 0.0000 0.0000
vn 0.7071 0.0003 0.7071
vn 0.5774 -0.5774 -0.5774
vn 0.7071 0.0000 -0.7071
vn 0.0013 -1.0000 -0.0001
vn 0.7071 -0.7071 0.0000
vn 0.7071 0.7071 -0.0000
vn -0.0000 0.7071 -0.7071
vn -0.0000 1.0000 0.0000
vn -1.0000 0.0000 0.0000
vn -0.5774 0.5774 -0.5774
vn -0.8098 0.0000 -0.5867
vn -0.7071 0.7071 0.0000
vn 0.5774 0.5774 -0.5774
vn 0.0000 -0.7071 -0.7071
vn 0.6017 0.3480 0.7189
vn 0.3541 0.0042 0.9352
vn 0.9925 0.0000 0.1222
vn 0.9137 0.3874 0.1225
vn 0.3592 0.0000 0.9332
vn 0.6954 0.7095 0.1146
vn 0.0000 -0.7071 0.7071
vn 0.0000 -1.0000 0.0000
vn 0.0003 -0.7071 0.7071
vn -0.2636 0.9613 -0.0806
vn 0.0005 -0.9659 0.2588
s 1
f 4/1/1 9/2/2 8/3/3
f 23/4/4 8/3/3 7/5/2
f 9/2/2 7/5/2 8/3/3
f 6/6/5 29/7/6 2/8/7
f 9/9/6 30/10/8 34/11/9
f 4/12/10 30/13/8 3/14/11
f 5/15/12 33/16/13 7/17/14
f 6/18/15 35/19/16 14/20/17
f 2/8/7 14/21/5 6/6/5
f 10/22/18 33/16/13 35/23/16
f 9/9/6 32/24/19 5/25/12
f 4/1/1 3/26/2 9/2/2
f 7/5/2 10/27/2 23/4/4
f 10/27/2 6/28/2 23/4/4
f 9/2/2 5/29/2 7/5/2
f 6/6/5 13/30/6 29/7/6
f 9/9/6 3/31/11 30/10/8
f 4/12/10 31/32/20 30/13/8
f 5/15/12 32/33/19 33/16/13
f 6/18/15 10/34/18 35/19/16
f 2/8/7 1/35/5 14/21/5
f 10/22/18 7/17/14 33/16/13
f 9/9/6 34/11/9 32/24/19
f 8/3/3 24/36/21 28/37/22
f 20/38/23 11/39/5 17/40/5
f 16/41/6 26/42/24 22/43/6
f 17/44/5 4/1/25 19/45/25
f 12/46/6 20/38/23 16/41/6
f 20/38/23 24/47/21 26/42/24
f 17/44/5 28/37/22 24/36/21
f 26/48/24 23/49/4 27/50/26
f 21/51/12 26/52/24 27/53/26
f 13/54/14 21/51/14 27/53/14
f 13/55/2 29/56/27 16/57/2
f 31/32/20 4/12/10 11/58/28
f 2/59/29 11/58/28 18/60/28
f 33/61/13 34/62/9 31/63/20
f 8/3/3 23/4/4 24/36/21
f 20/38/23 18/64/23 11/39/5
f 16/41/6 20/38/23 26/42/24
f 17/44/5 11/65/5 4/1/25
f 12/46/6 18/64/23 20/38/23
f 20/38/23 17/40/5 24/47/21
f 17/44/5 19/45/25 28/37/22
f 26/48/24 24/66/21 23/49/4
f 21/51/12 22/67/12 26/52/24
f 23/68/30 6/69/14 27/53/14
f 6/69/14 13/54/14 27/53/14
f 29/56/27 12/70/27 16/57/2
f 16/57/2 22/71/2 21/72/2
f 21/72/2 13/55/2 16/57/2
f 11/58/28 2/59/29 1/73/31
f 1/73/31 31/32/20 11/58/28
f 18/60/28 12/74/27 29/75/27
f 29/75/27 2/59/29 18/60/28
f 31/63/20 1/76/31 14/77/17
f 14/77/17 35/78/16 33/61/13
f 33/61/13 32/79/19 34/62/9
f 34/62/9 30/80/8 31/63/20
f 31/63/20 14/77/17 33/61/13
l 25 28
